Merriweather35-BlackHeadingNarrow.ufo
<glyph name="exclam" format="2">
  <advance width="570.1"/>
  <unicode hex="0021"/>
  <outline>
    <contour>
      <point x="455.8" y="1780.0" type="line"/>
      <point x="111.0" y="1780.0" type="line"/>
      <point x="233.70000000000002" y="483.8" type="line"/>
      <point x="334.1" y="483.8" type="line"/>
    </contour>
    <contour>
      <point x="220.2" y="33.5" type="curve" smooth="yes"/>
      <point x="288.1" y="4.100000000000001"/>
      <point x="359.5" y="26.0"/>
      <point x="385.3" y="99.49999999999999" type="curve" smooth="yes"/>
      <point x="421.6" y="154.1"/>
      <point x="413.1" y="225.39999999999998"/>
      <point x="350.8" y="259.9" type="curve" smooth="yes"/>
      <point x="288.5" y="285.4"/>
      <point x="220.00000000000003" y="262.8"/>
      <point x="186.40000000000003" y="194.20000000000002" type="curve" smooth="yes"/>
      <point x="153.4" y="131.90000000000003"/>
      <point x="170.5" y="65.90000000000002"/>
    </contour>
  </outline>
</glyph>
<glyph name="quotedbl" format="2">
  <advance width="1072.3"/>
  <unicode hex="0022"/>
  <outline>
    <contour>
      <point x="441.5" y="1682.0" type="line"/>
      <point x="189.2" y="1682.0" type="line"/>
      <point x="269.7" y="911.1" type="line"/>
      <point x="359.0" y="911.1" type="line"/>
    </contour>
    <contour>
      <point x="884.8000000000001" y="1682.0" type="line"/>
      <point x="632.5" y="1682.0" type="line"/>
      <point x="713.0" y="911.1" type="line"/>
      <point x="802.3" y="911.1" type="line"/>
    </contour>
  </outline>
</glyph>
<glyph name="numbersign" format="2">
  <advance width="1318.6"/>
  <unicode hex="0023"/>
  <outline>
    <contour>
      <point x="101.6" y="401.0" type="line"/>
      <point x="301.8" y="401.0" type="line"/>
      <point x="258.3" y="0.0" type="line"/>
      <point x="481.5" y="0.0" type="line"/>
      <point x="523.0" y="401.0" type="line"/>
      <point x="779.3" y="401.0" type="line"/>
      <point x="740.5" y="0.0" type="line"/>
      <point x="960.7" y="0.0" type="line"/>
      <point x="1001.5" y="401.0" type="line"/>
      <point x="1243.5" y="401.0" type="line"/>
      <point x="1242.5" y="568.0" type="line"/>
      <point x="1023.4" y="568.0" type="line"/>
      <point x="1054.6" y="907.0" type="line"/>
      <point x="1283.0" y="907.0" type="line"/>
      <point x="1283.0" y="1072.0" type="line"/>
      <point x="1079.5" y="1072.0" type="line"/>
      <point x="1125.3" y="1486.0" type="line"/>
      <point x="903.1" y="1486.0" type="line"/>
      <point x="859.3" y="1072.0" type="line"/>
      <point x="604.3" y="1072.0" type="line"/>
      <point x="648.1" y="1486.0" type="line"/>
      <point x="426.9" y="1486.0" type="line"/>
      <point x="383.1" y="1072.0" type="line"/>
      <point x="146.4" y="1072.0" type="line"/>
      <point x="146.4" y="907.0" type="line"/>
      <point x="357.2" y="907.0" type="line"/>
      <point x="324.7" y="568.0" type="line"/>
      <point x="100.6" y="568.0" type="line"/>
    </contour>
    <contour>
      <point x="832.4" y="907.0" type="line"/>
      <point x="796.9" y="568.0" type="line"/>
      <point x="544.9" y="568.0" type="line"/>
      <point x="577.4" y="907.0" type="line"/>
    </contour>
  </outline>
</glyph>
<glyph name="dollar" format="2">
  <advance width="1266.4"/>
  <unicode hex="0024"/>
  <outline>
    <contour>
      <point x="128.7" y="65.0" type="line"/>
      <point x="188.6" y="57.0"/>
      <point x="340.9" y="-15.0"/>
      <point x="551.6" y="-24.2" type="curve"/>
      <point x="551.0" y="-257.6" type="line"/>
      <point x="668.4" y="-257.6" type="line"/>
      <point x="668.7" y="-20.2" type="line"/>
      <point x="945.8" y="15.900000000000002"/>
      <point x="1088.8" y="192.4"/>
      <point x="1088.8" y="415.8" type="curve" smooth="yes"/>
      <point x="1088.8" y="662.4"/>
      <point x="914.3" y="767.8"/>
      <point x="763.9" y="863.9" type="curve" smooth="yes"/>
      <point x="587.2" y="977.6"/>
      <point x="478.4" y="1062.6"/>
      <point x="478.4" y="1213.6" type="curve" smooth="yes"/>
      <point x="478.4" y="1322.7"/>
      <point x="531.2" y="1424.1"/>
      <point x="648.0" y="1424.1" type="curve" smooth="yes"/>
      <point x="706.6" y="1424.1"/>
      <point x="769.8" y="1397.7"/>
      <point x="785.9" y="1371.1" type="curve"/>
      <point x="824.9" y="1093.0" type="line"/>
      <point x="995.1" y="1093.0" type="line"/>
      <point x="1015.9" y="1432.0" type="line"/>
      <point x="964.9" y="1440.0"/>
      <point x="791.7" y="1499.8"/>
      <point x="665.4" y="1503.4" type="curve"/>
      <point x="665.4" y="1732.6" type="line"/>
      <point x="547.4" y="1732.6" type="line"/>
      <point x="547.4" y="1502.8" type="line"/>
      <point x="285.1" y="1476.6"/>
      <point x="139.0" y="1324.4"/>
      <point x="139.0" y="1095.1" type="curve" smooth="yes"/>
      <point x="139.0" y="829.7"/>
      <point x="333.6" y="715.9"/>
      <point x="453.2" y="639.4" type="curve" smooth="yes"/>
      <point x="635.2" y="522.7"/>
      <point x="735.4" y="441.3"/>
      <point x="735.4" y="283.5" type="curve" smooth="yes"/>
      <point x="735.4" y="168.2"/>
      <point x="682.3" y="61.0"/>
      <point x="549.1" y="61.0" type="curve" smooth="yes"/>
      <point x="483.1" y="61.0"/>
      <point x="403.3" y="86.7"/>
      <point x="377.1" y="129.0" type="curve"/>
      <point x="331.5" y="435.0" type="line"/>
      <point x="150.3" y="435.0" type="line"/>
    </contour>
  </outline>
</glyph>
<glyph name="quotesingle" format="2">
  <advance width="629.7"/>
  <unicode hex="0027"/>
  <outline>
    <contour>
      <point x="441.5" y="1682.0" type="line"/>
      <point x="189.2" y="1682.0" type="line"/>
      <point x="269.7" y="911.1" type="line"/>
      <point x="359.0" y="911.1" type="line"/>
    </contour>
  </outline>
</glyph>
<glyph name="plus" format="2">
  <advance width="1204.0"/>
  <unicode hex="002B"/>
  <outline>
    <contour>
      <point x="319.5" y="727.5" type="line"/>
      <point x="180.0" y="727.5" type="line"/>
      <point x="180.0" y="604.3" type="line"/>
      <point x="319.5" y="604.3" type="line"/>
      <point x="541.7" y="606.7" type="line"/>
      <point x="539.9" y="420.4" type="line"/>
      <point x="539.9" y="192.4" type="line"/>
      <point x="663.1" y="192.4" type="line"/>
      <point x="663.1" y="420.4" type="line"/>
      <point x="660.4" y="606.7" type="line"/>
      <point x="854.5" y="604.3" type="line"/>
      <point x="1024.0" y="604.3" type="line"/>
      <point x="1024.0" y="727.5" type="line"/>
      <point x="854.5" y="727.5" type="line"/>
      <point x="660.4" y="723.9" type="line"/>
      <point x="663.1" y="916.4" type="line"/>
      <point x="663.1" y="1135.4" type="line"/>
      <point x="539.9" y="1135.4" type="line"/>
      <point x="539.9" y="916.4" type="line"/>
      <point x="541.7" y="723.9" type="line"/>
    </contour>
  </outline>
</glyph>
<glyph name="comma" format="2">
  <advance width="538.1"/>
  <unicode hex="002C"/>
  <outline>
    <contour>
      <point x="262.8" y="330.7" type="curve"/>
      <point x="252.9" y="330.7" type="line" smooth="yes"/>
      <point x="169.6" y="330.7"/>
      <point x="115.0" y="272.8"/>
      <point x="115.0" y="187.9" type="curve" smooth="yes"/>
      <point x="115.0" y="45.6"/>
      <point x="254.60000000000002" y="31.6"/>
      <point x="254.60000000000002" y="-77.0" type="curve" smooth="yes"/>
      <point x="254.60000000000002" y="-187.5"/>
      <point x="189.8" y="-318.0"/>
      <point x="118.5" y="-398.2" type="curve"/>
      <point x="118.5" y="-413.7" type="line"/>
      <point x="170.0" y="-448.6" type="line"/>
      <point x="172.0" y="-447.9" type="line"/>
      <point x="292.9" y="-373.3"/>
      <point x="437.8" y="-163.5"/>
      <point x="437.8" y="70.1" type="curve" smooth="yes"/>
      <point x="437.8" y="219.8"/>
      <point x="361.2" y="330.7"/>
    </contour>
  </outline>
</glyph>
<glyph name="period" format="2">
  <advance width="483.5"/>
  <unicode hex="002E"/>
  <outline>
    <contour>
      <point x="226.5" y="-16.0" type="curve" smooth="yes"/>
      <point x="331.1" y="-16.0"/>
      <point x="402.40000000000003" y="45.8"/>
      <point x="402.40000000000003" y="153.8" type="curve" smooth="yes"/>
      <point x="402.40000000000003" y="234.2"/>
      <point x="348.6" y="310.6"/>
      <point x="253.0" y="310.6" type="curve" smooth="yes"/>
      <point x="157.7" y="310.6"/>
      <point x="81.4" y="241.5"/>
      <point x="81.4" y="140.5" type="curve" smooth="yes"/>
      <point x="81.4" y="48.8"/>
      <point x="150.4" y="-16.0"/>
    </contour>
  </outline>
</glyph>
<glyph name="slash" format="2">
  <advance width="666.7"/>
  <unicode hex="002F"/>
  <outline>
    <contour>
      <point x="630.1" y="1562.0" type="line"/>
      <point x="498.4" y="1562.0" type="line"/>
      <point x="36.0" y="-354.0" type="line"/>
      <point x="169.7" y="-354.0" type="line"/>
    </contour>
  </outline>
</glyph>
<glyph name="zero" format="2">
  <advance width="1199.3"/>
  <unicode hex="0030"/>
  <outline>
    <contour>
      <point x="573.1" y="-21.0" type="curve" smooth="yes"/>
      <point x="918.0" y="-21.0"/>
      <point x="1129.8" y="246.9"/>
      <point x="1129.8" y="773.8" type="curve" smooth="yes"/>
      <point x="1129.8" y="1258.0"/>
      <point x="946.9" y="1505.0"/>
      <point x="626.9" y="1505.0" type="curve" smooth="yes"/>
      <point x="299.8" y="1505.0"/>
      <point x="70.2" y="1240.7"/>
      <point x="69.5" y="710.1" type="curve" smooth="yes"/>
      <point x="68.8" y="228.9"/>
      <point x="248.10000000000002" y="-21.0"/>
    </contour>
    <contour>
      <point x="602.5" y="58.2" type="curve" smooth="yes"/>
      <point x="470.1" y="58.2"/>
      <point x="435.9" y="206.5"/>
      <point x="435.9" y="729.5" type="curve" smooth="yes"/>
      <point x="435.9" y="1276.7"/>
      <point x="477.9" y="1422.9"/>
      <point x="600.4" y="1422.9" type="curve" smooth="yes"/>
      <point x="726.8" y="1422.9"/>
      <point x="763.4" y="1311.1"/>
      <point x="763.4" y="736.0" type="curve" smooth="yes"/>
      <point x="763.4" y="233.5"/>
      <point x="749.6" y="58.2"/>
    </contour>
  </outline>
</glyph>
<glyph name="one" format="2">
  <advance width="845.5"/>
  <unicode hex="0031"/>
  <outline>
    <contour>
      <point x="279.0" y="95.4" type="line"/>
      <point x="96.3" y="65.0" type="line"/>
      <point x="96.3" y="0.0" type="line"/>
      <point x="797.3" y="0.0" type="line"/>
      <point x="797.3" y="65.0" type="line"/>
      <point x="626.9" y="96.0" type="line"/>
      <point x="626.9" y="1486.0" type="line"/>
      <point x="456.6" y="1506.0" type="line"/>
      <point x="446.2" y="1506.0" type="line"/>
      <point x="371.3" y="1416.2"/>
      <point x="224.4" y="1300.0"/>
      <point x="57.300000000000004" y="1263.3" type="curve"/>
      <point x="72.30000000000001" y="1171.1" type="line"/>
      <point x="130.0" y="1171.5"/>
      <point x="240.8" y="1204.9"/>
      <point x="279.70000000000005" y="1221.0" type="curve"/>
    </contour>
  </outline>
</glyph>
<glyph name="two" format="2">
  <advance width="1067.3"/>
  <unicode hex="0032"/>
  <outline>
    <contour>
      <point x="28.599999999999994" y="146.6" type="curve"/>
      <point x="92.4" y="0.0" type="line"/>
      <point x="935.1" y="0.0" type="line"/>
      <point x="1010.7" y="423.2" type="line"/>
      <point x="930.1" y="445.3" type="line"/>
      <point x="853.9" y="285.6" type="line"/>
      <point x="251.60000000000002" y="202.8" type="line"/>
      <point x="622.0" y="434.3"/>
      <point x="928.6" y="725.5"/>
      <point x="928.6" y="1104.9" type="curve" smooth="yes"/>
      <point x="928.6" y="1307.9"/>
      <point x="807.1" y="1504.0"/>
      <point x="520.5" y="1504.0" type="curve" smooth="yes"/>
      <point x="297.6" y="1504.0"/>
      <point x="131.3" y="1371.4"/>
      <point x="57.300000000000004" y="1236.8" type="curve"/>
      <point x="106.4" y="1171.2" type="line"/>
      <point x="191.2" y="1262.8"/>
      <point x="268.1" y="1302.3"/>
      <point x="362.9" y="1302.3" type="curve" smooth="yes"/>
      <point x="489.5" y="1302.3"/>
      <point x="593.9" y="1203.5"/>
      <point x="593.9" y="1016.3" type="curve" smooth="yes"/>
      <point x="593.9" y="688.8"/>
      <point x="324.8" y="345.2"/>
    </contour>
  </outline>
</glyph>
<glyph name="three" format="2">
  <advance width="1015.9"/>
  <unicode hex="0033"/>
  <outline>
    <contour>
      <point x="350.1" y="-35.7" type="curve" smooth="yes"/>
      <point x="673.0" y="-35.7"/>
      <point x="950.9" y="148.2"/>
      <point x="950.9" y="439.2" type="curve" smooth="yes"/>
      <point x="950.9" y="686.5"/>
      <point x="737.6" y="789.4"/>
      <point x="449.4" y="757.7" type="curve"/>
      <point x="657.7" y="819.7"/>
      <point x="884.7" y="971.8"/>
      <point x="884.7" y="1197.7" type="curve" smooth="yes"/>
      <point x="884.7" y="1405.7"/>
      <point x="706.7" y="1503.7"/>
      <point x="497.2" y="1503.7" type="curve" smooth="yes"/>
      <point x="311.1" y="1503.7"/>
      <point x="157.5" y="1429.3"/>
      <point x="38.0" y="1318.4" type="curve"/>
      <point x="83.5" y="1240.2" type="line"/>
      <point x="155.7" y="1295.3"/>
      <point x="238.8" y="1339.2"/>
      <point x="328.6" y="1339.2" type="curve" smooth="yes"/>
      <point x="444.0" y="1339.2"/>
      <point x="526.9" y="1264.4"/>
      <point x="527.2" y="1127.9" type="curve" smooth="yes"/>
      <point x="527.5" y="982.9"/>
      <point x="460.6" y="877.1"/>
      <point x="349.6" y="820.9" type="curve" smooth="yes"/>
      <point x="311.9" y="801.7"/>
      <point x="271.8" y="786.9"/>
      <point x="227.1" y="776.9" type="curve"/>
      <point x="243.5" y="686.9" type="line"/>
      <point x="273.5" y="695.3"/>
      <point x="316.6" y="708.9"/>
      <point x="350.1" y="718.0" type="curve"/>
      <point x="494.2" y="722.3"/>
      <point x="576.0" y="596.5"/>
      <point x="576.0" y="440.8" type="curve" smooth="yes"/>
      <point x="576.0" y="229.7"/>
      <point x="462.5" y="83.5"/>
      <point x="270.9" y="83.5" type="curve" smooth="yes"/>
      <point x="188.0" y="83.5"/>
      <point x="122.0" y="93.5"/>
      <point x="52.2" y="122.4" type="curve"/>
      <point x="43.10000000000001" y="25.9" type="line"/>
      <point x="97.5" y="-2.900000000000002"/>
      <point x="221.2" y="-35.7"/>
    </contour>
  </outline>
</glyph>
<glyph name="four" format="2">
  <advance width="1149.0"/>
  <unicode hex="0034"/>
  <outline>
    <contour>
      <point x="636.1" y="0.0" type="line"/>
      <point x="953.1" y="0.0" type="line"/>
      <point x="953.1" y="288.0" type="line"/>
      <point x="1123.8" y="288.0" type="line"/>
      <point x="1123.8" y="456.5" type="line"/>
      <point x="952.4" y="443.2" type="line"/>
      <point x="952.4" y="848.2" type="line"/>
      <point x="663.4" y="819.0" type="line"/>
      <point x="638.4" y="410.9" type="line"/>
      <point x="240.4" y="373.8" type="line"/>
      <point x="424.6" y="643.6" type="line"/>
      <point x="819.0" y="1348.5" type="line"/>
      <point x="544.5" y="1501.0" type="line"/>
      <point x="466.7" y="1501.0" type="line"/>
      <point x="363.6" y="1217.3"/>
      <point x="158.20000000000002" y="729.0"/>
      <point x="19.9" y="428.2" type="curve"/>
      <point x="90.7" y="288.0" type="line"/>
      <point x="636.1" y="288.0" type="line"/>
    </contour>
  </outline>
</glyph>
<glyph name="five" format="2">
  <advance width="1065.4"/>
  <unicode hex="0035"/>
  <outline>
    <contour>
      <point x="93.30000000000001" y="86.1" type="curve"/>
      <point x="94.0" y="-0.5" type="line"/>
      <point x="158.4" y="-27.9"/>
      <point x="264.7" y="-35.5"/>
      <point x="326.1" y="-33.4" type="curve" smooth="yes"/>
      <point x="674.1" y="-24.3"/>
      <point x="984.5" y="190.2"/>
      <point x="984.5" y="543.8" type="curve" smooth="yes"/>
      <point x="984.5" y="806.4"/>
      <point x="830.2" y="937.7"/>
      <point x="600.3" y="937.7" type="curve" smooth="yes"/>
      <point x="441.0" y="937.7"/>
      <point x="290.20000000000005" y="855.0"/>
      <point x="210.7" y="766.5" type="curve"/>
      <point x="312.4" y="1209.4" type="line"/>
      <point x="903.1" y="1209.4" type="line"/>
      <point x="944.0" y="1524.0" type="line"/>
      <point x="851.0" y="1524.0" type="line"/>
      <point x="828.1" y="1486.0" type="line"/>
      <point x="183.6" y="1486.0" type="line"/>
      <point x="94.4" y="731.4" type="line"/>
      <point x="162.2" y="684.9" type="line"/>
      <point x="231.89999999999998" y="732.9"/>
      <point x="325.8" y="748.9"/>
      <point x="415.2" y="748.9" type="curve" smooth="yes"/>
      <point x="562.0" y="748.9"/>
      <point x="639.5" y="631.4"/>
      <point x="639.5" y="465.9" type="curve" smooth="yes"/>
      <point x="639.5" y="234.4"/>
      <point x="478.7" y="79.7"/>
      <point x="267.8" y="73.4" type="curve" smooth="yes"/>
      <point x="198.7" y="70.60000000000001"/>
      <point x="140.1" y="76.4"/>
    </contour>
  </outline>
</glyph>
<glyph name="six" format="2">
  <advance width="1154.3"/>
  <unicode hex="0036"/>
  <outline>
    <contour>
      <point x="584.1" y="-36.5" type="curve" smooth="yes"/>
      <point x="877.5" y="-36.5"/>
      <point x="1098.4" y="164.3"/>
      <point x="1098.4" y="501.1" type="curve" smooth="yes"/>
      <point x="1098.4" y="792.4"/>
      <point x="934.5" y="940.2"/>
      <point x="735.5" y="940.2" type="curve" smooth="yes"/>
      <point x="614.3" y="940.2"/>
      <point x="502.1" y="880.7"/>
      <point x="435.6" y="772.3" type="curve"/>
      <point x="475.0" y="1050.3"/>
      <point x="588.7" y="1348.5"/>
      <point x="890.2" y="1434.7" type="curve"/>
      <point x="852.1" y="1512.1" type="line"/>
      <point x="438.1" y="1484.8"/>
      <point x="66.1" y="1079.2"/>
      <point x="66.1" y="584.7" type="curve" smooth="yes"/>
      <point x="66.1" y="244.8"/>
      <point x="251.5" y="-36.5"/>
    </contour>
    <contour>
      <point x="581.7" y="780.7" type="curve" smooth="yes"/>
      <point x="694.8" y="780.7"/>
      <point x="747.0" y="616.5"/>
      <point x="747.0" y="406.4" type="curve" smooth="yes"/>
      <point x="747.0" y="213.4"/>
      <point x="698.6" y="48.60000000000001"/>
      <point x="585.6" y="48.60000000000001" type="curve" smooth="yes"/>
      <point x="478.5" y="48.60000000000001"/>
      <point x="418.4" y="204.1"/>
      <point x="418.4" y="514.4" type="curve" smooth="yes"/>
      <point x="418.4" y="585.5"/>
      <point x="422.1" y="641.5"/>
      <point x="425.7" y="686.8" type="curve"/>
      <point x="454.70000000000005" y="725.6"/>
      <point x="510.2" y="780.7"/>
    </contour>
  </outline>
</glyph>
<glyph name="seven" format="2">
  <advance width="1002.9"/>
  <unicode hex="0037"/>
  <outline>
    <contour>
      <point x="589.4" y="0.0" type="line"/>
      <point x="986.6" y="1412.7" type="line"/>
      <point x="917.8" y="1486.0" type="line"/>
      <point x="96.4" y="1486.0" type="line"/>
      <point x="42.2" y="1020.2" type="line"/>
      <point x="143.7" y="1001.7" type="line"/>
      <point x="232.3" y="1219.8" type="line"/>
      <point x="799.8" y="1224.0" type="line"/>
      <point x="625.4" y="857.0"/>
      <point x="419.0" y="457.8"/>
      <point x="198.9" y="0.0" type="curve"/>
    </contour>
  </outline>
</glyph>
<glyph name="eight" format="2">
  <advance width="1166.9"/>
  <unicode hex="0038"/>
  <outline>
    <contour>
      <point x="73.7" y="354.9" type="curve" smooth="yes"/>
      <point x="73.7" y="89.6"/>
      <point x="327.5" y="-22.0"/>
      <point x="573.9" y="-22.0" type="curve" smooth="yes"/>
      <point x="877.8" y="-22.0"/>
      <point x="1093.2" y="140.8"/>
      <point x="1093.2" y="415.6" type="curve" smooth="yes"/>
      <point x="1093.2" y="633.3"/>
      <point x="943.3" y="735.6"/>
      <point x="747.5" y="852.7" type="curve"/>
      <point x="910.4" y="913.5"/>
      <point x="1025.1" y="1022.4"/>
      <point x="1025.1" y="1180.4" type="curve" smooth="yes"/>
      <point x="1025.1" y="1394.8"/>
      <point x="841.1" y="1506.0"/>
      <point x="607.5" y="1506.0" type="curve" smooth="yes"/>
      <point x="353.4" y="1506.0"/>
      <point x="132.10000000000002" y="1367.8"/>
      <point x="132.10000000000002" y="1103.1" type="curve" smooth="yes"/>
      <point x="132.10000000000002" y="951.7"/>
      <point x="227.1" y="797.9"/>
      <point x="375.7" y="700.2" type="curve"/>
      <point x="196.0" y="650.9"/>
      <point x="73.7" y="519.1"/>
    </contour>
    <contour>
      <point x="418.3" y="1216.0" type="curve" smooth="yes"/>
      <point x="418.3" y="1351.8"/>
      <point x="505.3" y="1426.5"/>
      <point x="607.1" y="1426.5" type="curve" smooth="yes"/>
      <point x="739.4" y="1426.5"/>
      <point x="795.0" y="1316.7"/>
      <point x="795.0" y="1165.1" type="curve" smooth="yes"/>
      <point x="795.0" y="1060.8"/>
      <point x="744.0" y="949.9"/>
      <point x="685.9" y="891.3" type="curve"/>
      <point x="554.3" y="977.3"/>
      <point x="418.3" y="1049.6"/>
    </contour>
    <contour>
      <point x="778.1" y="282.4" type="curve" smooth="yes"/>
      <point x="778.1" y="141.8"/>
      <point x="688.9" y="59.2"/>
      <point x="576.5" y="59.2" type="curve" smooth="yes"/>
      <point x="417.4" y="59.2"/>
      <point x="328.1" y="206.5"/>
      <point x="328.1" y="394.9" type="curve" smooth="yes"/>
      <point x="328.1" y="504.2"/>
      <point x="376.6" y="606.9"/>
      <point x="433.9" y="658.5" type="curve"/>
      <point x="625.2" y="556.2"/>
      <point x="778.1" y="467.3"/>
    </contour>
  </outline>
</glyph>
<glyph name="nine" format="2">
  <advance width="1159.9"/>
  <unicode hex="0039"/>
  <outline>
    <contour>
      <point x="590.6" y="1508.1" type="curve" smooth="yes"/>
      <point x="273.6" y="1508.1"/>
      <point x="55.9" y="1275.1"/>
      <point x="55.9" y="962.6" type="curve" smooth="yes"/>
      <point x="55.9" y="680.3"/>
      <point x="209.60000000000002" y="489.6"/>
      <point x="432.5" y="489.6" type="curve" smooth="yes"/>
      <point x="579.7" y="489.6"/>
      <point x="665.0" y="543.8"/>
      <point x="721.5" y="651.5" type="curve"/>
      <point x="682.2" y="363.2"/>
      <point x="584.2" y="83.6"/>
      <point x="256.3" y="-0.8000000000000007" type="curve"/>
      <point x="289.3" y="-77.1" type="line"/>
      <point x="766.4" y="-52.2"/>
      <point x="1093.8" y="345.4"/>
      <point x="1093.8" y="869.1" type="curve" smooth="yes"/>
      <point x="1093.8" y="1301.8"/>
      <point x="882.6" y="1508.1"/>
    </contour>
    <contour>
      <point x="566.1" y="650.0" type="curve" smooth="yes"/>
      <point x="467.1" y="650.0"/>
      <point x="408.9" y="794.0"/>
      <point x="408.9" y="1047.6" type="curve" smooth="yes"/>
      <point x="408.9" y="1262.2"/>
      <point x="458.9" y="1426.2"/>
      <point x="578.2" y="1426.2" type="curve" smooth="yes"/>
      <point x="686.2" y="1426.2"/>
      <point x="738.2" y="1259.7"/>
      <point x="737.0" y="921.1" type="curve" smooth="yes"/>
      <point x="737.0" y="861.6"/>
      <point x="732.8" y="797.6"/>
      <point x="729.5" y="739.9" type="curve"/>
      <point x="692.6" y="697.0"/>
      <point x="648.7" y="650.0"/>
    </contour>
  </outline>
</glyph>
<glyph name="colon" format="2">
  <advance width="545.9"/>
  <unicode hex="003A"/>
  <outline>
    <contour>
      <point x="257.4" y="735.2" type="curve" smooth="yes"/>
      <point x="362.3" y="735.2"/>
      <point x="433.3" y="797.0"/>
      <point x="433.3" y="905.0" type="curve" smooth="yes"/>
      <point x="433.3" y="985.4"/>
      <point x="379.8" y="1061.8"/>
      <point x="283.9" y="1061.8" type="curve" smooth="yes"/>
      <point x="188.60000000000002" y="1061.8"/>
      <point x="112.30000000000001" y="992.7"/>
      <point x="112.30000000000001" y="891.4" type="curve" smooth="yes"/>
      <point x="112.30000000000001" y="800.0"/>
      <point x="181.3" y="735.2"/>
    </contour>
    <contour>
      <point x="257.4" y="-16.0" type="curve" smooth="yes"/>
      <point x="362.3" y="-16.0"/>
      <point x="433.3" y="45.8"/>
      <point x="433.3" y="153.8" type="curve" smooth="yes"/>
      <point x="433.3" y="234.2"/>
      <point x="379.8" y="310.6"/>
      <point x="283.9" y="310.6" type="curve" smooth="yes"/>
      <point x="188.60000000000002" y="310.6"/>
      <point x="112.30000000000001" y="241.5"/>
      <point x="112.30000000000001" y="140.5" type="curve" smooth="yes"/>
      <point x="112.30000000000001" y="48.8"/>
      <point x="181.3" y="-16.0"/>
    </contour>
  </outline>
</glyph>
<glyph name="less" format="2">
  <advance width="1233.0"/>
  <unicode hex="003C"/>
  <outline>
    <contour>
      <point x="1025.0" y="1157.0" type="line"/>
      <point x="144.0" y="693.1" type="line"/>
      <point x="144.0" y="606.2" type="line"/>
      <point x="1025.0" y="146.39999999999998" type="line"/>
      <point x="1025.0" y="278.4" type="line"/>
      <point x="303.5" y="649.6" type="line"/>
      <point x="1025.0" y="1023.9" type="line"/>
    </contour>
  </outline>
</glyph>
<glyph name="equal" format="2">
  <advance width="1169.0"/>
  <unicode hex="003D"/>
  <outline>
    <contour>
      <point x="989.0" y="970.3" type="line"/>
      <point x="180.0" y="970.3" type="line"/>
      <point x="180.0" y="850.7" type="line"/>
      <point x="989.0" y="850.7" type="line"/>
    </contour>
    <contour>
      <point x="989.0" y="450.0" type="line"/>
      <point x="180.0" y="450.0" type="line"/>
      <point x="180.0" y="330.4" type="line"/>
      <point x="989.0" y="330.4" type="line"/>
    </contour>
  </outline>
</glyph>
<glyph name="greater" format="2">
  <advance width="1233.0"/>
  <unicode hex="003E"/>
  <outline>
    <contour>
      <point x="1089.0" y="606.2" type="line"/>
      <point x="1089.0" y="693.1" type="line"/>
      <point x="208.0" y="1157.0" type="line"/>
      <point x="208.0" y="1023.9" type="line"/>
      <point x="929.5" y="649.6" type="line"/>
      <point x="208.0" y="278.4" type="line"/>
      <point x="208.0" y="146.39999999999998" type="line"/>
    </contour>
  </outline>
</glyph>
<glyph name="at" format="2">
  <advance width="1930.2"/>
  <unicode hex="0040"/>
  <outline>
    <contour>
      <point x="103.0" y="356.3" type="curve" smooth="yes"/>
      <point x="103.0" y="-199.9"/>
      <point x="451.0" y="-522.0"/>
      <point x="844.9" y="-522.0" type="curve" smooth="yes"/>
      <point x="1009.6" y="-522.0"/>
      <point x="1186.8" y="-466.6"/>
      <point x="1283.3" y="-373.0" type="curve"/>
      <point x="1259.2" y="-313.9" type="line"/>
      <point x="1166.0" y="-382.2"/>
      <point x="1033.9" y="-418.5"/>
      <point x="911.2" y="-418.5" type="curve" smooth="yes"/>
      <point x="566.8" y="-418.5"/>
      <point x="271.0" y="-125.69999999999999"/>
      <point x="271.0" y="397.5" type="curve" smooth="yes"/>
      <point x="271.0" y="948.5"/>
      <point x="596.0" y="1420.5"/>
      <point x="1071.2" y="1420.5" type="curve" smooth="yes"/>
      <point x="1390.4" y="1420.5"/>
      <point x="1720.6" y="1203.3"/>
      <point x="1720.6" y="728.4" type="curve" smooth="yes"/>
      <point x="1720.6" y="363.9"/>
      <point x="1523.1" y="138.5"/>
      <point x="1383.4" y="138.5" type="curve" smooth="yes"/>
      <point x="1345.1" y="138.5"/>
      <point x="1327.8" y="181.5"/>
      <point x="1328.4" y="284.1" type="curve" smooth="yes"/>
      <point x="1329.3" y="514.4"/>
      <point x="1413.4" y="892.3"/>
      <point x="1440.5" y="990.3" type="curve"/>
      <point x="1323.1" y="1033.0"/>
      <point x="1275.0" y="1047.0"/>
      <point x="1252.3" y="1048.2" type="curve" smooth="yes"/>
      <point x="1227.4" y="1049.7"/>
      <point x="1205.7" y="1041.0"/>
      <point x="1192.4" y="1000.9" type="curve"/>
      <point x="1133.6" y="1034.4"/>
      <point x="1067.5" y="1051.0"/>
      <point x="1006.0" y="1051.0" type="curve" smooth="yes"/>
      <point x="720.9" y="1051.0"/>
      <point x="516.8" y="693.2"/>
      <point x="516.8" y="368.1" type="curve" smooth="yes"/>
      <point x="516.8" y="118.0"/>
      <point x="637.7" y="-22.7"/>
      <point x="776.0" y="-22.7" type="curve" smooth="yes"/>
      <point x="942.4" y="-22.7"/>
      <point x="1061.1" y="183.5"/>
      <point x="1124.6" y="424.0" type="curve"/>
      <point x="1104.4" y="297.2"/>
      <point x="1090.5" y="200.0"/>
      <point x="1092.5" y="146.7" type="curve" smooth="yes"/>
      <point x="1095.8" y="38.8"/>
      <point x="1149.2" y="-8.0"/>
      <point x="1243.5" y="-8.0" type="curve" smooth="yes"/>
      <point x="1480.7" y="-8.0"/>
      <point x="1858.2" y="290.3"/>
      <point x="1858.2" y="801.6" type="curve" smooth="yes"/>
      <point x="1858.2" y="1236.8"/>
      <point x="1581.6" y="1541.7"/>
      <point x="1147.1" y="1541.7" type="curve" smooth="yes"/>
      <point x="567.0" y="1541.7"/>
      <point x="103.0" y="996.4"/>
    </contour>
    <contour>
      <point x="789.3" y="457.3" type="curve" smooth="yes"/>
      <point x="779.5" y="712.2"/>
      <point x="886.6" y="960.8"/>
      <point x="1010.5" y="960.8" type="curve" smooth="yes"/>
      <point x="1059.7" y="960.8"/>
      <point x="1126.8" y="921.7"/>
      <point x="1153.9" y="880.1" type="curve"/>
      <point x="1155.6" y="834.4"/>
      <point x="1132.0" y="726.7"/>
      <point x="1100.6" y="577.5" type="curve" smooth="yes"/>
      <point x="1047.0" y="342.3"/>
      <point x="951.1" y="197.8"/>
      <point x="887.9" y="197.8" type="curve" smooth="yes"/>
      <point x="827.5" y="197.8"/>
      <point x="794.2" y="329.6"/>
    </contour>
  </outline>
</glyph>
<glyph name="A" format="2">
  <advance width="1117.1"/>
  <unicode hex="0041"/>
  <anchor x="580.2" y="0.0" name="bottom"/>
  <anchor x="1151.3" y="20.0" name="ogonek"/>
  <anchor x="560.7" y="1486.0" name="top"/>
  <outline>
    <contour>
      <point x="7.6000000000000085" y="99.4" type="line"/>
      <point x="-114.9" y="66.2" type="line"/>
      <point x="-114.30000000000001" y="0.0" type="line"/>
      <point x="288.6" y="0.0" type="line"/>
      <point x="288.6" y="66.2" type="line"/>
      <point x="134.3" y="98.2" type="line"/>
      <point x="211.10000000000002" y="386.4" type="line"/>
      <point x="631.6" y="386.4" type="line"/>
      <point x="704.3" y="96.30000000000001" type="line"/>
      <point x="580.5" y="66.2" type="line"/>
      <point x="580.5" y="0.0" type="line"/>
      <point x="1176.0" y="0.0" type="line"/>
      <point x="1176.0" y="66.2" type="line"/>
      <point x="1073.6" y="94.2" type="line"/>
      <point x="723.6" y="1495.1" type="line"/>
      <point x="400.1" y="1495.1" type="line"/>
    </contour>
    <contour>
      <point x="608.7" y="475.7" type="line"/>
      <point x="235.5" y="475.7" type="line"/>
      <point x="404.8" y="1158.5" type="line"/>
      <point x="435.5" y="1290.7" type="line"/>
      <point x="462.5" y="1158.8" type="line"/>
    </contour>
  </outline>
</glyph>
<glyph name="B" format="2">
  <advance width="1211.8"/>
  <unicode hex="0042"/>
  <anchor x="612.7" y="0.0" name="bottom"/>
  <anchor x="622.2" y="-166.0" name="mark0"/>
  <anchor x="612.7" y="1486.0" name="top"/>
  <outline>
    <contour>
      <point x="159.2" y="96.30000000000001" type="line"/>
      <point x="42.4" y="65.2" type="line"/>
      <point x="42.4" y="0.0" type="line"/>
      <point x="328.8" y="0.0" type="line" smooth="yes"/>
      <point x="434.0" y="0.0"/>
      <point x="483.4" y="-12.0"/>
      <point x="626.3" y="-12.0" type="curve" smooth="yes"/>
      <point x="1055.7" y="-12.0"/>
      <point x="1180.9" y="197.4"/>
      <point x="1180.9" y="449.3" type="curve" smooth="yes"/>
      <point x="1180.9" y="666.9"/>
      <point x="1034.3" y="794.7"/>
      <point x="805.9" y="794.0" type="curve"/>
      <point x="964.6" y="820.7"/>
      <point x="1097.2" y="961.2"/>
      <point x="1097.2" y="1159.5" type="curve" smooth="yes"/>
      <point x="1097.2" y="1357.6"/>
      <point x="999.9" y="1500.0"/>
      <point x="607.7" y="1500.0" type="curve" smooth="yes"/>
      <point x="513.6" y="1500.0"/>
      <point x="429.6" y="1486.0"/>
      <point x="325.0" y="1486.0" type="curve" smooth="yes"/>
      <point x="44.0" y="1486.0" type="line"/>
      <point x="44.0" y="1419.1" type="line"/>
      <point x="159.2" y="1385.1" type="line"/>
    </contour>
    <contour>
      <point x="498.0" y="813.9" type="curve"/>
      <point x="498.0" y="1405.9" type="line"/>
      <point x="517.7" y="1409.9"/>
      <point x="559.0" y="1417.3"/>
      <point x="594.9" y="1417.3" type="curve" smooth="yes"/>
      <point x="720.4" y="1417.3"/>
      <point x="759.3" y="1316.7"/>
      <point x="759.3" y="1134.0" type="curve" smooth="yes"/>
      <point x="759.3" y="959.7"/>
      <point x="715.9" y="809.9"/>
      <point x="593.7" y="809.9" type="curve" smooth="yes"/>
      <point x="560.0" y="809.9"/>
      <point x="523.7" y="809.9"/>
    </contour>
    <contour>
      <point x="498.0" y="92.7" type="curve"/>
      <point x="498.0" y="721.3" type="line"/>
      <point x="521.6" y="723.3"/>
      <point x="561.4" y="726.0"/>
      <point x="605.3" y="726.0" type="curve" smooth="yes"/>
      <point x="739.9" y="726.0"/>
      <point x="808.3" y="636.0"/>
      <point x="808.3" y="423.0" type="curve" smooth="yes"/>
      <point x="808.3" y="214.7"/>
      <point x="749.5" y="75.30000000000001"/>
      <point x="609.4" y="75.30000000000001" type="curve" smooth="yes"/>
      <point x="568.2" y="75.30000000000001"/>
      <point x="518.7" y="80.0"/>
    </contour>
  </outline>
</glyph>
<glyph name="G" format="2">
  <advance width="1257.5"/>
  <unicode hex="0047"/>
  <anchor x="742.7" y="0.0" name="bottom"/>
  <anchor x="752.7" y="-166.0" name="mark0"/>
  <anchor x="802.7" y="1486.0" name="top"/>
  <outline>
    <contour>
      <point x="643.7" y="-22.0" type="curve" smooth="yes"/>
      <point x="933.4" y="-22.0"/>
      <point x="1016.3" y="78.8"/>
      <point x="1163.5" y="80.0" type="curve"/>
      <point x="1163.5" y="616.5" type="line"/>
      <point x="1242.0" y="635.6" type="line"/>
      <point x="1242.0" y="715.9" type="line"/>
      <point x="717.6" y="715.9" type="line"/>
      <point x="717.6" y="635.6" type="line"/>
      <point x="858.3" y="615.0" type="line"/>
      <point x="858.3" y="184.0" type="line"/>
      <point x="831.9" y="105.10000000000001"/>
      <point x="751.1" y="60.3"/>
      <point x="670.3" y="60.3" type="curve" smooth="yes"/>
      <point x="466.3" y="60.3"/>
      <point x="411.29999999999995" y="385.0"/>
      <point x="412.7" y="758.0" type="curve" smooth="yes"/>
      <point x="414.79999999999995" y="1219.2"/>
      <point x="492.4" y="1427.7"/>
      <point x="667.1" y="1427.7" type="curve" smooth="yes"/>
      <point x="810.2" y="1427.7"/>
      <point x="834.0" y="1372.2"/>
      <point x="845.1" y="1320.7" type="curve"/>
      <point x="896.5" y="1021.0" type="line"/>
      <point x="1119.1" y="1021.0" type="line"/>
      <point x="1161.1" y="1442.3" type="line"/>
      <point x="1017.6" y="1442.3"/>
      <point x="912.9" y="1509.9"/>
      <point x="683.9" y="1509.9" type="curve" smooth="yes"/>
      <point x="274.3" y="1509.9"/>
      <point x="35.8" y="1218.7"/>
      <point x="35.8" y="732.8" type="curve" smooth="yes"/>
      <point x="35.8" y="293.8"/>
      <point x="226.9" y="-22.0"/>
    </contour>
  </outline>
</glyph>
<glyph name="H" format="2">
  <advance width="1373.2"/>
  <unicode hex="0048"/>
  <anchor x="704.2" y="0.0" name="bottom"/>
  <anchor x="687.1" y="743.0" name="center"/>
  <anchor x="694.7" y="1486.0" name="top"/>
  <anchor x="13.3" y="1486.0" name="topleft"/>
  <outline>
    <contour>
      <point x="156.9" y="98.8" type="line"/>
      <point x="42.4" y="65.20000000000002" type="line"/>
      <point x="42.4" y="0.0" type="line"/>
      <point x="628.5" y="0.0" type="line"/>
      <point x="628.5" y="65.20000000000002" type="line"/>
      <point x="500.3" y="98.8" type="line"/>
      <point x="500.3" y="715.7" type="line"/>
      <point x="872.9" y="715.7" type="line"/>
      <point x="872.9" y="99.1" type="line"/>
      <point x="749.4" y="65.20000000000002" type="line"/>
      <point x="749.4" y="0.0" type="line"/>
      <point x="1330.8" y="0.0" type="line"/>
      <point x="1330.8" y="65.20000000000002" type="line"/>
      <point x="1216.3" y="98.8" type="line"/>
      <point x="1216.3" y="1385.0" type="line"/>
      <point x="1330.1" y="1419.4" type="line"/>
      <point x="1330.1" y="1486.0" type="line"/>
      <point x="749.4" y="1486.0" type="line"/>
      <point x="749.4" y="1419.4" type="line"/>
      <point x="872.9" y="1384.7" type="line"/>
      <point x="872.9" y="812.0" type="line"/>
      <point x="500.3" y="812.0" type="line"/>
      <point x="500.3" y="1385.0" type="line"/>
      <point x="627.5" y="1419.4" type="line"/>
      <point x="627.5" y="1486.0" type="line"/>
      <point x="43.400000000000006" y="1486.0" type="line"/>
      <point x="43.400000000000006" y="1419.4" type="line"/>
      <point x="156.9" y="1385.0" type="line"/>
    </contour>
  </outline>
</glyph>
<glyph name="J" format="2">
  <advance width="691.1"/>
  <unicode hex="004A"/>
  <anchor x="210.20000000000002" y="-166.0" name="mark0"/>
  <anchor x="298.2" y="1486.0" name="top"/>
  <outline>
    <contour>
      <point x="-112.3" y="-312.3" type="curve"/>
      <point x="-66.79999999999998" y="-387.0" type="line"/>
      <point x="212.4" y="-352.5"/>
      <point x="407.1" y="-191.7"/>
      <point x="469.6" y="29.0" type="curve" smooth="yes"/>
      <point x="495.7" y="122.0"/>
      <point x="498.6" y="298.0"/>
      <point x="498.6" y="550.0" type="curve" smooth="yes"/>
      <point x="498.6" y="1384.4" type="line"/>
      <point x="653.7" y="1419.1" type="line"/>
      <point x="653.7" y="1486.0" type="line"/>
      <point x="-14.5" y="1486.0" type="line"/>
      <point x="-14.5" y="1419.1" type="line"/>
      <point x="129.9" y="1383.8" type="line"/>
      <point x="129.9" y="337.2" type="line" smooth="yes"/>
      <point x="129.9" y="126.2"/>
      <point x="114.89999999999998" y="7.1000000000000085"/>
      <point x="87.90000000000003" y="-72.9" type="curve" smooth="yes"/>
      <point x="39.900000000000034" y="-215.9"/>
      <point x="-15.099999999999994" y="-271.9"/>
    </contour>
  </outline>
</glyph>
<glyph name="K" format="2">
  <advance width="1356.0"/>
  <unicode hex="004B"/>
  <anchor x="840.1" y="0.0" name="bottom"/>
  <anchor x="789.1" y="-159.0" name="mark0"/>
  <anchor x="821.1" y="1483.0" name="top"/>
  <outline>
    <contour>
      <point x="953.3" y="0.0" type="curve"/>
      <point x="1365.7" y="0.7" type="line"/>
      <point x="1365.7" y="66.60000000000001" type="line"/>
      <point x="1300.8" y="92.10000000000001" type="line"/>
      <point x="1197.2" y="190.8"/>
      <point x="933.1" y="914.2"/>
      <point x="819.5" y="982.7" type="curve"/>
      <point x="737.9" y="835.7" type="line"/>
      <point x="1144.7" y="1382.3" type="line"/>
      <point x="1302.5" y="1417.3" type="line"/>
      <point x="1302.5" y="1486.7" type="line"/>
      <point x="854.7" y="1486.0" type="line"/>
      <point x="854.7" y="1418.4" type="line"/>
      <point x="1011.4" y="1384.1" type="line"/>
      <point x="434.2" y="541.6" type="line"/>
      <point x="514.6" y="598.5" type="line"/>
      <point x="514.6" y="1384.1" type="line"/>
      <point x="644.1" y="1419.1" type="line"/>
      <point x="644.1" y="1486.0" type="line"/>
      <point x="43.400000000000006" y="1486.0" type="line"/>
      <point x="43.400000000000006" y="1419.1" type="line"/>
      <point x="168.4" y="1384.1" type="line"/>
      <point x="168.4" y="95.9" type="line"/>
      <point x="42.4" y="66.20000000000002" type="line"/>
      <point x="42.4" y="0.0" type="line"/>
      <point x="649.5" y="0.0" type="line"/>
      <point x="649.5" y="65.9" type="line"/>
      <point x="514.6" y="95.60000000000001" type="line"/>
      <point x="514.6" y="588.8" type="line"/>
      <point x="431.3" y="408.1" type="line"/>
      <point x="708.9" y="793.7" type="line"/>
      <point x="604.1" y="702.7" type="line"/>
      <point x="689.6" y="634.5"/>
      <point x="874.7" y="0.0"/>
    </contour>
  </outline>
</glyph>
<glyph name="L" format="2">
  <advance width="1125.6"/>
  <unicode hex="004C"/>
  <anchor x="669.3" y="0.0" name="bottom"/>
  <anchor x="640.3" y="744.0" name="center"/>
  <anchor x="687.3" y="-166.0" name="mark0"/>
  <anchor x="407.3" y="1486.0" name="top"/>
  <anchor x="988.3" y="1111.0" name="topright"/>
  <outline>
    <contour>
      <point x="173.3" y="100.5" type="line"/>
      <point x="49.3" y="66.2" type="line"/>
      <point x="49.3" y="0.0" type="line"/>
      <point x="1065.5" y="0.0" type="line"/>
      <point x="1137.5" y="439.5" type="line"/>
      <point x="971.9" y="471.9" type="line"/>
      <point x="833.9" y="131.2" type="line"/>
      <point x="521.2" y="93.0" type="line"/>
      <point x="521.2" y="1380.6" type="line"/>
      <point x="698.6" y="1419.1" type="line"/>
      <point x="698.6" y="1486.0" type="line"/>
      <point x="50.60000000000001" y="1486.0" type="line"/>
      <point x="50.60000000000001" y="1419.1" type="line"/>
      <point x="173.3" y="1380.6" type="line"/>
    </contour>
  </outline>
</glyph>
<glyph name="M" format="2">
  <advance width="1703.4"/>
  <unicode hex="004D"/>
  <anchor x="967.1" y="0.0" name="bottom"/>
  <anchor x="843.1" y="-166.0" name="mark0"/>
  <anchor x="967.1" y="1486.0" name="top"/>
  <outline>
    <contour>
      <point x="133.4" y="95.60000000000001" type="line"/>
      <point x="-4.199999999999999" y="64.80000000000001" type="line"/>
      <point x="-4.199999999999999" y="0.0" type="line"/>
      <point x="408.8" y="0.0" type="line"/>
      <point x="408.8" y="64.80000000000001" type="line"/>
      <point x="250.0" y="95.9" type="line"/>
      <point x="312.8" y="1037.0" type="line"/>
      <point x="343.0" y="1363.0" type="line"/>
      <point x="413.4" y="1039.2" type="line"/>
      <point x="627.3" y="57.0" type="line"/>
      <point x="904.8" y="57.0" type="line"/>
      <point x="1090.4" y="1046.6" type="line"/>
      <point x="1144.3" y="1362.7" type="line"/>
      <point x="1172.1" y="1035.6" type="line"/>
      <point x="1239.7" y="96.60000000000001" type="line"/>
      <point x="1103.2" y="66.2" type="line"/>
      <point x="1103.2" y="0.0" type="line"/>
      <point x="1707.6" y="0.0" type="line"/>
      <point x="1707.6" y="64.80000000000001" type="line"/>
      <point x="1577.7" y="96.9" type="line"/>
      <point x="1460.2" y="1384.8" type="line"/>
      <point x="1618.2" y="1419.8" type="line"/>
      <point x="1618.2" y="1486.0" type="line"/>
      <point x="1065.4" y="1486.0" type="line"/>
      <point x="908.5" y="564.7" type="line"/>
      <point x="870.3" y="331.8" type="line"/>
      <point x="831.8" y="561.9" type="line"/>
      <point x="654.6" y="1486.0" type="line"/>
      <point x="104.0" y="1486.0" type="line"/>
      <point x="104.0" y="1419.8" type="line"/>
      <point x="258.7" y="1384.8" type="line"/>
    </contour>
  </outline>
</glyph>
<glyph name="N" format="2">
  <advance width="1229.4"/>
  <unicode hex="004E"/>
  <anchor x="651.8" y="0.0" name="bottom"/>
  <anchor x="705.0" y="-166.0" name="mark0"/>
  <anchor x="684.4" y="1486.0" name="top"/>
  <outline>
    <contour>
      <point x="150.5" y="135.9" type="line"/>
      <point x="16.400000000000006" y="69.4" type="line"/>
      <point x="16.400000000000006" y="0.0" type="line"/>
      <point x="405.8" y="0.0" type="line"/>
      <point x="405.8" y="69.4" type="line"/>
      <point x="255.9" y="136.2" type="line"/>
      <point x="257.3" y="1150.3" type="line"/>
      <point x="349.4" y="958.8" type="line"/>
      <point x="836.3" y="0.0" type="line"/>
      <point x="1092.6" y="0.0" type="line"/>
      <point x="1092.6" y="1345.8" type="line"/>
      <point x="1230.9" y="1414.5" type="line"/>
      <point x="1230.9" y="1486.0" type="line"/>
      <point x="842.2" y="1486.0" type="line"/>
      <point x="842.2" y="1414.5" type="line"/>
      <point x="986.9" y="1345.8" type="line"/>
      <point x="987.6" y="432.5" type="line"/>
      <point x="888.5" y="663.0" type="line"/>
      <point x="473.6" y="1486.0" type="line"/>
      <point x="4.099999999999994" y="1486.0" type="line"/>
      <point x="4.099999999999994" y="1416.6" type="line"/>
      <point x="55.099999999999994" y="1413.5"/>
      <point x="138.7" y="1324.3"/>
      <point x="151.9" y="1261.1" type="curve"/>
    </contour>
  </outline>
</glyph>
<glyph name="P" format="2">
  <advance width="1187.2"/>
  <unicode hex="0050"/>
  <anchor x="507.59999999999997" y="0.0" name="bottom"/>
  <anchor x="679.5999999999999" y="-166.0" name="mark0"/>
  <anchor x="753.6" y="1486.0" name="top"/>
  <outline>
    <contour>
      <point x="167.10000000000002" y="97.0" type="line"/>
      <point x="42.400000000000006" y="65.5" type="line"/>
      <point x="42.400000000000006" y="0.0" type="line"/>
      <point x="708.7" y="0.0" type="line"/>
      <point x="708.7" y="66.2" type="line"/>
      <point x="509.4" y="96.30000000000001" type="line"/>
      <point x="510.1" y="516.6" type="line"/>
      <point x="525.7" y="514.6"/>
      <point x="581.8" y="509.9"/>
      <point x="633.9" y="509.9" type="curve" smooth="yes"/>
      <point x="966.6" y="509.9"/>
      <point x="1154.2" y="697.6"/>
      <point x="1154.2" y="1036.6" type="curve" smooth="yes"/>
      <point x="1154.2" y="1321.6"/>
      <point x="1041.9" y="1499.1"/>
      <point x="680.0" y="1497.0" type="curve" smooth="yes"/>
      <point x="540.0" y="1496.3"/>
      <point x="460.9" y="1486.0"/>
      <point x="366.4" y="1486.0" type="curve" smooth="yes"/>
      <point x="44.9" y="1486.0" type="line"/>
      <point x="44.9" y="1419.1" type="line"/>
      <point x="167.10000000000002" y="1384.1" type="line"/>
    </contour>
    <contour>
      <point x="509.1" y="606.3" type="curve"/>
      <point x="509.1" y="1406.6" type="line"/>
      <point x="537.3" y="1411.6"/>
      <point x="567.4" y="1418.6"/>
      <point x="609.5" y="1418.6" type="curve" smooth="yes"/>
      <point x="756.3" y="1418.6"/>
      <point x="815.5" y="1246.1"/>
      <point x="815.5" y="1029.6" type="curve" smooth="yes"/>
      <point x="815.5" y="735.9"/>
      <point x="719.0" y="597.3"/>
      <point x="605.6" y="597.3" type="curve" smooth="yes"/>
      <point x="569.2" y="597.3"/>
      <point x="530.0" y="600.3"/>
    </contour>
  </outline>
</glyph>
<glyph name="Q" format="2">
  <advance width="1241.0"/>
  <unicode hex="0051"/>
  <anchor x="630.2" y="3.552713678800501e-15" name="bottom"/>
  <anchor x="629.6" y="714.0" name="center"/>
  <anchor x="711.2" y="20.0" name="ogonek"/>
  <anchor x="627.6" y="1486.0" name="top"/>
  <anchor x="41.0" y="1486.0" name="topleft"/>
  <anchor x="1004.4" y="1486.0" name="topright"/>
  <outline>
    <contour>
      <point x="1139.6" y="-392.4" type="curve" smooth="yes"/>
      <point x="1204.2" y="-392.4"/>
      <point x="1286.8" y="-359.4"/>
      <point x="1335.6" y="-269.9" type="curve"/>
      <point x="1307.0" y="-176.2" type="line"/>
      <point x="1268.4" y="-187.1"/>
      <point x="1193.8" y="-181.6"/>
      <point x="1095.6" y="-137.5" type="curve"/>
      <point x="982.7" y="-113.0"/>
      <point x="835.0" y="2.3999999999999986"/>
      <point x="645.3" y="17.6" type="curve"/>
      <point x="567.7" y="-0.7000000000000002" type="line"/>
      <point x="780.0" y="-56.2"/>
      <point x="839.7" y="-392.4"/>
    </contour>
    <component base="O"/>
  </outline>
</glyph>
<glyph name="S" format="2">
  <advance width="1064.5"/>
  <unicode hex="0053"/>
  <anchor x="532.8" y="0.0" name="bottom"/>
  <anchor x="550.8" y="1486.0" name="top"/>
  <outline>
    <contour>
      <point x="507.8" y="-21.3" type="curve" smooth="yes"/>
      <point x="950.3" y="-21.3"/>
      <point x="1032.4" y="222.2"/>
      <point x="1032.4" y="418.2" type="curve" smooth="yes"/>
      <point x="1032.4" y="662.2"/>
      <point x="837.4" y="786.7"/>
      <point x="691.8" y="866.2" type="curve" smooth="yes"/>
      <point x="515.8" y="962.1"/>
      <point x="358.3" y="1050.2"/>
      <point x="358.3" y="1216.5" type="curve" smooth="yes"/>
      <point x="358.3" y="1374.5"/>
      <point x="447.6" y="1429.8"/>
      <point x="567.5" y="1429.8" type="curve" smooth="yes"/>
      <point x="660.3" y="1429.8"/>
      <point x="707.9" y="1393.7"/>
      <point x="722.9" y="1366.4" type="curve"/>
      <point x="775.1" y="1078.0" type="line"/>
      <point x="943.1" y="1078.0" type="line"/>
      <point x="963.9" y="1437.5" type="line"/>
      <point x="875.2" y="1439.0"/>
      <point x="761.9" y="1508.5"/>
      <point x="548.9" y="1508.5" type="curve" smooth="yes"/>
      <point x="208.8" y="1508.5"/>
      <point x="61.800000000000004" y="1307.9"/>
      <point x="61.800000000000004" y="1093.9" type="curve" smooth="yes"/>
      <point x="61.800000000000004" y="816.9"/>
      <point x="259.2" y="693.3"/>
      <point x="400.2" y="620.2" type="curve" smooth="yes"/>
      <point x="589.2" y="522.4"/>
      <point x="731.2" y="419.6"/>
      <point x="731.2" y="285.7" type="curve" smooth="yes"/>
      <point x="731.2" y="161.3"/>
      <point x="666.1" y="61.7"/>
      <point x="503.0" y="61.7" type="curve" smooth="yes"/>
      <point x="406.9" y="61.7"/>
      <point x="336.7" y="108.2"/>
      <point x="311.7" y="148.6" type="curve"/>
      <point x="260.8" y="439.0" type="line"/>
      <point x="80.4" y="439.0" type="line"/>
      <point x="57.400000000000006" y="66.0" type="line"/>
      <point x="173.0" y="64.5"/>
      <point x="273.1" y="-21.3"/>
    </contour>
  </outline>
</glyph>
<glyph name="T" format="2">
  <advance width="1263.6"/>
  <unicode hex="0054"/>
  <anchor x="677.5" y="0.0" name="bottom"/>
  <anchor x="677.5" y="744.0" name="center"/>
  <anchor x="677.5" y="1486.0" name="top"/>
  <outline>
    <contour>
      <point x="462.8" y="104.3" type="line"/>
      <point x="237.0" y="66.2" type="line"/>
      <point x="237.0" y="0.0" type="line"/>
      <point x="1027.8" y="0.0" type="line"/>
      <point x="1027.8" y="66.2" type="line"/>
      <point x="802.0" y="104.3" type="line"/>
      <point x="802.0" y="1405.2" type="line"/>
      <point x="947.8" y="1389.6" type="line"/>
      <point x="1075.0" y="909.3" type="line"/>
      <point x="1241.8" y="909.3" type="line"/>
      <point x="1209.8" y="1486.0" type="line"/>
      <point x="58.00000000000001" y="1486.0" type="line"/>
      <point x="21.800000000000004" y="909.3" type="line"/>
      <point x="187.2" y="909.3" type="line"/>
      <point x="321.3" y="1389.6" type="line"/>
      <point x="462.8" y="1405.2" type="line"/>
    </contour>
  </outline>
</glyph>
<glyph name="U" format="2">
  <advance width="1361.6"/>
  <unicode hex="0055"/>
  <anchor x="752.0" y="0.0" name="bottom"/>
  <anchor x="752.0" y="-166.0" name="mark0"/>
  <anchor x="1340.0" y="20.0" name="ogonek"/>
  <anchor x="778.0" y="1486.0" name="top"/>
  <anchor x="1449.0" y="1486.0" name="topright"/>
  <outline>
    <contour>
      <point x="745.3" y="-16.0" type="curve" smooth="yes"/>
      <point x="988.2" y="-16.0"/>
      <point x="1215.6" y="133.2"/>
      <point x="1215.6" y="565.1" type="curve" smooth="yes"/>
      <point x="1215.6" y="1384.1" type="line"/>
      <point x="1346.6" y="1419.1" type="line"/>
      <point x="1346.6" y="1486.0" type="line"/>
      <point x="947.4" y="1486.0" type="line"/>
      <point x="947.4" y="1419.1" type="line"/>
      <point x="1101.8" y="1383.8" type="line"/>
      <point x="1101.8" y="559.4" type="line" smooth="yes"/>
      <point x="1101.8" y="221.9"/>
      <point x="945.4" y="61.400000000000006"/>
      <point x="795.3" y="61.400000000000006" type="curve" smooth="yes"/>
      <point x="608.7" y="61.400000000000006"/>
      <point x="527.1" y="186.7"/>
      <point x="527.1" y="443.3" type="curve" smooth="yes"/>
      <point x="527.1" y="1383.2" type="line"/>
      <point x="678.0" y="1419.1" type="line"/>
      <point x="678.0" y="1486.0" type="line"/>
      <point x="23.6" y="1486.0" type="line"/>
      <point x="23.6" y="1419.1" type="line"/>
      <point x="154.2" y="1384.1" type="line"/>
      <point x="154.2" y="539.2" type="line" smooth="yes"/>
      <point x="154.2" y="146.2"/>
      <point x="367.4" y="-16.0"/>
    </contour>
  </outline>
</glyph>
<glyph name="W" format="2">
  <advance width="1762.4"/>
  <unicode hex="0057"/>
  <anchor x="960.4" y="0.0" name="bottom"/>
  <anchor x="855.4" y="-166.0" name="mark0"/>
  <anchor x="1004.4" y="1486.0" name="top"/>
  <outline>
    <contour>
      <point x="-35.3" y="1420.5" type="line"/>
      <point x="67.0" y="1387.3" type="line"/>
      <point x="411.8" y="-3.0" type="line"/>
      <point x="672.8" y="-3.0" type="line"/>
      <point x="898.0" y="867.0" type="line"/>
      <point x="1098.2" y="-3.0" type="line"/>
      <point x="1374.4" y="-3.0" type="line"/>
      <point x="1689.9" y="1388.3" type="line"/>
      <point x="1797.4" y="1420.5" type="line"/>
      <point x="1797.4" y="1486.0" type="line"/>
      <point x="1437.0" y="1486.0" type="line"/>
      <point x="1437.0" y="1420.5" type="line"/>
      <point x="1576.2" y="1388.3" type="line"/>
      <point x="1380.1" y="439.79999999999995" type="line"/>
      <point x="1349.9" y="245.20000000000002" type="line"/>
      <point x="1317.1" y="439.79999999999995" type="line"/>
      <point x="1113.8" y="1388.3" type="line"/>
      <point x="1240.1" y="1420.5" type="line"/>
      <point x="1240.1" y="1486.0" type="line"/>
      <point x="672.5" y="1486.0" type="line"/>
      <point x="672.5" y="1420.5" type="line"/>
      <point x="766.7" y="1388.3" type="line"/>
      <point x="845.4" y="1043.0" type="line"/>
      <point x="690.7" y="439.79999999999995" type="line"/>
      <point x="654.2" y="250.29999999999998" type="line"/>
      <point x="626.0" y="439.8" type="line"/>
      <point x="416.4" y="1388.3" type="line"/>
      <point x="531.6" y="1420.5" type="line"/>
      <point x="531.6" y="1486.0" type="line"/>
      <point x="-35.3" y="1486.0" type="line"/>
    </contour>
  </outline>
</glyph>
<glyph name="X" format="2">
  <advance width="1284.2"/>
  <unicode hex="0058"/>
  <anchor x="619.2" y="-166.0" name="mark0"/>
  <outline>
    <contour>
      <point x="187.1" y="95.6" type="line"/>
      <point x="11.0" y="66.2" type="line"/>
      <point x="11.0" y="0.0" type="line"/>
      <point x="475.4" y="0.0" type="line"/>
      <point x="475.4" y="66.2" type="line"/>
      <point x="307.7" y="95.60000000000001" type="line"/>
      <point x="533.2" y="591.8" type="line"/>
      <point x="763.2" y="96.6" type="line"/>
      <point x="633.2" y="66.2" type="line"/>
      <point x="633.2" y="0.0" type="line"/>
      <point x="1278.0" y="0.0" type="line"/>
      <point x="1278.0" y="66.2" type="line"/>
      <point x="1166.0" y="96.60000000000001" type="line"/>
      <point x="798.9" y="827.8" type="line"/>
      <point x="1104.2" y="1383.8" type="line"/>
      <point x="1260.3" y="1419.1" type="line"/>
      <point x="1260.3" y="1486.0" type="line"/>
      <point x="816.8" y="1486.0" type="line"/>
      <point x="816.8" y="1419.1" type="line"/>
      <point x="987.5" y="1384.8" type="line"/>
      <point x="754.6" y="904.7" type="line"/>
      <point x="536.9" y="1382.8" type="line"/>
      <point x="662.2" y="1419.1" type="line"/>
      <point x="662.2" y="1486.0" type="line"/>
      <point x="24.699999999999996" y="1486.0" type="line"/>
      <point x="24.699999999999996" y="1419.1" type="line"/>
      <point x="135.2" y="1383.8" type="line"/>
      <point x="487.7" y="673.0" type="line"/>
    </contour>
  </outline>
</glyph>
<glyph name="Z" format="2">
  <advance width="1224.6"/>
  <unicode hex="005A"/>
  <anchor x="655.0" y="0.0" name="bottom"/>
  <anchor x="675.0" y="-166.0" name="mark0"/>
  <anchor x="678.0" y="1486.0" name="top"/>
  <outline>
    <contour>
      <point x="703.8" y="1262.4" type="line"/>
      <point x="28.299999999999997" y="55.10000000000001" type="line"/>
      <point x="59.2" y="0.0" type="line"/>
      <point x="1149.0" y="0.0" type="line"/>
      <point x="1191.2" y="451.1" type="line"/>
      <point x="1023.1" y="481.2" type="line"/>
      <point x="895.9" y="124.60000000000001" type="line"/>
      <point x="400.2" y="79.4" type="line"/>
      <point x="516.6" y="230.3" type="line"/>
      <point x="1185.0" y="1430.8" type="line"/>
      <point x="1156.7" y="1487.5" type="line"/>
      <point x="131.1" y="1487.5" type="line"/>
      <point x="104.5" y="1084.0" type="line"/>
      <point x="275.8" y="1059.0" type="line"/>
      <point x="381.2" y="1381.6" type="line"/>
      <point x="821.6" y="1410.6" type="line"/>
    </contour>
  </outline>
</glyph>
<glyph name="bracketleft" format="2">
  <advance width="782.4"/>
  <unicode hex="005B"/>
  <outline>
    <contour>
      <point x="152.60000000000002" y="1389.9" type="curve"/>
      <point x="152.60000000000002" y="-55.9" type="line" smooth="yes"/>
      <point x="152.60000000000002" y="-240.9"/>
      <point x="237.1" y="-274.0"/>
      <point x="378.8" y="-274.0" type="curve" smooth="yes"/>
      <point x="475.7" y="-274.0"/>
      <point x="563.9" y="-255.0"/>
      <point x="637.5" y="-234.0" type="curve"/>
      <point x="637.5" y="-174.2" type="line"/>
      <point x="444.6" y="-174.2" type="line"/>
      <point x="444.6" y="1510.2" type="line"/>
      <point x="637.5" y="1510.2" type="line"/>
      <point x="637.5" y="1568.0" type="line"/>
      <point x="563.5" y="1587.0"/>
      <point x="476.7" y="1608.0"/>
      <point x="378.8" y="1608.0" type="curve" smooth="yes"/>
      <point x="237.1" y="1608.0"/>
      <point x="152.60000000000002" y="1574.9"/>
    </contour>
  </outline>
</glyph>
<glyph name="backslash" format="2">
  <advance width="651.3"/>
  <unicode hex="005C"/>
  <outline>
    <contour>
      <point x="248.10000000000002" y="987.1999999999998" type="line"/>
      <point x="403.1" y="220.80000000000018" type="line"/>
      <point x="403.0" y="220.80000000000018" type="line"/>
      <point x="246.0" y="987.1999999999998" type="line"/>
    </contour>
  </outline>
</glyph>
<glyph name="asciicircum" format="2">
  <advance width="1085.2"/>
  <unicode hex="005E"/>
  <outline>
    <contour>
      <point x="594.9" y="1496.0" type="line"/>
      <point x="473.4" y="1496.0" type="line"/>
      <point x="133.8" y="267.0" type="line"/>
      <point x="261.5" y="267.0" type="line"/>
      <point x="536.7" y="1293.3" type="line"/>
      <point x="813.3" y="267.0" type="line"/>
      <point x="951.7" y="267.0" type="line"/>
    </contour>
  </outline>
</glyph>
<glyph name="a" format="2">
  <advance width="887.2"/>
  <unicode hex="0061"/>
  <anchor x="410.7" y="-98.10000000000002" name="bottom"/>
  <anchor x="738.0" y="20.0" name="ogonek"/>
  <anchor x="470.4" y="1110.3" name="top"/>
  <outline>
    <contour>
      <point x="4.5" y="283.1" type="curve" smooth="yes"/>
      <point x="4.5" y="76.0"/>
      <point x="131.2" y="-22.7"/>
      <point x="278.3" y="-22.7" type="curve" smooth="yes"/>
      <point x="396.6" y="-22.7"/>
      <point x="480.2" y="43.3"/>
      <point x="515.6" y="126.2" type="curve"/>
      <point x="515.6" y="83.9" type="line" smooth="yes"/>
      <point x="515.6" y="11.600000000000001"/>
      <point x="548.5" y="-20.5"/>
      <point x="652.1" y="-20.5" type="curve" smooth="yes"/>
      <point x="739.5" y="-20.5"/>
      <point x="841.2" y="0.9000000000000004"/>
      <point x="878.7" y="10.2" type="curve"/>
      <point x="878.7" y="82.7" type="line"/>
      <point x="817.4" y="82.7" type="line"/>
      <point x="817.4" y="700.7" type="line" smooth="yes"/>
      <point x="817.4" y="944.1"/>
      <point x="720.5" y="1065.9"/>
      <point x="483.7" y="1065.9" type="curve" smooth="yes"/>
      <point x="270.1" y="1065.9"/>
      <point x="98.2" y="973.5"/>
      <point x="51.1" y="936.1" type="curve"/>
      <point x="91.4" y="833.4" type="line"/>
      <point x="137.9" y="856.0"/>
      <point x="239.6" y="895.3"/>
      <point x="356.3" y="895.3" type="curve" smooth="yes"/>
      <point x="489.0" y="895.3"/>
      <point x="509.7" y="828.3"/>
      <point x="509.7" y="709.6" type="curve" smooth="yes"/>
      <point x="509.70000000000005" y="643.3" type="line"/>
      <point x="276.7" y="641.7"/>
      <point x="4.5" y="546.4"/>
    </contour>
    <contour>
      <point x="419.3" y="140.6" type="curve" smooth="yes"/>
      <point x="361.6" y="140.6"/>
      <point x="321.3" y="210.8"/>
      <point x="321.3" y="323.0" type="curve" smooth="yes"/>
      <point x="321.3" y="455.7"/>
      <point x="388.0" y="557.4"/>
      <point x="509.70000000000005" y="559.0" type="curve"/>
      <point x="509.70000000000005" y="189.3" type="line"/>
      <point x="496.5" y="161.3"/>
      <point x="462.7" y="140.6"/>
    </contour>
  </outline>
</glyph>
<glyph name="b" format="2">
  <advance width="1037.9"/>
  <unicode hex="0062"/>
  <anchor x="483.4" y="-3.0" name="bottom"/>
  <anchor x="439.1" y="-166.0" name="mark0"/>
  <anchor x="710.2" y="1111.0" name="top"/>
  <outline>
    <contour>
      <point x="-10.2" y="1479.4" type="line"/>
      <point x="100.6" y="1438.7" type="line"/>
      <point x="100.6" y="54.0" type="line"/>
      <point x="125.30000000000001" y="34.3"/>
      <point x="248.2" y="-23.7"/>
      <point x="503.3" y="-23.4" type="curve" smooth="yes"/>
      <point x="799.2" y="-23.1"/>
      <point x="992.3" y="204.0"/>
      <point x="992.3" y="580.2" type="curve" smooth="yes"/>
      <point x="992.3" y="897.6"/>
      <point x="865.4" y="1071.7"/>
      <point x="664.9" y="1071.7" type="curve" smooth="yes"/>
      <point x="549.5" y="1071.7"/>
      <point x="436.2" y="991.0"/>
      <point x="415.6" y="937.0" type="curve"/>
      <point x="415.6" y="1606.3" type="line"/>
      <point x="384.8" y="1635.5" type="line"/>
      <point x="346.8" y="1635.5" type="line"/>
      <point x="-10.2" y="1540.9" type="line"/>
    </contour>
    <contour>
      <point x="514.1" y="917.2" type="curve" smooth="yes"/>
      <point x="588.3" y="917.2"/>
      <point x="649.4" y="825.6"/>
      <point x="649.4" y="518.8" type="curve" smooth="yes"/>
      <point x="649.4" y="225.3"/>
      <point x="606.3" y="63.5"/>
      <point x="505.1" y="63.5" type="curve" smooth="yes"/>
      <point x="464.9" y="63.5"/>
      <point x="432.8" y="88.80000000000001"/>
      <point x="415.3" y="129.5" type="curve"/>
      <point x="415.6" y="837.8" type="line"/>
      <point x="427.9" y="864.0"/>
      <point x="457.6" y="917.2"/>
    </contour>
  </outline>
</glyph>
<glyph name="c" format="2">
  <advance width="824.8"/>
  <unicode hex="0063"/>
  <anchor x="509.5" y="0.0" name="bottom"/>
  <anchor x="520.3" y="-166.0" name="mark0"/>
  <anchor x="516.7" y="1111.0" name="top"/>
  <outline>
    <contour>
      <point x="35.400000000000006" y="512.3" type="curve" smooth="yes"/>
      <point x="35.4" y="201.8"/>
      <point x="173.3" y="-22.0"/>
      <point x="459.8" y="-22.0" type="curve" smooth="yes"/>
      <point x="616.3" y="-22.0"/>
      <point x="761.3" y="68.8"/>
      <point x="801.2" y="128.8" type="curve"/>
      <point x="765.2" y="203.5" type="line"/>
      <point x="717.9" y="163.4"/>
      <point x="658.3" y="128.9"/>
      <point x="580.4" y="128.9" type="curve" smooth="yes"/>
      <point x="451.0" y="128.9"/>
      <point x="370.6" y="246.9"/>
      <point x="370.9" y="560.8" type="curve" smooth="yes"/>
      <point x="371.2" y="875.6"/>
      <point x="421.2" y="980.2"/>
      <point x="497.7" y="980.2" type="curve" smooth="yes"/>
      <point x="531.8" y="980.2"/>
      <point x="564.8" y="943.6"/>
      <point x="572.8" y="883.9" type="curve" smooth="yes"/>
      <point x="602.3" y="688.9" type="line"/>
      <point x="779.6" y="688.9" type="line"/>
      <point x="791.2" y="1004.4" type="line"/>
      <point x="738.5" y="1014.1"/>
      <point x="675.3" y="1067.9"/>
      <point x="507.4" y="1067.9" type="curve" smooth="yes"/>
      <point x="246.1" y="1067.9"/>
      <point x="35.4" y="880.8"/>
    </contour>
  </outline>
</glyph>
<glyph name="d" format="2">
  <advance width="1037.4"/>
  <unicode hex="0064"/>
  <anchor x="537.7" y="0.0" name="bottom"/>
  <anchor x="515.0" y="576.0" name="center"/>
  <anchor x="305.0" y="1158.0" name="top"/>
  <anchor x="1068.9" y="1111.0" name="topright"/>
  <outline>
    <contour>
      <point x="374.9" y="-23.4" type="curve" smooth="yes"/>
      <point x="508.7" y="-23.4"/>
      <point x="611.7" y="60.0"/>
      <point x="636.4" y="128.2" type="curve"/>
      <point x="636.4" y="72.7" type="line" smooth="yes"/>
      <point x="636.4" y="-1.1999999999999993"/>
      <point x="682.5" y="-20.5"/>
      <point x="770.9" y="-20.5" type="curve" smooth="yes"/>
      <point x="857.1" y="-20.5"/>
      <point x="965.9" y="-0.40000000000000036"/>
      <point x="1009.4" y="10.2" type="curve"/>
      <point x="1009.4" y="83.30000000000001" type="line"/>
      <point x="937.6" y="83.30000000000001" type="line"/>
      <point x="937.6" y="1602.5" type="line"/>
      <point x="907.3" y="1635.5" type="line"/>
      <point x="867.8" y="1635.5" type="line"/>
      <point x="497.7" y="1543.3" type="line"/>
      <point x="497.7" y="1478.5" type="line"/>
      <point x="622.3" y="1436.9" type="line"/>
      <point x="622.3" y="1056.0" type="line"/>
      <point x="606.7" y="1063.3"/>
      <point x="585.0" y="1071.4"/>
      <point x="523.4" y="1071.4" type="curve" smooth="yes"/>
      <point x="239.4" y="1071.4"/>
      <point x="45.6" y="844.3"/>
      <point x="45.6" y="468.1" type="curve" smooth="yes"/>
      <point x="45.6" y="150.7"/>
      <point x="172.9" y="-23.4"/>
    </contour>
    <contour>
      <point x="524.2" y="131.1" type="curve" smooth="yes"/>
      <point x="450.3" y="131.1"/>
      <point x="388.9" y="223.3"/>
      <point x="389.5" y="530.1" type="curve" smooth="yes"/>
      <point x="390.1" y="823.0"/>
      <point x="431.6" y="984.8"/>
      <point x="533.5" y="984.8" type="curve" smooth="yes"/>
      <point x="573.7" y="984.8"/>
      <point x="605.8" y="959.5"/>
      <point x="623.0" y="919.4" type="curve"/>
      <point x="623.0" y="211.5" type="line"/>
      <point x="611.4" y="181.8"/>
      <point x="581.0" y="131.1"/>
    </contour>
  </outline>
</glyph>
<glyph name="e" format="2">
  <advance width="896.2"/>
  <unicode hex="0065"/>
  <anchor x="457.4" y="-16.099999999999998" name="bottom"/>
  <anchor x="455.8" y="-151.4" name="mark0"/>
  <anchor x="577.2" y="20.0" name="ogonek"/>
  <anchor x="490.8" y="1111.0" name="top"/>
  <outline>
    <contour>
      <point x="484.6" y="-23.4" type="curve" smooth="yes"/>
      <point x="646.5" y="-23.4"/>
      <point x="796.2" y="63.5"/>
      <point x="843.9" y="129.5" type="curve"/>
      <point x="812.3" y="206.8" type="line"/>
      <point x="763.7" y="163.9"/>
      <point x="674.6" y="128.7"/>
      <point x="609.4" y="128.7" type="curve" smooth="yes"/>
      <point x="469.0" y="128.7"/>
      <point x="381.4" y="235.5"/>
      <point x="371.7" y="510.1" type="curve"/>
      <point x="852.2" y="510.1" type="line"/>
      <point x="860.5" y="545.0"/>
      <point x="866.8" y="600.5"/>
      <point x="866.8" y="693.4" type="curve"/>
      <point x="863.5" y="929.9"/>
      <point x="729.1" y="1071.4"/>
      <point x="495.2" y="1071.4" type="curve" smooth="yes"/>
      <point x="222.2" y="1071.4"/>
      <point x="34.8" y="864.5"/>
      <point x="34.8" y="523.8" type="curve" smooth="yes"/>
      <point x="34.8" y="200.2"/>
      <point x="171.8" y="-23.4"/>
    </contour>
    <contour>
      <point x="369.4" y="588.9" type="line"/>
      <point x="370.3" y="907.1"/>
      <point x="413.6" y="991.5"/>
      <point x="477.8" y="991.5" type="curve" smooth="yes"/>
      <point x="539.9" y="991.5"/>
      <point x="562.2" y="891.9"/>
      <point x="562.2" y="711.1" type="curve" smooth="yes"/>
      <point x="562.2" y="685.2"/>
      <point x="561.2" y="623.9"/>
      <point x="561.2" y="596.6" type="curve"/>
    </contour>
  </outline>
</glyph>
<glyph name="f" format="2">
  <advance width="633.7"/>
  <unicode hex="0066"/>
  <anchor x="401.0" y="1574.0" name="top"/>
  <outline>
    <contour>
      <point x="158.6" y="95.4" type="line"/>
      <point x="50.4" y="65.9" type="line"/>
      <point x="50.4" y="0.0" type="line"/>
      <point x="597.9" y="0.0" type="line"/>
      <point x="597.9" y="65.9" type="line"/>
      <point x="465.3" y="95.10000000000001" type="line"/>
      <point x="466.0" y="918.4" type="line"/>
      <point x="620.4" y="918.4" type="line"/>
      <point x="620.4" y="1036.8" type="line"/>
      <point x="466.0" y="1036.8" type="line"/>
      <point x="465.3" y="1307.7" type="line" smooth="yes"/>
      <point x="465.3" y="1430.2"/>
      <point x="496.5" y="1471.7"/>
      <point x="571.2" y="1471.7" type="curve" smooth="yes"/>
      <point x="644.6" y="1471.7"/>
      <point x="698.9" y="1439.6"/>
      <point x="741.7" y="1410.4" type="curve"/>
      <point x="742.0" y="1643.0" type="line"/>
      <point x="727.6" y="1652.5"/>
      <point x="689.7" y="1658.9"/>
      <point x="647.2" y="1658.9" type="curve" smooth="yes"/>
      <point x="412.8" y="1658.9"/>
      <point x="158.6" y="1448.2"/>
      <point x="158.6" y="1129.6" type="curve" smooth="yes"/>
      <point x="158.6" y="1033.1" type="line"/>
      <point x="50.3" y="981.6" type="line"/>
      <point x="50.3" y="918.4" type="line"/>
      <point x="158.6" y="918.4" type="line"/>
    </contour>
  </outline>
</glyph>
<glyph name="g" format="2">
  <advance width="1048.6"/>
  <unicode hex="0067"/>
  <anchor x="520.8" y="0.0" name="bottom"/>
  <anchor x="524.8" y="1111.0" name="top"/>
  <outline>
    <contour>
      <point x="466.1" y="-498.0" type="curve"/>
      <point x="740.9" y="-498.0"/>
      <point x="1029.1" y="-339.2"/>
      <point x="1029.1" y="-78.5" type="curve" smooth="yes"/>
      <point x="1029.1" y="103.0"/>
      <point x="899.3" y="202.39999999999998"/>
      <point x="679.4" y="202.39999999999998" type="curve" smooth="yes"/>
      <point x="504.1" y="202.39999999999998" type="line" smooth="yes"/>
      <point x="355.1" y="202.39999999999998"/>
      <point x="302.2" y="228.8"/>
      <point x="302.2" y="293.0" type="curve" smooth="yes"/>
      <point x="302.2" y="322.0"/>
      <point x="310.1" y="341.1"/>
      <point x="330.0" y="362.2" type="curve"/>
      <point x="369.9" y="354.6"/>
      <point x="427.9" y="351.0"/>
      <point x="478.7" y="351.0" type="curve" smooth="yes"/>
      <point x="755.9" y="351.0"/>
      <point x="919.7" y="499.8"/>
      <point x="919.7" y="727.2" type="curve" smooth="yes"/>
      <point x="919.7" y="767.4"/>
      <point x="909.9" y="826.4"/>
      <point x="890.9" y="853.8" type="curve"/>
      <point x="1035.0" y="853.8" type="line"/>
      <point x="1035.0" y="1048.1" type="line"/>
      <point x="992.5" y="1048.1" type="line" smooth="yes"/>
      <point x="921.9" y="1048.1"/>
      <point x="866.8" y="1008.9"/>
      <point x="842.0" y="949.3" type="curve"/>
      <point x="781.1" y="1024.7"/>
      <point x="660.2" y="1061.6"/>
      <point x="508.2" y="1061.6" type="curve" smooth="yes"/>
      <point x="242.0" y="1061.6"/>
      <point x="59.800000000000004" y="936.6"/>
      <point x="59.800000000000004" y="706.9" type="curve" smooth="yes"/>
      <point x="59.800000000000004" y="540.3"/>
      <point x="128.8" y="433.5"/>
      <point x="271.1" y="380.5" type="curve"/>
      <point x="175.9" y="333.7"/>
      <point x="112.3" y="258.7"/>
      <point x="112.3" y="162.2" type="curve" smooth="yes"/>
      <point x="112.3" y="79.0"/>
      <point x="140.8" y="14.100000000000009"/>
      <point x="208.1" y="-33.3" type="curve"/>
      <point x="97.30000000000001" y="-59.599999999999994"/>
      <point x="16.999999999999993" y="-136.89999999999998"/>
      <point x="16.999999999999993" y="-240.8" type="curve" smooth="yes"/>
      <point x="16.999999999999993" y="-446.7"/>
      <point x="257.9" y="-498.0"/>
    </contour>
    <contour>
      <point x="497.3" y="-412.1" type="curve"/>
      <point x="369.9" y="-412.1"/>
      <point x="254.9" y="-340.6"/>
      <point x="254.9" y="-179.4" type="curve" smooth="yes"/>
      <point x="254.9" y="-118.4"/>
      <point x="267.1" y="-82.39999999999999"/>
      <point x="282.4" y="-58.3" type="curve"/>
      <point x="322.7" y="-76.69999999999999"/>
      <point x="417.8" y="-78.69999999999999"/>
      <point x="474.7" y="-78.69999999999999" type="curve"/>
      <point x="573.4" y="-78.69999999999999" type="line" smooth="yes"/>
      <point x="692.6" y="-78.69999999999999"/>
      <point x="750.9" y="-117.5"/>
      <point x="750.9" y="-209.3" type="curve" smooth="yes"/>
      <point x="750.9" y="-355.8"/>
      <point x="629.4000000000001" y="-412.1"/>
    </contour>
    <contour>
      <point x="488.6" y="430.0" type="curve" smooth="yes"/>
      <point x="407.8" y="430.0"/>
      <point x="374.7" y="541.6"/>
      <point x="374.7" y="716.6" type="curve" smooth="yes"/>
      <point x="374.7" y="910.9"/>
      <point x="416.9" y="983.7"/>
      <point x="496.0" y="983.7" type="curve"/>
      <point x="572.5" y="983.7"/>
      <point x="606.6" y="877.5"/>
      <point x="606.6" y="708.6" type="curve" smooth="yes"/>
      <point x="606.6" y="506.70000000000005"/>
      <point x="568.9" y="430.0"/>
    </contour>
  </outline>
</glyph>
<glyph name="l" format="2">
  <advance width="533.8"/>
  <unicode hex="006C"/>
  <anchor x="271.7" y="0.0" name="bottom"/>
  <anchor x="255.8" y="-166.0" name="mark0"/>
  <anchor x="252.0" y="1634.0" name="top"/>
  <anchor x="558.2" y="1111.0" name="topright"/>
  <outline>
    <contour>
      <point x="108.0" y="96.10000000000001" type="line"/>
      <point x="4.400000000000002" y="65.9" type="line"/>
      <point x="4.400000000000002" y="0.0" type="line"/>
      <point x="523.6" y="0.0" type="line"/>
      <point x="523.6" y="65.9" type="line"/>
      <point x="420.3" y="95.10000000000001" type="line"/>
      <point x="420.3" y="1605.4" type="line"/>
      <point x="390.2" y="1635.5" type="line"/>
      <point x="351.6" y="1635.5" type="line"/>
      <point x="-3.9000000000000057" y="1540.9" type="line"/>
      <point x="-3.9000000000000057" y="1477.9" type="line"/>
      <point x="108.0" y="1436.9" type="line"/>
    </contour>
  </outline>
</glyph>
<glyph name="m" format="2">
  <advance width="1617.6"/>
  <unicode hex="006D"/>
  <anchor x="857.2" y="0.0" name="bottom"/>
  <anchor x="857.2" y="1111.0" name="top"/>
  <outline>
    <contour>
      <point x="42.6" y="0.0" type="line"/>
      <point x="525.2" y="0.0" type="line"/>
      <point x="525.2" y="65.9" type="line"/>
      <point x="437.6" y="95.4" type="line"/>
      <point x="437.6" y="824.6" type="line"/>
      <point x="467.7" y="860.2"/>
      <point x="513.4" y="893.4"/>
      <point x="568.8" y="893.4" type="curve" smooth="yes"/>
      <point x="646.9" y="893.4"/>
      <point x="663.0" y="817.7"/>
      <point x="663.0" y="648.1" type="curve" smooth="yes"/>
      <point x="663.0" y="95.4" type="line"/>
      <point x="595.0" y="65.9" type="line"/>
      <point x="595.0" y="0.0" type="line"/>
      <point x="1061.9" y="0.0" type="line"/>
      <point x="1061.9" y="65.9" type="line"/>
      <point x="980.4" y="95.7" type="line"/>
      <point x="980.4" y="657.8" type="line" smooth="yes"/>
      <point x="980.4" y="741.4"/>
      <point x="975.6" y="793.0"/>
      <point x="971.0" y="825.5" type="curve"/>
      <point x="1009.3" y="854.0"/>
      <point x="1017.7" y="888.5"/>
      <point x="1090.5" y="888.5" type="curve" smooth="yes"/>
      <point x="1176.3" y="888.5"/>
      <point x="1202.8" y="820.9"/>
      <point x="1202.8" y="670.1" type="curve" smooth="yes"/>
      <point x="1202.8" y="95.0" type="line"/>
      <point x="1134.5" y="66.2" type="line"/>
      <point x="1134.5" y="0.0" type="line"/>
      <point x="1604.1" y="0.0" type="line"/>
      <point x="1604.1" y="66.2" type="line"/>
      <point x="1519.9" y="95.0" type="line"/>
      <point x="1519.9" y="657.4" type="line" smooth="yes"/>
      <point x="1519.9" y="941.5"/>
      <point x="1448.9" y="1067.8"/>
      <point x="1252.1" y="1067.8" type="curve" smooth="yes"/>
      <point x="1095.0" y="1067.8"/>
      <point x="1036.8" y="978.1"/>
      <point x="958.8" y="884.3" type="curve"/>
      <point x="924.6" y="991.5"/>
      <point x="873.4" y="1067.8"/>
      <point x="720.7" y="1067.8" type="curve" smooth="yes"/>
      <point x="588.4" y="1067.8"/>
      <point x="480.7" y="980.9"/>
      <point x="432.70000000000005" y="900.4" type="curve"/>
      <point x="433.7" y="1030.2" type="line"/>
      <point x="398.20000000000005" y="1065.9" type="line"/>
      <point x="342.6" y="1065.9" type="line"/>
      <point x="20.4" y="972.5" type="line"/>
      <point x="20.4" y="898.1" type="line"/>
      <point x="122.5" y="854.1" type="line"/>
      <point x="122.5" y="95.4" type="line"/>
      <point x="42.6" y="65.9" type="line"/>
    </contour>
  </outline>
</glyph>
<glyph name="n" format="2">
  <advance width="1078.1"/>
  <unicode hex="006E"/>
  <anchor x="549.9" y="0.0" name="bottom"/>
  <anchor x="538.7" y="-166.0" name="mark0"/>
  <anchor x="529.2" y="1111.0" name="top"/>
  <outline>
    <contour>
      <point x="119.7" y="94.7" type="line"/>
      <point x="39.8" y="65.9" type="line"/>
      <point x="39.8" y="0.0" type="line"/>
      <point x="522.4" y="0.0" type="line"/>
      <point x="522.4" y="65.9" type="line"/>
      <point x="434.8" y="95.4" type="line"/>
      <point x="434.8" y="822.9" type="line"/>
      <point x="462.8" y="853.2"/>
      <point x="510.6" y="893.4"/>
      <point x="564.3" y="893.4" type="curve" smooth="yes"/>
      <point x="643.8" y="893.4"/>
      <point x="660.5" y="816.1"/>
      <point x="660.5" y="648.1" type="curve" smooth="yes"/>
      <point x="660.5" y="95.4" type="line"/>
      <point x="592.2" y="65.9" type="line"/>
      <point x="592.2" y="0.0" type="line"/>
      <point x="1061.8" y="0.0" type="line"/>
      <point x="1061.8" y="66.2" type="line"/>
      <point x="977.6" y="95.4" type="line"/>
      <point x="977.6" y="677.1" type="line" smooth="yes"/>
      <point x="977.6" y="942.4"/>
      <point x="912.2" y="1067.8"/>
      <point x="718.8" y="1067.8" type="curve" smooth="yes"/>
      <point x="594.7" y="1067.8"/>
      <point x="477.9" y="980.9"/>
      <point x="430.29999999999995" y="900.4" type="curve"/>
      <point x="431.6" y="955.8" type="line"/>
      <point x="431.6" y="1028.8" type="line"/>
      <point x="391.7" y="1065.9" type="line"/>
      <point x="340.5" y="1065.9" type="line"/>
      <point x="17.6" y="971.1" type="line"/>
      <point x="17.6" y="898.7" type="line"/>
      <point x="119.7" y="854.7" type="line"/>
    </contour>
  </outline>
</glyph>
<glyph name="p" format="2">
  <advance width="1056.3"/>
  <unicode hex="0070"/>
  <anchor x="566.0" y="-166.0" name="mark0"/>
  <anchor x="624.0" y="1112.0" name="top"/>
  <outline>
    <contour>
      <point x="1017.4" y="580.8" type="curve" smooth="yes"/>
      <point x="1017.4" y="897.3"/>
      <point x="890.5" y="1071.7"/>
      <point x="691.0" y="1071.7" type="curve" smooth="yes"/>
      <point x="568.0" y="1071.7"/>
      <point x="449.3" y="984.1"/>
      <point x="432.6" y="922.9" type="curve"/>
      <point x="432.6" y="1029.5" type="line"/>
      <point x="394.0" y="1065.9" type="line"/>
      <point x="345.2" y="1065.9" type="line"/>
      <point x="17.6" y="972.2" type="line"/>
      <point x="17.6" y="898.1" type="line"/>
      <point x="125.7" y="854.4" type="line"/>
      <point x="126.4" y="-376.0" type="line"/>
      <point x="37.2" y="-407.6" type="line"/>
      <point x="37.2" y="-471.4" type="line"/>
      <point x="575.3" y="-471.4" type="line"/>
      <point x="575.3" y="-407.6" type="line"/>
      <point x="442.5" y="-376.0" type="line"/>
      <point x="442.5" y="-164.0" type="line"/>
      <point x="440.7" y="-2.0" type="line"/>
      <point x="460.6" y="-11.3"/>
      <point x="498.0" y="-23.4"/>
      <point x="534.9" y="-23.4" type="curve" smooth="yes"/>
      <point x="820.6" y="-23.4"/>
      <point x="1017.4" y="204.3"/>
    </contour>
    <contour>
      <point x="539.0" y="917.2" type="curve" smooth="yes"/>
      <point x="613.7" y="917.2"/>
      <point x="674.5" y="825.3"/>
      <point x="674.5" y="517.4" type="curve"/>
      <point x="674.5" y="223.9"/>
      <point x="631.4" y="63.5"/>
      <point x="531.1" y="63.5" type="curve" smooth="yes"/>
      <point x="488.8" y="63.5"/>
      <point x="456.9" y="89.10000000000001"/>
      <point x="441.8" y="126.5" type="curve"/>
      <point x="440.4" y="838.5" type="line"/>
      <point x="452.7" y="864.0"/>
      <point x="482.7" y="917.2"/>
    </contour>
  </outline>
</glyph>
<glyph name="r" format="2">
  <advance width="797.3"/>
  <unicode hex="0072"/>
  <anchor x="316.5" y="0.0" name="bottom"/>
  <anchor x="424.1" y="1110.3" name="top"/>
  <outline>
    <contour>
      <point x="38.6" y="0.0" type="line"/>
      <point x="617.3000000000001" y="0.0" type="line"/>
      <point x="617.3000000000001" y="65.9" type="line"/>
      <point x="447.7" y="96.10000000000001" type="line"/>
      <point x="447.0" y="717.9" type="line"/>
      <point x="489.6" y="758.3"/>
      <point x="555.7" y="778.5"/>
      <point x="639.6" y="778.5" type="curve" smooth="yes"/>
      <point x="709.8000000000001" y="778.5"/>
      <point x="756.5" y="754.3"/>
      <point x="778.0" y="735.9" type="curve"/>
      <point x="778.0" y="1049.7" type="line"/>
      <point x="764.8" y="1056.7"/>
      <point x="744.5" y="1062.3"/>
      <point x="713.1" y="1062.3" type="curve" smooth="yes"/>
      <point x="553.7" y="1062.3"/>
      <point x="443.8" y="863.6"/>
      <point x="430.3" y="802.6" type="curve"/>
      <point x="421.9" y="802.6" type="line"/>
      <point x="427.5" y="975.9" type="line"/>
      <point x="427.5" y="1023.9" type="line"/>
      <point x="370.5" y="1065.9" type="line"/>
      <point x="340.7" y="1065.9" type="line"/>
      <point x="18.500000000000004" y="972.5" type="line"/>
      <point x="18.500000000000004" y="897.4" type="line"/>
      <point x="127.7" y="854.1" type="line"/>
      <point x="127.7" y="95.10000000000001" type="line"/>
      <point x="38.6" y="65.9" type="line"/>
    </contour>
  </outline>
</glyph>
<glyph name="s" format="2">
  <advance width="820.5"/>
  <unicode hex="0073"/>
  <anchor x="401.2" y="-8.3" name="bottom"/>
  <anchor x="413.2" y="-175.3" name="mark0"/>
  <anchor x="409.9" y="1111.0" name="top"/>
  <outline>
    <contour>
      <point x="252.0" y="313.5" type="line"/>
      <point x="58.400000000000006" y="313.5" type="line"/>
      <point x="52.8" y="41.2" type="line"/>
      <point x="120.5" y="35.8"/>
      <point x="226.4" y="-24.1"/>
      <point x="398.2" y="-24.1" type="curve" smooth="yes"/>
      <point x="695.7" y="-24.1"/>
      <point x="790.1" y="130.8"/>
      <point x="790.1" y="294.2" type="curve" smooth="yes"/>
      <point x="790.1" y="497.7"/>
      <point x="640.7" y="575.9"/>
      <point x="506.1" y="652.1" type="curve" smooth="yes"/>
      <point x="401.5" y="711.2"/>
      <point x="295.2" y="771.2"/>
      <point x="295.2" y="876.3" type="curve" smooth="yes"/>
      <point x="295.2" y="955.9"/>
      <point x="356.8" y="991.5"/>
      <point x="418.6" y="991.5" type="curve" smooth="yes"/>
      <point x="482.2" y="991.5"/>
      <point x="515.1" y="943.4"/>
      <point x="525.1" y="913.1" type="curve"/>
      <point x="559.2" y="753.1" type="line"/>
      <point x="734.2" y="753.1" type="line"/>
      <point x="741.9" y="1017.1" type="line"/>
      <point x="682.9" y="1024.8"/>
      <point x="585.1" y="1069.1"/>
      <point x="430.6" y="1069.1" type="curve" smooth="yes"/>
      <point x="175.70000000000002" y="1069.1"/>
      <point x="45.0" y="942.5"/>
      <point x="45.0" y="760.9" type="curve" smooth="yes"/>
      <point x="45.0" y="569.2"/>
      <point x="183.7" y="478.6"/>
      <point x="304.1" y="409.8" type="curve" smooth="yes"/>
      <point x="439.4" y="332.4"/>
      <point x="537.3" y="271.0"/>
      <point x="537.3" y="186.0" type="curve" smooth="yes"/>
      <point x="537.3" y="101.0"/>
      <point x="487.1" y="54.800000000000004"/>
      <point x="413.9" y="54.800000000000004" type="curve" smooth="yes"/>
      <point x="348.3" y="54.800000000000004"/>
      <point x="303.4" y="104.0"/>
      <point x="294.1" y="142.5" type="curve"/>
    </contour>
  </outline>
</glyph>
<glyph name="u" format="2">
  <advance width="1075.6"/>
  <unicode hex="0075"/>
  <anchor x="597.8" y="0.0" name="bottom"/>
  <anchor x="638.2" y="-166.0" name="mark0"/>
  <anchor x="897.6" y="20.0" name="ogonek"/>
  <anchor x="570.4" y="1110.6" name="top"/>
  <anchor x="884.4" y="1058.1" name="topright"/>
  <outline>
    <contour>
      <point x="793.2" y="-19.3" type="curve" smooth="yes"/>
      <point x="932.0" y="-19.3"/>
      <point x="1002.2" y="0.0"/>
      <point x="1042.4" y="10.0" type="curve"/>
      <point x="1042.4" y="75.0" type="line"/>
      <point x="972.8" y="89.0" type="line"/>
      <point x="972.8" y="1026.8" type="line"/>
      <point x="922.7" y="1065.3" type="line"/>
      <point x="894.3" y="1065.3" type="line"/>
      <point x="565.4" y="977.7" type="line"/>
      <point x="565.4" y="911.8" type="line"/>
      <point x="657.7" y="869.9" type="line"/>
      <point x="657.7" y="216.4" type="line"/>
      <point x="631.1" y="183.9"/>
      <point x="589.5" y="157.2"/>
      <point x="525.2" y="157.2" type="curve" smooth="yes"/>
      <point x="460.3" y="157.2"/>
      <point x="432.0" y="206.8"/>
      <point x="432.0" y="352.79999999999995" type="curve" smooth="yes"/>
      <point x="432.0" y="1026.8" type="line"/>
      <point x="383.1" y="1065.3" type="line"/>
      <point x="355.9" y="1065.3" type="line"/>
      <point x="20.400000000000006" y="977.7" type="line"/>
      <point x="20.400000000000006" y="910.6" type="line"/>
      <point x="116.9" y="869.9" type="line"/>
      <point x="116.9" y="367.1" type="line" smooth="yes"/>
      <point x="116.9" y="96.0"/>
      <point x="210.8" y="-20.6"/>
      <point x="425.9" y="-20.6" type="curve" smooth="yes"/>
      <point x="543.2" y="-20.6"/>
      <point x="622.6" y="53.3"/>
      <point x="675.4000000000001" y="157.2" type="curve"/>
      <point x="675.4000000000001" y="95.7" type="line" smooth="yes"/>
      <point x="675.4000000000001" y="14.200000000000003"/>
      <point x="716.9000000000001" y="-19.3"/>
    </contour>
  </outline>
</glyph>
<glyph name="v" format="2">
  <advance width="882.7"/>
  <unicode hex="0076"/>
  <outline>
    <contour>
      <point x="-40.699999999999996" y="968.2" type="line"/>
      <point x="32.10000000000001" y="929.9" type="line"/>
      <point x="308.3" y="-4.800000000000001" type="line"/>
      <point x="587.1" y="-4.800000000000001" type="line"/>
      <point x="854.1" y="929.9" type="line"/>
      <point x="953.5" y="968.2" type="line"/>
      <point x="953.5" y="1036.8" type="line"/>
      <point x="616.7" y="1036.8" type="line"/>
      <point x="616.7" y="967.5" type="line"/>
      <point x="723.0" y="929.9" type="line"/>
      <point x="583.7" y="412.8" type="line"/>
      <point x="536.4" y="201.70000000000002" type="line"/>
      <point x="486.9" y="415.1" type="line"/>
      <point x="375.8" y="929.9" type="line"/>
      <point x="465.6" y="968.2" type="line"/>
      <point x="465.6" y="1036.8" type="line"/>
      <point x="-40.699999999999996" y="1036.8" type="line"/>
    </contour>
  </outline>
</glyph>
<glyph name="w" format="2">
  <advance width="1488.4"/>
  <unicode hex="0077"/>
  <anchor x="875.0" y="0.0" name="bottom"/>
  <anchor x="844.0" y="-166.0" name="mark0"/>
  <anchor x="921.0" y="1111.0" name="top"/>
  <outline>
    <contour>
      <point x="-61.5" y="972.1" type="line"/>
      <point x="17.5" y="933.6" type="line"/>
      <point x="279.5" y="-4.800000000000001" type="line"/>
      <point x="547.2" y="-4.800000000000001" type="line"/>
      <point x="685.3" y="608.6" type="line"/>
      <point x="719.5" y="811.9" type="line"/>
      <point x="759.0" y="609.3" type="line"/>
      <point x="902.8" y="-4.800000000000001" type="line"/>
      <point x="1186.9" y="-4.800000000000001" type="line"/>
      <point x="1450.7" y="933.3" type="line"/>
      <point x="1552.6" y="972.1" type="line"/>
      <point x="1552.6" y="1036.5" type="line"/>
      <point x="1206.8" y="1036.5" type="line"/>
      <point x="1206.8" y="972.8" type="line"/>
      <point x="1328.1" y="932.4" type="line"/>
      <point x="1195.4" y="383.9" type="line"/>
      <point x="1151.6" y="178.1" type="line"/>
      <point x="1109.9" y="384.20000000000005" type="line"/>
      <point x="970.7" y="1036.5" type="line"/>
      <point x="680.8" y="1036.5" type="line"/>
      <point x="544.5" y="383.5" type="line"/>
      <point x="506.0" y="178.1" type="line"/>
      <point x="465.4" y="383.9" type="line"/>
      <point x="343.0" y="933.0" type="line"/>
      <point x="441.7" y="972.8" type="line"/>
      <point x="441.7" y="1036.5" type="line"/>
      <point x="-61.5" y="1036.5" type="line"/>
    </contour>
  </outline>
</glyph>
<glyph name="x" format="2">
  <advance width="954.8"/>
  <unicode hex="0078"/>
  <anchor x="603.2" y="-166.0" name="mark0"/>
  <outline>
    <contour>
      <point x="77.5" y="95.0" type="line"/>
      <point x="-13.5" y="65.60000000000001" type="line"/>
      <point x="-13.5" y="0.0" type="line"/>
      <point x="333.5" y="0.0" type="line"/>
      <point x="333.5" y="65.60000000000001" type="line"/>
      <point x="218.3" y="95.0" type="line"/>
      <point x="335.2" y="318.0" type="line"/>
      <point x="378.7" y="405.0" type="line"/>
      <point x="425.2" y="317.0" type="line"/>
      <point x="538.2" y="95.0" type="line"/>
      <point x="447.6" y="65.60000000000001" type="line"/>
      <point x="447.6" y="0.0" type="line"/>
      <point x="968.3" y="0.0" type="line"/>
      <point x="968.3" y="65.60000000000001" type="line"/>
      <point x="891.5" y="94.7" type="line"/>
      <point x="625.6" y="562.7" type="line"/>
      <point x="873.3" y="942.8" type="line"/>
      <point x="958.8" y="971.4" type="line"/>
      <point x="958.8" y="1036.8" type="line"/>
      <point x="631.6" y="1036.8" type="line"/>
      <point x="631.6" y="971.4" type="line"/>
      <point x="734.7" y="942.1" type="line"/>
      <point x="625.0" y="723.3" type="line"/>
      <point x="581.3" y="635.5" type="line"/>
      <point x="536.2" y="723.7" type="line"/>
      <point x="425.0" y="942.8" type="line"/>
      <point x="516.4" y="971.4" type="line"/>
      <point x="516.4" y="1036.8" type="line"/>
      <point x="-7.699999999999996" y="1036.8" type="line"/>
      <point x="-7.699999999999996" y="971.4" type="line"/>
      <point x="73.10000000000001" y="942.8" type="line"/>
      <point x="330.8" y="479.2" type="line"/>
    </contour>
  </outline>
</glyph>
<glyph name="z" format="2">
  <advance width="930.1"/>
  <unicode hex="007A"/>
  <anchor x="559.8" y="0.0" name="bottom"/>
  <anchor x="543.8" y="-176.0" name="mark0"/>
  <anchor x="534.8" y="1111.0" name="top"/>
  <outline>
    <contour>
      <point x="572.8" y="959.7" type="line"/>
      <point x="484.1" y="855.5" type="line"/>
      <point x="18.400000000000006" y="115.0" type="line"/>
      <point x="70.2" y="0.0" type="line"/>
      <point x="849.6" y="0.0" type="line"/>
      <point x="886.2" y="375.0" type="line"/>
      <point x="761.0" y="395.1" type="line"/>
      <point x="667.4" y="131.4" type="line"/>
      <point x="351.9" y="77.2" type="line"/>
      <point x="453.2" y="206.0" type="line"/>
      <point x="893.1" y="921.8" type="line"/>
      <point x="845.3" y="1036.8" type="line"/>
      <point x="92.7" y="1036.8" type="line"/>
      <point x="82.9" y="685.8" type="line"/>
      <point x="216.8" y="685.8" type="line"/>
      <point x="279.6" y="920.9" type="line"/>
    </contour>
  </outline>
</glyph>
<glyph name="braceleft" format="2">
  <advance width="932.3000000000001"/>
  <unicode hex="007B"/>
  <outline>
    <contour>
      <point x="551.6" y="-282.0" type="curve" smooth="yes"/>
      <point x="649.8" y="-282.0"/>
      <point x="736.7" y="-260.1"/>
      <point x="813.7" y="-238.0" type="curve"/>
      <point x="813.7" y="-170.8" type="line"/>
      <point x="776.2" y="-171.8"/>
      <point x="738.8" y="-172.8"/>
      <point x="702.4" y="-172.8" type="curve" smooth="yes"/>
      <point x="614.1" y="-172.8"/>
      <point x="544.3" y="-132.0"/>
      <point x="544.3" y="-5.0" type="curve" smooth="yes"/>
      <point x="544.3" y="106.0"/>
      <point x="615.3" y="283.0"/>
      <point x="615.3" y="416.0" type="curve" smooth="yes"/>
      <point x="615.3" y="593.0"/>
      <point x="456.7" y="650.0"/>
      <point x="296.1" y="672.0" type="curve"/>
      <point x="456.7" y="695.0"/>
      <point x="615.3" y="743.0"/>
      <point x="615.3" y="920.0" type="curve" smooth="yes"/>
      <point x="615.3" y="1055.0"/>
      <point x="544.3" y="1237.0"/>
      <point x="544.3" y="1347.0" type="curve" smooth="yes"/>
      <point x="544.3" y="1472.0"/>
      <point x="609.9" y="1514.8"/>
      <point x="697.5" y="1514.8" type="curve" smooth="yes"/>
      <point x="735.0" y="1514.8"/>
      <point x="776.2" y="1514.1"/>
      <point x="813.7" y="1513.1" type="curve"/>
      <point x="813.7" y="1576.0" type="line"/>
      <point x="730.4" y="1600.2"/>
      <point x="652.6" y="1620.0"/>
      <point x="553.7" y="1620.0" type="curve" smooth="yes"/>
      <point x="324.4" y="1620.0"/>
      <point x="219.0" y="1519.0"/>
      <point x="219.0" y="1351.0" type="curve" smooth="yes"/>
      <point x="219.0" y="1168.0"/>
      <point x="341.4" y="1020.9"/>
      <point x="341.4" y="872.2" type="curve" smooth="yes"/>
      <point x="341.4" y="780.5"/>
      <point x="310.9" y="721.1"/>
      <point x="123.8" y="721.1" type="curve"/>
      <point x="123.8" y="634.9" type="line"/>
      <point x="310.9" y="634.9"/>
      <point x="341.4" y="556.0"/>
      <point x="341.4" y="462.6" type="curve" smooth="yes"/>
      <point x="341.4" y="314.6"/>
      <point x="219.0" y="168.0"/>
      <point x="219.0" y="-14.0" type="curve" smooth="yes"/>
      <point x="219.0" y="-181.0"/>
      <point x="321.6" y="-282.0"/>
    </contour>
  </outline>
</glyph>
<glyph name="asciitilde" format="2">
  <advance width="1235.7"/>
  <unicode hex="007E"/>
  <outline>
    <contour>
      <point x="180.0" y="605.1" type="curve"/>
      <point x="234.7" y="531.3" type="line"/>
      <point x="283.0" y="597.2"/>
      <point x="351.0" y="648.1"/>
      <point x="431.8" y="648.1" type="curve" smooth="yes"/>
      <point x="572.5" y="648.1"/>
      <point x="608.8" y="466.5"/>
      <point x="785.0" y="466.5" type="curve" smooth="yes"/>
      <point x="903.6" y="466.5"/>
      <point x="1007.0" y="547.1"/>
      <point x="1055.7" y="639.5" type="curve"/>
      <point x="996.5" y="718.5" type="line"/>
      <point x="950.8" y="652.5"/>
      <point x="883.1" y="595.9"/>
      <point x="797.8" y="595.9" type="curve" smooth="yes"/>
      <point x="667.8" y="595.9"/>
      <point x="618.4" y="776.6"/>
      <point x="446.9" y="776.6" type="curve" smooth="yes"/>
      <point x="330.1" y="776.6"/>
      <point x="222.5" y="690.8"/>
    </contour>
  </outline>
</glyph>
<glyph name="exclamdown" format="2">
  <advance width="567.9"/>
  <unicode hex="00A1"/>
  <outline>
    <contour>
      <point x="65.6" y="-486.5" type="line"/>
      <point x="410.4" y="-486.5" type="line"/>
      <point x="287.7" y="793.6" type="line"/>
      <point x="187.3" y="793.6" type="line"/>
    </contour>
    <contour>
      <point x="301.2" y="1243.9" type="curve" smooth="yes"/>
      <point x="233.3" y="1273.3"/>
      <point x="161.9" y="1251.4"/>
      <point x="136.1" y="1177.9" type="curve" smooth="yes"/>
      <point x="99.8" y="1123.3"/>
      <point x="108.29999999999998" y="1052.0"/>
      <point x="170.6" y="1017.5" type="curve" smooth="yes"/>
      <point x="232.89999999999998" y="992.0"/>
      <point x="301.4" y="1014.6"/>
      <point x="335.0" y="1083.2" type="curve" smooth="yes"/>
      <point x="368.0" y="1145.5"/>
      <point x="350.9" y="1211.5"/>
    </contour>
  </outline>
</glyph>
<glyph name="sterling" format="2">
  <advance width="1342.9"/>
  <unicode hex="00A3"/>
  <outline>
    <contour>
      <point x="845.5" y="-14.0" type="curve" smooth="yes"/>
      <point x="1111.0" y="-14.0"/>
      <point x="1280.2" y="143.4"/>
      <point x="1280.2" y="359.9" type="curve" smooth="yes"/>
      <point x="1280.2" y="447.3"/>
      <point x="1252.5" y="505.0"/>
      <point x="1226.2" y="533.0" type="curve"/>
      <point x="917.8" y="533.0" type="line"/>
      <point x="956.4" y="482.4"/>
      <point x="979.7" y="416.1"/>
      <point x="979.7" y="321.2" type="curve" smooth="yes"/>
      <point x="979.7" y="172.9"/>
      <point x="925.0" y="78.5"/>
      <point x="787.9" y="78.5" type="curve" smooth="yes"/>
      <point x="672.3" y="78.5"/>
      <point x="611.7" y="147.5"/>
      <point x="495.1" y="197.6" type="curve"/>
      <point x="578.4" y="290.5"/>
      <point x="605.1" y="374.9"/>
      <point x="612.8" y="566.9" type="curve" smooth="yes"/>
      <point x="612.8" y="753.3" type="line"/>
      <point x="867.0" y="753.3" type="line"/>
      <point x="867.0" y="852.0" type="line"/>
      <point x="612.8" y="852.0" type="line"/>
      <point x="612.8" y="1134.0" type="line" smooth="yes"/>
      <point x="612.8" y="1229.9"/>
      <point x="625.3" y="1417.0"/>
      <point x="760.3" y="1417.0" type="curve" smooth="yes"/>
      <point x="868.3" y="1417.0"/>
      <point x="969.5" y="1302.9"/>
      <point x="1016.5" y="1180.4" type="curve"/>
      <point x="1151.8" y="1380.4" type="line"/>
      <point x="1068.9" y="1452.7"/>
      <point x="926.4" y="1505.0"/>
      <point x="782.2" y="1505.0" type="curve" smooth="yes"/>
      <point x="487.3" y="1505.0"/>
      <point x="287.3" y="1291.4"/>
      <point x="287.3" y="999.0" type="curve" smooth="yes"/>
      <point x="287.3" y="852.0" type="line"/>
      <point x="146.7" y="852.0" type="line"/>
      <point x="146.7" y="753.3" type="line"/>
      <point x="287.3" y="753.3" type="line"/>
      <point x="287.3" y="381.5" type="line" smooth="yes"/>
      <point x="287.3" y="304.5"/>
      <point x="282.3" y="262.3"/>
      <point x="271.8" y="239.8" type="curve"/>
      <point x="191.6" y="232.8"/>
      <point x="57.5" y="180.5"/>
      <point x="57.5" y="87.7" type="curve" smooth="yes"/>
      <point x="57.5" y="34.0"/>
      <point x="101.8" y="0.0"/>
      <point x="176.9" y="0.0" type="curve" smooth="yes"/>
      <point x="247.8" y="0.0"/>
      <point x="306.9" y="30.9"/>
      <point x="372.1" y="99.8" type="curve"/>
      <point x="460.7" y="98.6"/>
      <point x="620.9" y="-14.0"/>
    </contour>
  </outline>
</glyph>
<glyph name="currency" format="2">
  <advance width="1491.4"/>
  <unicode hex="00A4"/>
  <outline>
    <contour>
      <point x="406.0" y="465.1" type="curve"/>
      <point x="187.0" y="247.1" type="line"/>
      <point x="263.0" y="169.1" type="line"/>
      <point x="486.0" y="394.1" type="line"/>
      <point x="558.9" y="337.0"/>
      <point x="650.1" y="307.0"/>
      <point x="744.1" y="307.0" type="curve" smooth="yes"/>
      <point x="831.9" y="307.0"/>
      <point x="919.2" y="334.7"/>
      <point x="991.0" y="388.9" type="curve"/>
      <point x="1216.0" y="161.9" type="line"/>
      <point x="1310.2" y="258.1" type="line"/>
      <point x="1087.2" y="478.1" type="line"/>
      <point x="1154.9" y="563.2"/>
      <point x="1192.1" y="663.6"/>
      <point x="1192.1" y="765.0" type="curve" smooth="yes"/>
      <point x="1192.1" y="865.9"/>
      <point x="1156.2" y="963.1"/>
      <point x="1087.6" y="1043.5" type="curve"/>
      <point x="1308.6" y="1261.5" type="line"/>
      <point x="1230.5" y="1339.6" type="line"/>
      <point x="1003.5" y="1116.6" type="line"/>
      <point x="925.4" y="1173.7"/>
      <point x="835.3" y="1203.0"/>
      <point x="744.1" y="1203.0" type="curve" smooth="yes"/>
      <point x="654.3" y="1203.0"/>
      <point x="569.4" y="1175.9"/>
      <point x="499.2" y="1123.1" type="curve"/>
      <point x="272.2" y="1350.1" type="line"/>
      <point x="180.0" y="1253.9" type="line"/>
      <point x="403.0" y="1030.9" type="line"/>
      <point x="337.0" y="948.9"/>
      <point x="302.1" y="847.9"/>
      <point x="302.1" y="745.0" type="curve" smooth="yes"/>
      <point x="302.1" y="645.2"/>
      <point x="337.1" y="547.0"/>
    </contour>
    <contour>
      <point x="743.0" y="534.0" type="curve" smooth="yes"/>
      <point x="633.0" y="534.0"/>
      <point x="538.0" y="631.0"/>
      <point x="538.0" y="749.0" type="curve" smooth="yes"/>
      <point x="538.0" y="868.0"/>
      <point x="609.0" y="976.0"/>
      <point x="739.0" y="976.0" type="curve" smooth="yes"/>
      <point x="847.0" y="976.0"/>
      <point x="948.0" y="885.0"/>
      <point x="948.0" y="751.0" type="curve" smooth="yes"/>
      <point x="948.0" y="633.0"/>
      <point x="881.0" y="534.0"/>
    </contour>
  </outline>
</glyph>
<glyph name="guillemetleft" format="2">
  <advance width="1166.7"/>
  <unicode hex="00AB"/>
  <outline>
    <contour>
      <point x="514.0" y="1040.1" type="line"/>
      <point x="82.7" y="593.2" type="line"/>
      <point x="82.7" y="501.8" type="line"/>
      <point x="514.0" y="63.900000000000006" type="line"/>
      <point x="583.3" y="97.8" type="line"/>
      <point x="358.0" y="547.0" type="line"/>
      <point x="583.3" y="1009.2" type="line"/>
    </contour>
    <contour>
      <point x="990.2" y="1040.1" type="line"/>
      <point x="535.1" y="593.2" type="line"/>
      <point x="535.1" y="501.8" type="line"/>
      <point x="990.2" y="63.900000000000006" type="line"/>
      <point x="1061.2" y="97.8" type="line"/>
      <point x="810.4" y="547.0" type="line"/>
      <point x="1061.2" y="1009.2" type="line"/>
    </contour>
  </outline>
</glyph>
<glyph name="logicalnot" format="2">
  <advance width="1210.0"/>
  <unicode hex="00AC"/>
  <outline>
    <contour>
      <point x="1032.1" y="700.1" type="line"/>
      <point x="180.0" y="700.1" type="line"/>
      <point x="180.0" y="585.5" type="line"/>
      <point x="906.9" y="585.5" type="line"/>
      <point x="906.9" y="177.7" type="line"/>
      <point x="1032.1" y="177.7" type="line"/>
    </contour>
  </outline>
</glyph>
<glyph name="softhyphen" format="2">
  <advance width="1004.5"/>
  <unicode hex="00AD"/>
  <outline>
    <contour>
      <point x="852.5" y="670.1" type="line"/>
      <point x="152.0" y="670.1" type="line"/>
      <point x="152.0" y="509.9" type="line"/>
      <point x="852.5" y="509.9" type="line"/>
    </contour>
  </outline>
</glyph>
<glyph name="plusminus" format="2">
  <advance width="1204.0"/>
  <unicode hex="00B1"/>
  <outline>
    <contour>
      <point x="319.5" y="774.2" type="line"/>
      <point x="180.0" y="774.2" type="line"/>
      <point x="180.0" y="653.1" type="line"/>
      <point x="319.5" y="653.1" type="line"/>
      <point x="541.7" y="654.9" type="line"/>
      <point x="539.9" y="469.8" type="line"/>
      <point x="539.9" y="246.9" type="line"/>
      <point x="663.1" y="246.9" type="line"/>
      <point x="663.1" y="469.8" type="line"/>
      <point x="660.4" y="654.9" type="line"/>
      <point x="854.5" y="653.1" type="line"/>
      <point x="1024.0" y="653.1" type="line"/>
      <point x="1024.0" y="774.2" type="line"/>
      <point x="854.5" y="774.2" type="line"/>
      <point x="660.4" y="770.6" type="line"/>
      <point x="663.1" y="963.1" type="line"/>
      <point x="663.1" y="1183.0" type="line"/>
      <point x="539.9" y="1183.0" type="line"/>
      <point x="539.9" y="963.1" type="line"/>
      <point x="541.7" y="770.6" type="line"/>
    </contour>
    <contour>
      <point x="1002.1" y="113.4" type="line"/>
      <point x="203.1" y="113.4" type="line"/>
      <point x="203.1" y="0.0" type="line"/>
      <point x="1002.1" y="0.0" type="line"/>
    </contour>
  </outline>
</glyph>
<glyph name="micro" format="2">
  <advance width="1204.4"/>
  <unicode hex="00B5"/>
  <outline>
    <contour>
      <point x="168.5" y="-362.6" type="line"/>
      <point x="465.3" y="-362.6" type="line"/>
      <point x="465.3" y="48.89999999999999" type="line"/>
      <point x="503.0" y="3.8999999999999986"/>
      <point x="548.7" y="-18.6"/>
      <point x="595.4" y="-18.6" type="curve" smooth="yes"/>
      <point x="670.7" y="-18.6"/>
      <point x="745.6" y="51.7"/>
      <point x="769.7" y="168.9" type="curve"/>
      <point x="769.7" y="77.9" type="line" smooth="yes"/>
      <point x="769.7" y="42.5"/>
      <point x="769.7" y="-22.5"/>
      <point x="908.8" y="-22.5" type="curve" smooth="yes"/>
      <point x="998.1" y="-22.5"/>
      <point x="1109.1" y="3.5999999999999996"/>
      <point x="1133.4" y="9.7" type="curve"/>
      <point x="1133.4" y="75.0" type="line"/>
      <point x="1056.6" y="89.0" type="line"/>
      <point x="1056.6" y="1026.8" type="line"/>
      <point x="1006.0" y="1064.4" type="line"/>
      <point x="636.0" y="977.4" type="line"/>
      <point x="637.3" y="913.3" type="line"/>
      <point x="731.7" y="868.7" type="line"/>
      <point x="731.7" y="225.1" type="line"/>
      <point x="703.9" y="186.5"/>
      <point x="663.9" y="158.4"/>
      <point x="616.4" y="158.4" type="curve" smooth="yes"/>
      <point x="550.1" y="158.4"/>
      <point x="482.6" y="220.2"/>
      <point x="482.6" y="336.9" type="curve" smooth="yes"/>
      <point x="482.6" y="1026.8" type="line"/>
      <point x="433.9" y="1064.4" type="line"/>
      <point x="81.0" y="977.1" type="line"/>
      <point x="81.0" y="913.0" type="line"/>
      <point x="168.2" y="868.7" type="line"/>
    </contour>
  </outline>
</glyph>
<glyph name="periodcentered" format="2">
  <advance width="630.8"/>
  <unicode hex="00B7"/>
  <outline>
    <contour>
      <point x="300.0" y="554.2" type="curve" smooth="yes"/>
      <point x="404.6" y="554.2"/>
      <point x="475.90000000000003" y="615.7"/>
      <point x="475.90000000000003" y="723.7" type="curve" smooth="yes"/>
      <point x="475.90000000000003" y="804.1"/>
      <point x="422.4" y="880.8"/>
      <point x="326.5" y="880.8" type="curve" smooth="yes"/>
      <point x="231.2" y="880.8"/>
      <point x="154.9" y="811.7"/>
      <point x="154.9" y="710.4" type="curve" smooth="yes"/>
      <point x="154.9" y="619.0"/>
      <point x="223.9" y="554.2"/>
    </contour>
  </outline>
</glyph>
<glyph name="guillemetright" format="2">
  <advance width="1166.7"/>
  <unicode hex="00BB"/>
  <outline>
    <contour>
      <point x="653.0" y="1040.1" type="line"/>
      <point x="583.4" y="1009.2" type="line"/>
      <point x="808.7" y="547.0" type="line"/>
      <point x="583.4" y="97.8" type="line"/>
      <point x="653.0" y="63.900000000000006" type="line"/>
      <point x="1084.0" y="501.8" type="line"/>
      <point x="1084.0" y="593.2" type="line"/>
    </contour>
    <contour>
      <point x="176.5" y="1040.1" type="line"/>
      <point x="105.5" y="1009.2" type="line"/>
      <point x="356.3" y="547.0" type="line"/>
      <point x="105.5" y="97.8" type="line"/>
      <point x="176.5" y="63.900000000000006" type="line"/>
      <point x="631.3" y="501.8" type="line"/>
      <point x="631.3" y="593.2" type="line"/>
    </contour>
  </outline>
</glyph>
<glyph name="Eth" format="2">
  <advance width="1245.4"/>
  <unicode hex="00D0"/>
  <anchor x="736.4" y="0.0" name="bottom"/>
  <anchor x="736.4" y="744.0" name="center"/>
  <anchor x="769.4" y="-166.0" name="mark0"/>
  <anchor x="736.4" y="1486.0" name="top"/>
  <outline>
    <contour>
      <point x="84.0" y="700.0" type="line"/>
      <point x="727.0" y="700.0" type="line"/>
      <point x="727.0" y="838.0" type="line"/>
      <point x="84.0" y="838.0" type="line"/>
    </contour>
    <component base="D"/>
  </outline>
</glyph>
<glyph name="multiply" format="2">
  <advance width="1150.5"/>
  <unicode hex="00D7"/>
  <outline>
    <contour>
      <point x="503.5" y="600.6" type="line"/>
      <point x="141.3" y="241.6" type="line"/>
      <point x="224.2" y="156.7" type="line"/>
      <point x="578.6" y="521.1" type="line"/>
      <point x="932.0" y="158.1" type="line"/>
      <point x="1013.8" y="240.9" type="line"/>
      <point x="649.2" y="601.3" type="line"/>
      <point x="1014.5" y="963.4" type="line"/>
      <point x="930.6" y="1049.3" type="line"/>
      <point x="575.8" y="683.6" type="line"/>
      <point x="220.8" y="1047.9" type="line"/>
      <point x="136.0" y="963.1" type="line"/>
    </contour>
  </outline>
</glyph>
<glyph name="Thorn" format="2">
  <advance width="1254.3"/>
  <unicode hex="00DE"/>
  <outline>
    <contour>
      <point x="172.7" y="97.0" type="line"/>
      <point x="32.099999999999994" y="64.9" type="line"/>
      <point x="32.099999999999994" y="0.0" type="line"/>
      <point x="706.4" y="0.0" type="line"/>
      <point x="706.4" y="65.60000000000001" type="line"/>
      <point x="540.2" y="95.60000000000001" type="line"/>
      <point x="540.2" y="345.3" type="line"/>
      <point x="572.2" y="341.3"/>
      <point x="600.5" y="336.1"/>
      <point x="729.5" y="336.1" type="curve" smooth="yes"/>
      <point x="1062.2" y="336.1"/>
      <point x="1216.2" y="503.5"/>
      <point x="1216.2" y="771.3" type="curve" smooth="yes"/>
      <point x="1216.2" y="1040.3"/>
      <point x="1077.8" y="1160.6"/>
      <point x="774.6" y="1160.6" type="curve" smooth="yes"/>
      <point x="714.0" y="1160.6"/>
      <point x="594.8" y="1147.9"/>
      <point x="540.2" y="1142.7" type="curve"/>
      <point x="540.2" y="1384.1" type="line"/>
      <point x="695.0" y="1419.7" type="line"/>
      <point x="694.7" y="1487.0" type="line"/>
      <point x="32.5" y="1487.0" type="line"/>
      <point x="32.5" y="1419.7" type="line"/>
      <point x="172.7" y="1384.1" type="line"/>
    </contour>
    <contour>
      <point x="663.5" y="416.6" type="curve" smooth="yes"/>
      <point x="615.5" y="416.6"/>
      <point x="564.2" y="418.1"/>
      <point x="540.2" y="428.8" type="curve"/>
      <point x="540.2" y="1060.2" type="line"/>
      <point x="571.8" y="1066.1"/>
      <point x="601.5" y="1073.1"/>
      <point x="654.9" y="1073.1" type="curve" smooth="yes"/>
      <point x="801.8" y="1073.7"/>
      <point x="868.5" y="941.4"/>
      <point x="868.5" y="759.0" type="curve" smooth="yes"/>
      <point x="868.5" y="558.6"/>
      <point x="798.6" y="416.6"/>
    </contour>
  </outline>
</glyph>
<glyph name="germandbls" format="2">
  <advance width="1102.4"/>
  <unicode hex="00DF"/>
  <outline>
    <contour>
      <point x="109.2" y="95.30000000000001" type="line"/>
      <point x="21.3" y="66.20000000000002" type="line"/>
      <point x="21.3" y="0.0" type="line"/>
      <point x="419.8" y="0.0" type="line"/>
      <point x="419.8" y="984.8" type="line" smooth="yes"/>
      <point x="419.8" y="1280.8"/>
      <point x="474.0" y="1477.7"/>
      <point x="590.8" y="1477.7" type="curve" smooth="yes"/>
      <point x="665.2" y="1477.7"/>
      <point x="713.5" y="1416.9"/>
      <point x="713.5" y="1300.9" type="curve" smooth="yes"/>
      <point x="713.5" y="965.8"/>
      <point x="556.9" y="988.6"/>
      <point x="556.9" y="826.4" type="curve" smooth="yes"/>
      <point x="556.9" y="677.0"/>
      <point x="774.2" y="601.6"/>
      <point x="774.2" y="319.8" type="curve" smooth="yes"/>
      <point x="774.2" y="213.0"/>
      <point x="741.6" y="68.6"/>
      <point x="623.5" y="68.6" type="curve" smooth="yes"/>
      <point x="571.6" y="68.6"/>
      <point x="540.5" y="84.4"/>
      <point x="513.4" y="100.4" type="curve"/>
      <point x="513.4" y="0.0" type="line"/>
      <point x="538.8" y="-10.7"/>
      <point x="607.9" y="-22.0"/>
      <point x="658.3" y="-22.0" type="curve" smooth="yes"/>
      <point x="942.1" y="-22.0"/>
      <point x="1111.4" y="132.0"/>
      <point x="1110.7" y="363.8" type="curve" smooth="yes"/>
      <point x="1111.4" y="731.6"/>
      <point x="706.1" y="781.0"/>
      <point x="706.1" y="912.3" type="curve" smooth="yes"/>
      <point x="706.1" y="1045.5"/>
      <point x="1000.5" y="1023.2"/>
      <point x="1000.5" y="1302.0" type="curve" smooth="yes"/>
      <point x="1000.5" y="1464.0"/>
      <point x="877.6" y="1561.0"/>
      <point x="629.8" y="1561.0" type="curve" smooth="yes"/>
      <point x="292.1" y="1561.0"/>
      <point x="109.2" y="1292.0"/>
      <point x="109.2" y="931.0" type="curve" smooth="yes"/>
    </contour>
  </outline>
</glyph>
<glyph name="ae" format="2">
  <advance width="1557.9"/>
  <unicode hex="00E6"/>
  <anchor x="773.7" y="0.0" name="bottom"/>
  <anchor x="813.7" y="1111.0" name="top"/>
  <outline>
    <contour>
      <point x="298.1" y="-22.7" type="curve" smooth="yes"/>
      <point x="450.0" y="-22.7"/>
      <point x="590.3" y="41.5"/>
      <point x="658.4" y="192.2" type="curve"/>
      <point x="735.4" y="58.5"/>
      <point x="879.1" y="-23.4"/>
      <point x="1097.1" y="-23.4" type="curve" smooth="yes"/>
      <point x="1274.3" y="-23.4"/>
      <point x="1446.4" y="68.0"/>
      <point x="1502.9" y="130.5" type="curve"/>
      <point x="1468.8" y="205.4" type="line"/>
      <point x="1411.0" y="164.2"/>
      <point x="1298.2" y="134.9"/>
      <point x="1216.1" y="134.9" type="curve" smooth="yes"/>
      <point x="1044.5" y="134.9"/>
      <point x="951.3" y="248.10000000000002"/>
      <point x="939.8" y="509.8" type="curve"/>
      <point x="1512.8" y="509.8" type="line"/>
      <point x="1522.8" y="542.6"/>
      <point x="1528.5" y="601.7"/>
      <point x="1528.5" y="692.7" type="curve"/>
      <point x="1524.5" y="935.8"/>
      <point x="1373.3" y="1071.4"/>
      <point x="1107.2" y="1071.4" type="curve" smooth="yes"/>
      <point x="984.8" y="1071.4"/>
      <point x="882.3" y="1035.3"/>
      <point x="806.2" y="973.0" type="curve"/>
      <point x="744.4" y="1039.2"/>
      <point x="648.6" y="1067.3"/>
      <point x="524.2" y="1067.3" type="curve" smooth="yes"/>
      <point x="309.0" y="1067.3"/>
      <point x="121.9" y="970.5"/>
      <point x="58.1" y="919.7" type="curve"/>
      <point x="103.3" y="825.4" type="line"/>
      <point x="164.7" y="848.6"/>
      <point x="267.8" y="886.2"/>
      <point x="397.3" y="886.2" type="curve" smooth="yes"/>
      <point x="527.3" y="886.2"/>
      <point x="589.4" y="829.4"/>
      <point x="590.9" y="720.1" type="curve"/>
      <point x="590.9" y="626.1" type="line"/>
      <point x="312.2" y="625.2"/>
      <point x="4.5" y="529.1"/>
      <point x="4.5" y="274.2" type="curve" smooth="yes"/>
      <point x="4.5" y="90.5"/>
      <point x="121.7" y="-22.7"/>
    </contour>
    <contour>
      <point x="937.8" y="587.5" type="line"/>
      <point x="945.4" y="911.9"/>
      <point x="1005.8" y="990.5"/>
      <point x="1083.6" y="990.5" type="curve" smooth="yes"/>
      <point x="1170.0" y="990.5"/>
      <point x="1188.6" y="891.0"/>
      <point x="1188.6" y="705.5" type="curve" smooth="yes"/>
      <point x="1188.6" y="681.0"/>
      <point x="1187.2" y="620.8"/>
      <point x="1186.6" y="596.6" type="curve"/>
    </contour>
    <contour>
      <point x="465.4" y="144.0" type="curve" smooth="yes"/>
      <point x="392.9" y="144.0"/>
      <point x="342.1" y="217.3"/>
      <point x="342.1" y="322.0" type="curve" smooth="yes"/>
      <point x="342.1" y="446.7"/>
      <point x="420.3" y="546.2"/>
      <point x="589.1" y="547.8" type="curve"/>
      <point x="589.1" y="429.5"/>
      <point x="593.6" y="338.9"/>
      <point x="631.4" y="245.9" type="curve"/>
      <point x="597.9" y="193.7"/>
      <point x="544.2" y="144.0"/>
    </contour>
  </outline>
</glyph>
<glyph name="eth" format="2">
  <advance width="1208.0"/>
  <unicode hex="00F0"/>
  <outline>
    <contour>
      <point x="559.9" y="-22.0" type="curve" smooth="yes"/>
      <point x="952.5" y="-22.0"/>
      <point x="1073.4" y="352.0"/>
      <point x="1073.4" y="662.0" type="curve" smooth="yes"/>
      <point x="1073.4" y="1142.0"/>
      <point x="814.0" y="1469.0"/>
      <point x="529.0" y="1650.0" type="curve"/>
      <point x="501.1" y="1478.0" type="line"/>
      <point x="736.6" y="1727.0" type="line"/>
      <point x="630.3" y="1828.0" type="line"/>
      <point x="383.2" y="1563.0" type="line"/>
      <point x="592.1" y="1609.0" type="line"/>
      <point x="434.0" y="1717.0"/>
      <point x="313.1" y="1747.0"/>
      <point x="217.8" y="1772.0" type="curve"/>
      <point x="165.3" y="1635.0" type="line"/>
      <point x="229.4" y="1618.0"/>
      <point x="367.6" y="1547.0"/>
      <point x="462.9" y="1462.0" type="curve"/>
      <point x="474.2" y="1652.0" type="line"/>
      <point x="227.1" y="1390.0" type="line"/>
      <point x="340.0" y="1291.0" type="line"/>
      <point x="581.5" y="1559.0" type="line"/>
      <point x="394.5" y="1506.0" type="line"/>
      <point x="554.9" y="1411.0"/>
      <point x="667.5" y="1282.0"/>
      <point x="713.0" y="1108.0" type="curve"/>
      <point x="674.5" y="1126.0"/>
      <point x="614.7" y="1140.0"/>
      <point x="542.3" y="1140.0" type="curve" smooth="yes"/>
      <point x="304.8" y="1140.0"/>
      <point x="65.0" y="950.0"/>
      <point x="65.0" y="536.0" type="curve" smooth="yes"/>
      <point x="65.0" y="214.0"/>
      <point x="237.4" y="-22.0"/>
    </contour>
    <contour>
      <point x="574.5" y="120.0" type="curve" smooth="yes"/>
      <point x="442.0" y="120.0"/>
      <point x="395.5" y="351.0"/>
      <point x="395.5" y="570.0" type="curve" smooth="yes"/>
      <point x="395.5" y="880.0"/>
      <point x="463.9" y="1006.0"/>
      <point x="575.5" y="1006.0" type="curve" smooth="yes"/>
      <point x="653.9" y="1006.0"/>
      <point x="713.0" y="969.0"/>
      <point x="729.3" y="953.0" type="curve"/>
      <point x="742.9" y="903.0"/>
      <point x="755.2" y="765.0"/>
      <point x="755.2" y="616.0" type="curve" smooth="yes"/>
      <point x="755.2" y="270.0"/>
      <point x="691.1" y="120.0"/>
    </contour>
  </outline>
</glyph>
<glyph name="divide" format="2">
  <advance width="1168.9"/>
  <unicode hex="00F7"/>
  <outline>
    <contour>
      <point x="573.4" y="905.0" type="curve" smooth="yes"/>
      <point x="664.2" y="905.0"/>
      <point x="730.6" y="956.6"/>
      <point x="730.6" y="1045.6" type="curve" smooth="yes"/>
      <point x="730.6" y="1113.4"/>
      <point x="681.4" y="1176.6"/>
      <point x="595.2" y="1176.6" type="curve" smooth="yes"/>
      <point x="512.6" y="1176.6"/>
      <point x="441.6" y="1116.7"/>
      <point x="441.6" y="1035.0" type="curve" smooth="yes"/>
      <point x="441.6" y="957.6"/>
      <point x="505.0" y="905.0"/>
    </contour>
    <contour>
      <point x="988.9" y="727.5" type="line"/>
      <point x="180.0" y="727.5" type="line"/>
      <point x="180.0" y="607.9" type="line"/>
      <point x="988.9" y="607.9" type="line"/>
    </contour>
    <contour>
      <point x="438.9" y="306.4" type="curve" smooth="yes"/>
      <point x="438.9" y="229.29999999999998"/>
      <point x="502.6" y="176.7"/>
      <point x="570.4" y="176.7" type="curve" smooth="yes"/>
      <point x="661.2" y="176.7"/>
      <point x="728.2" y="228.0"/>
      <point x="728.2" y="317.6" type="curve" smooth="yes"/>
      <point x="728.2" y="385.1"/>
      <point x="678.7" y="448.0"/>
      <point x="592.8" y="448.0" type="curve" smooth="yes"/>
      <point x="509.6" y="448.0"/>
      <point x="438.9" y="388.7"/>
    </contour>
  </outline>
</glyph>
<glyph name="oslash" format="2">
  <advance width="993.8"/>
  <unicode hex="00F8"/>
  <anchor x="496.9" y="0.0" name="bottom"/>
  <anchor x="496.9" y="518.9" name="center"/>
  <anchor x="664.2" y="10.0" name="ogonek"/>
  <anchor x="497.6" y="1110.6" name="top"/>
  <anchor x="772.9" y="1037.1" name="topright"/>
  <outline>
    <contour>
      <point x="215.8" y="-185.0" type="line"/>
      <point x="363.8" y="-233.0" type="line"/>
      <point x="449.8" y="-11.000000000000004" type="line"/>
      <point x="453.8" y="63.20000000000002" type="line"/>
      <point x="716.1" y="874.1" type="line"/>
      <point x="812.7" y="1001.4" type="line"/>
      <point x="899.2" y="1237.5" type="line"/>
      <point x="746.2" y="1283.5" type="line"/>
      <point x="664.3" y="1053.3" type="line"/>
      <point x="654.5" y="975.8" type="line"/>
      <point x="388.0" y="156.0" type="line"/>
      <point x="296.8" y="36.0" type="line"/>
    </contour>
    <component base="o"/>
  </outline>
</glyph>
<glyph name="thorn" format="2">
  <advance width="1071.1"/>
  <unicode hex="00FE"/>
  <outline>
    <contour>
      <point x="14.5" y="-471.4" type="line"/>
      <point x="560.7" y="-471.4" type="line"/>
      <point x="560.7" y="-408.2" type="line"/>
      <point x="423.70000000000005" y="-376.9" type="line"/>
      <point x="423.4" y="-155.3" type="line"/>
      <point x="421.9" y="-5.899999999999999" type="line"/>
      <point x="446.3" y="-13.400000000000002"/>
      <point x="485.8" y="-23.4"/>
      <point x="524.2" y="-23.4" type="curve" smooth="yes"/>
      <point x="821.9" y="-23.4"/>
      <point x="1032.8" y="197.4"/>
      <point x="1032.8" y="580.8" type="curve" smooth="yes"/>
      <point x="1032.8" y="900.0"/>
      <point x="897.8" y="1071.4"/>
      <point x="687.5" y="1071.4" type="curve" smooth="yes"/>
      <point x="566.0" y="1071.4"/>
      <point x="447.3" y="990.4"/>
      <point x="421.3" y="931.6" type="curve"/>
      <point x="421.3" y="1603.5" type="line"/>
      <point x="379.4" y="1639.0" type="line"/>
      <point x="330.6" y="1639.0" type="line"/>
      <point x="-10.2" y="1544.4" type="line"/>
      <point x="-10.2" y="1482.6" type="line"/>
      <point x="104.5" y="1441.6" type="line"/>
      <point x="105.2" y="-376.9" type="line"/>
      <point x="14.5" y="-408.2" type="line"/>
    </contour>
    <contour>
      <point x="523.7" y="59.3" type="curve" smooth="yes"/>
      <point x="475.40000000000003" y="59.3"/>
      <point x="437.5" y="84.30000000000001"/>
      <point x="422.70000000000005" y="122.9" type="curve"/>
      <point x="421.3" y="834.0" type="line"/>
      <point x="436.3" y="859.5"/>
      <point x="474.4" y="911.8"/>
      <point x="535.5" y="911.8" type="curve" smooth="yes"/>
      <point x="618.3" y="911.8"/>
      <point x="688.1" y="824.4"/>
      <point x="687.2" y="517.4" type="curve" smooth="yes"/>
      <point x="686.3" y="230.5"/>
      <point x="638.4" y="59.3"/>
    </contour>
  </outline>
</glyph>
<glyph name="eogonek" format="2">
  <advance width="1057.7"/>
  <unicode hex="0119"/>
  <anchor x="674.5" y="20.0" name="_ogonek"/>
  <anchor x="531.5" y="0.0" name="bottom"/>
  <anchor x="532.5" y="-166.0" name="mark0"/>
  <anchor x="674.5" y="20.0" name="ogonek"/>
  <anchor x="558.5" y="1111.0" name="top"/>
  <outline>
    <contour>
      <point x="593.5" y="-483.0" type="curve" smooth="yes"/>
      <point x="695.5" y="-483.0"/>
      <point x="799.5" y="-446.0"/>
      <point x="872.5" y="-391.0" type="curve"/>
      <point x="870.5" y="-269.0" type="line"/>
      <point x="827.5" y="-286.0"/>
      <point x="778.5" y="-307.0"/>
      <point x="720.5" y="-307.0" type="curve" smooth="yes"/>
      <point x="636.5" y="-307.0"/>
      <point x="592.5" y="-267.0"/>
      <point x="592.5" y="-201.0" type="curve" smooth="yes"/>
      <point x="592.5" y="-118.0"/>
      <point x="685.5" y="-26.0"/>
      <point x="796.5" y="18.0" type="curve"/>
      <point x="894.5" y="52.0"/>
      <point x="973.5" y="106.0"/>
      <point x="1008.5" y="141.0" type="curve"/>
      <point x="952.5" y="262.0" type="line"/>
      <point x="892.5" y="224.0"/>
      <point x="772.5" y="179.0"/>
      <point x="666.5" y="179.0" type="curve" smooth="yes"/>
      <point x="488.5" y="179.0"/>
      <point x="392.5" y="302.0"/>
      <point x="378.5" y="528.0" type="curve"/>
      <point x="1005.5" y="528.0" type="line"/>
      <point x="1016.5" y="579.0"/>
      <point x="1022.5" y="643.0"/>
      <point x="1022.5" y="734.0" type="curve"/>
      <point x="1017.5" y="989.0"/>
      <point x="870.5" y="1140.0"/>
      <point x="587.5" y="1140.0" type="curve" smooth="yes"/>
      <point x="256.5" y="1140.0"/>
      <point x="39.5" y="926.0"/>
      <point x="39.5" y="556.0" type="curve" smooth="yes"/>
      <point x="39.5" y="230.0"/>
      <point x="182.5" y="-3.0"/>
      <point x="530.5" y="-21.0" type="curve"/>
      <point x="401.5" y="-91.0"/>
      <point x="331.5" y="-188.0"/>
      <point x="331.5" y="-284.0" type="curve" smooth="yes"/>
      <point x="331.5" y="-424.0"/>
      <point x="471.5" y="-483.0"/>
    </contour>
    <contour>
      <point x="376.5" y="661.0" type="line"/>
      <point x="382.5" y="940.0"/>
      <point x="455.5" y="1001.0"/>
      <point x="557.5" y="1001.0" type="curve" smooth="yes"/>
      <point x="670.5" y="1001.0"/>
      <point x="706.5" y="901.0"/>
      <point x="707.5" y="744.0" type="curve" smooth="yes"/>
      <point x="707.5" y="716.0"/>
      <point x="705.5" y="689.0"/>
      <point x="704.5" y="661.0" type="curve"/>
    </contour>
  </outline>
</glyph>
<glyph name="hbar" format="2">
  <advance width="1060.1"/>
  <unicode hex="0127"/>
  <anchor x="547.8" y="0.0" name="bottom"/>
  <anchor x="538.1" y="58.799999999999955" name="center"/>
  <anchor x="239.7" y="1596.7" name="top"/>
  <outline>
    <contour>
      <point x="454.9" y="1309.7" type="line"/>
      <point x="37.0" y="1269.8" type="line"/>
      <point x="283.30000000000007" y="1223.6" type="line"/>
      <point x="701.2" y="1263.5" type="line"/>
    </contour>
    <component base="h"/>
  </outline>
</glyph>
<glyph name="Iogonek" format="2">
  <advance width="664.0"/>
  <unicode hex="012E"/>
  <anchor x="331.4" y="-114.20000000000002" name="bottom"/>
  <anchor x="331.0" y="-51.79999999999998" name="mark0"/>
  <anchor x="607.5" y="20.0" name="ogonek"/>
  <anchor x="330.2" y="1486.0" name="top"/>
  <anchor x="44.0" y="1486.0" name="topleft"/>
  <outline>
    <contour>
      <point x="451.8" y="42.6" type="line"/>
      <point x="350.9" y="0.0" type="line"/>
      <point x="189.9" y="-64.0"/>
      <point x="69.9" y="-184.0"/>
      <point x="69.9" y="-301.0" type="curve" smooth="yes"/>
      <point x="69.9" y="-427.0"/>
      <point x="184.9" y="-501.0"/>
      <point x="347.9" y="-501.0" type="curve" smooth="yes"/>
      <point x="429.9" y="-501.0"/>
      <point x="541.9" y="-478.0"/>
      <point x="597.9" y="-436.0" type="curve"/>
      <point x="597.9" y="-296.0" type="line"/>
      <point x="552.9" y="-315.0"/>
      <point x="525.9" y="-322.0"/>
      <point x="478.9" y="-322.0" type="curve" smooth="yes"/>
      <point x="383.9" y="-322.0"/>
      <point x="332.9" y="-283.0"/>
      <point x="332.9" y="-215.0" type="curve" smooth="yes"/>
      <point x="332.9" y="-147.0"/>
      <point x="416.9" y="-47.0"/>
      <point x="541.9" y="0.0" type="curve"/>
    </contour>
    <component base="I"/>
  </outline>
</glyph>
<glyph name="iogonek" format="2">
  <advance width="540.8"/>
  <unicode hex="012F"/>
  <anchor x="299.0" y="0.0" name="bottom"/>
  <anchor x="360.5" y="-166.0" name="mark0"/>
  <anchor x="405.9" y="20.0" name="ogonek"/>
  <anchor x="279.4" y="1548.6" name="top"/>
  <outline>
    <contour>
      <point x="268.3" y="-483.0" type="curve" smooth="yes"/>
      <point x="361.2" y="-483.0"/>
      <point x="453.4" y="-449.0"/>
      <point x="503.5" y="-408.0" type="curve"/>
      <point x="504.5" y="-269.0" type="line"/>
      <point x="465.7" y="-286.0"/>
      <point x="435.5" y="-307.0"/>
      <point x="383.1" y="-307.0" type="curve" smooth="yes"/>
      <point x="312.1" y="-307.0"/>
      <point x="271.3" y="-265.0"/>
      <point x="271.3" y="-201.0" type="curve" smooth="yes"/>
      <point x="271.3" y="-138.0"/>
      <point x="317.4" y="-53.0"/>
      <point x="417.6" y="0.0" type="curve"/>
      <point x="316.2" y="46.7" type="line"/>
      <point x="244.1" y="0.0" type="line"/>
      <point x="104.1" y="-69.0"/>
      <point x="34.099999999999994" y="-185.0"/>
      <point x="34.099999999999994" y="-284.0" type="curve" smooth="yes"/>
      <point x="34.099999999999994" y="-423.0"/>
      <point x="161.5" y="-483.0"/>
    </contour>
    <component base="i"/>
  </outline>
</glyph>
<glyph name="idotless" format="2">
  <advance width="543.8"/>
  <unicode hex="0131"/>
  <anchor x="299.0" y="0.0" name="bottom"/>
  <anchor x="360.5" y="-166.0" name="mark0"/>
  <anchor x="405.9" y="20.0" name="ogonek"/>
  <anchor x="279.4" y="1110.6" name="top"/>
  <outline>
    <contour>
      <point x="124.30000000000001" y="96.10000000000001" type="line"/>
      <point x="43.7" y="65.9" type="line"/>
      <point x="43.7" y="0.0" type="line"/>
      <point x="528.7" y="0.0" type="line"/>
      <point x="528.7" y="65.9" type="line"/>
      <point x="439.4" y="93.7" type="line"/>
      <point x="439.4" y="1021.8" type="line"/>
      <point x="397.2" y="1064.5" type="line"/>
      <point x="346.6" y="1065.9" type="line"/>
      <point x="22.200000000000003" y="969.6" type="line"/>
      <point x="22.200000000000003" y="899.3" type="line"/>
      <point x="124.30000000000001" y="854.7" type="line"/>
    </contour>
  </outline>
</glyph>
<glyph name="Ldot" format="2">
  <advance width="1560.0"/>
  <unicode hex="013F"/>
  <anchor x="688.0" y="-166.0" name="mark0"/>
  <anchor x="669.3" y="0.0" name="bottom"/>
  <anchor x="640.3" y="744.0" name="center"/>
  <anchor x="407.3" y="1486.0" name="top"/>
  <anchor x="988.3" y="1111.0" name="topright"/>
  <outline>
    <contour>
      <point x="1130.0" y="693.0" type="curve" smooth="yes"/>
      <point x="1251.0" y="693.0"/>
      <point x="1336.0" y="759.0"/>
      <point x="1336.0" y="874.0" type="curve" smooth="yes"/>
      <point x="1336.0" y="960.0"/>
      <point x="1272.0" y="1042.0"/>
      <point x="1161.0" y="1042.0" type="curve" smooth="yes"/>
      <point x="1050.0" y="1042.0"/>
      <point x="960.0" y="968.0"/>
      <point x="960.0" y="860.0" type="curve" smooth="yes"/>
      <point x="960.0" y="762.0"/>
      <point x="1042.0" y="693.0"/>
    </contour>
    <component base="L"/>
  </outline>
</glyph>
<glyph name="lslash" format="2">
  <advance width="823.0"/>
  <unicode hex="0142"/>
  <anchor x="412.9" y="0.0" name="bottom"/>
  <anchor x="397.0" y="-166.0" name="mark0"/>
  <anchor x="393.2" y="1634.0" name="top"/>
  <anchor x="699.4" y="1111.0" name="topright"/>
  <outline>
    <contour>
      <point x="252.0" y="890.0" type="line"/>
      <point x="65.0" y="805.0" type="line"/>
      <point x="65.0" y="652.0" type="line"/>
      <point x="252.0" y="735.0" type="line"/>
      <point x="542.0" y="860.9" type="line"/>
      <point x="747.0" y="953.9" type="line"/>
      <point x="747.0" y="1116.9" type="line"/>
      <point x="542.0" y="1019.9" type="line"/>
    </contour>
    <component base="l" xOffset="141.2"/>
  </outline>
</glyph>
<glyph name="eng" format="2">
  <advance width="1317.4"/>
  <unicode hex="014B"/>
  <outline>
    <contour>
      <point x="141.4" y="151.0" type="line"/>
      <point x="32.400000000000006" y="132.0" type="line"/>
      <point x="32.400000000000006" y="0.0" type="line"/>
      <point x="584.4" y="0.0" type="line"/>
      <point x="584.4" y="132.0" type="line"/>
      <point x="475.4" y="151.0" type="line"/>
      <point x="475.4" y="861.0" type="line"/>
      <point x="517.4" y="894.0"/>
      <point x="594.4" y="946.0"/>
      <point x="679.4" y="946.0" type="curve" smooth="yes"/>
      <point x="799.4" y="946.0"/>
      <point x="832.4" y="879.0"/>
      <point x="832.4" y="702.0" type="curve" smooth="yes"/>
      <point x="832.4" y="44.0" type="line" smooth="yes"/>
      <point x="832.4" y="-153.0"/>
      <point x="822.4" y="-311.0"/>
      <point x="708.4" y="-358.0" type="curve"/>
      <point x="681.4" y="-371.0"/>
      <point x="622.4" y="-381.0"/>
      <point x="602.4" y="-379.0" type="curve"/>
      <point x="611.4" y="-513.0" type="line"/>
      <point x="622.4" y="-521.0"/>
      <point x="703.4" y="-523.0"/>
      <point x="719.4" y="-521.0" type="curve"/>
      <point x="1016.4" y="-514.0"/>
      <point x="1166.4" y="-310.0"/>
      <point x="1166.4" y="22.0" type="curve" smooth="yes"/>
      <point x="1166.4" y="702.0" type="line" smooth="yes"/>
      <point x="1166.4" y="1014.0"/>
      <point x="1081.4" y="1137.0"/>
      <point x="845.4" y="1137.0" type="curve" smooth="yes"/>
      <point x="679.4" y="1137.0"/>
      <point x="529.4" y="1057.0"/>
      <point x="442.4" y="978.0" type="curve"/>
      <point x="444.4" y="1031.0" type="line"/>
      <point x="444.4" y="1097.0" type="line"/>
      <point x="391.4" y="1140.0" type="line"/>
      <point x="387.4" y="1140.0" type="line"/>
      <point x="20.4" y="1097.0" type="line"/>
      <point x="20.4" y="940.0" type="line"/>
      <point x="141.4" y="903.0" type="line"/>
    </contour>
  </outline>
</glyph>
<glyph name="OE" format="2">
  <advance width="2073.1"/>
  <unicode hex="0152"/>
  <outline>
    <contour>
      <point x="940.8" y="43.0" type="curve"/>
      <point x="940.8" y="0.0" type="line"/>
      <point x="1976.8" y="0.0" type="line"/>
      <point x="2043.8" y="372.0" type="line"/>
      <point x="1881.8" y="418.0" type="line"/>
      <point x="1741.8" y="165.0" type="line"/>
      <point x="1290.8" y="138.0" type="line"/>
      <point x="1290.8" y="682.0" type="line"/>
      <point x="1536.8" y="676.0" type="line"/>
      <point x="1569.8" y="502.0" type="line"/>
      <point x="1716.8" y="502.0" type="line"/>
      <point x="1716.8" y="1003.0" type="line"/>
      <point x="1569.8" y="1003.0" type="line"/>
      <point x="1536.8" y="842.0" type="line"/>
      <point x="1290.8" y="835.0" type="line"/>
      <point x="1290.8" y="1355.0" type="line"/>
      <point x="1689.8" y="1333.0" type="line"/>
      <point x="1756.8" y="1131.0" type="line"/>
      <point x="1915.8" y="1131.0" type="line"/>
      <point x="1887.8" y="1486.0" type="line"/>
      <point x="940.8" y="1486.0" type="line"/>
      <point x="940.8" y="1471.0" type="line"/>
      <point x="876.8" y="1497.0"/>
      <point x="805.8" y="1509.0"/>
      <point x="728.8" y="1509.0" type="curve" smooth="yes"/>
      <point x="298.8" y="1505.0"/>
      <point x="35.8" y="1207.0"/>
      <point x="35.8" y="741.0" type="curve" smooth="yes"/>
      <point x="35.8" y="293.0"/>
      <point x="246.8" y="-18.0"/>
      <point x="707.8" y="-16.0" type="curve"/>
      <point x="792.8" y="-15.0"/>
      <point x="869.8" y="4.0"/>
    </contour>
    <contour>
      <point x="716.8" y="113.0" type="curve" smooth="yes"/>
      <point x="525.8" y="113.0"/>
      <point x="410.79999999999995" y="318.0"/>
      <point x="410.79999999999995" y="743.0" type="curve" smooth="yes"/>
      <point x="410.79999999999995" y="1164.0"/>
      <point x="520.8" y="1377.0"/>
      <point x="713.8" y="1377.0" type="curve" smooth="yes"/>
      <point x="821.8" y="1377.0"/>
      <point x="896.8" y="1334.0"/>
      <point x="940.8" y="1192.0" type="curve"/>
      <point x="940.8" y="341.0" type="line"/>
      <point x="895.8" y="201.0"/>
      <point x="822.8" y="113.0"/>
    </contour>
  </outline>
</glyph>
<glyph name="oe" format="2">
  <advance width="1657.0"/>
  <unicode hex="0153"/>
  <anchor x="1045.8" y="-166.0" name="mark0"/>
  <outline>
    <contour>
      <point x="526.4" y="-23.4" type="curve" smooth="yes"/>
      <point x="657.9" y="-23.4"/>
      <point x="779.1" y="10.900000000000006"/>
      <point x="871.5" y="85.60000000000001" type="curve"/>
      <point x="949.3" y="15.599999999999994"/>
      <point x="1060.6" y="-23.4"/>
      <point x="1211.8" y="-23.4" type="curve" smooth="yes"/>
      <point x="1384.2" y="-23.4"/>
      <point x="1550.0" y="67.7"/>
      <point x="1602.6" y="130.2" type="curve"/>
      <point x="1568.2" y="205.4" type="line"/>
      <point x="1514.0" y="163.9"/>
      <point x="1408.1" y="134.3"/>
      <point x="1331.7" y="134.3" type="curve" smooth="yes"/>
      <point x="1170.3" y="134.3"/>
      <point x="1083.4" y="248.1"/>
      <point x="1071.6" y="510.1" type="curve"/>
      <point x="1611.6" y="510.1" type="line"/>
      <point x="1621.3" y="542.9"/>
      <point x="1627.6" y="600.5"/>
      <point x="1627.6" y="692.7" type="curve" smooth="yes"/>
      <point x="1623.6" y="937.6"/>
      <point x="1476.6" y="1071.4"/>
      <point x="1221.0" y="1071.4" type="curve" smooth="yes"/>
      <point x="1093.0" y="1071.4"/>
      <point x="984.4" y="1032.3"/>
      <point x="901.9" y="960.5" type="curve"/>
      <point x="822.1" y="1032.9"/>
      <point x="710.1" y="1069.3"/>
      <point x="568.3" y="1069.3" type="curve" smooth="yes"/>
      <point x="282.6" y="1069.3"/>
      <point x="37.5" y="892.7"/>
      <point x="37.5" y="511.5" type="curve" smooth="yes"/>
      <point x="37.5" y="155.39999999999998"/>
      <point x="211.4" y="-23.4"/>
    </contour>
    <contour>
      <point x="406.0" y="537.6" type="curve" smooth="yes"/>
      <point x="406.0" y="854.5"/>
      <point x="450.9" y="988.7"/>
      <point x="550.5" y="988.7" type="curve" smooth="yes"/>
      <point x="662.5" y="988.7"/>
      <point x="689.8" y="827.6"/>
      <point x="689.8" y="505.5" type="curve" smooth="yes"/>
      <point x="689.8" y="182.4"/>
      <point x="651.8" y="57.2"/>
      <point x="551.9" y="57.2" type="curve" smooth="yes"/>
      <point x="440.6" y="57.2"/>
      <point x="406.0" y="209.2"/>
    </contour>
    <contour>
      <point x="1069.3" y="587.5" type="line"/>
      <point x="1077.2" y="913.4"/>
      <point x="1131.0" y="990.8"/>
      <point x="1200.1" y="990.8" type="curve" smooth="yes"/>
      <point x="1276.9" y="990.8"/>
      <point x="1292.2" y="891.9"/>
      <point x="1292.2" y="705.5" type="curve" smooth="yes"/>
      <point x="1292.2" y="678.9"/>
      <point x="1290.5" y="623.2"/>
      <point x="1290.5" y="596.6" type="curve"/>
    </contour>
  </outline>
</glyph>
<glyph name="Schwa" format="2">
  <advance width="1246.3"/>
  <unicode hex="018F"/>
  <outline>
    <contour>
      <point x="589.2" y="-22.0" type="curve" smooth="yes"/>
      <point x="992.4" y="-22.0"/>
      <point x="1210.5" y="284.1"/>
      <point x="1210.5" y="785.4" type="curve" smooth="yes"/>
      <point x="1210.5" y="1248.6"/>
      <point x="993.5" y="1505.5"/>
      <point x="621.8" y="1505.5" type="curve" smooth="yes"/>
      <point x="341.9" y="1505.5"/>
      <point x="249.1" y="1434.2"/>
      <point x="101.0" y="1432.4" type="curve"/>
      <point x="128.4" y="1051.8" type="line"/>
      <point x="348.2" y="1049.1" type="line"/>
      <point x="389.9" y="1288.6" type="line"/>
      <point x="407.6" y="1358.6"/>
      <point x="451.4" y="1417.1"/>
      <point x="607.9" y="1417.1" type="curve" smooth="yes"/>
      <point x="769.9" y="1417.1"/>
      <point x="849.3" y="1189.6"/>
      <point x="853.5" y="800.6" type="curve"/>
      <point x="56.900000000000006" y="802.6" type="line"/>
      <point x="46.6" y="751.6"/>
      <point x="39.6" y="623.9"/>
      <point x="39.6" y="597.5" type="curve"/>
      <point x="42.60000000000001" y="133.7"/>
      <point x="283.6" y="-22.0"/>
    </contour>
    <contour>
      <point x="599.0" y="71.7" type="curve" smooth="yes"/>
      <point x="458.3" y="71.7"/>
      <point x="381.7" y="282.6"/>
      <point x="381.7" y="570.2" type="curve" smooth="yes"/>
      <point x="381.7" y="644.8"/>
      <point x="382.7" y="671.0"/>
      <point x="385.7" y="707.0" type="curve"/>
      <point x="853.0" y="706.4" type="line"/>
      <point x="852.4" y="263.5"/>
      <point x="791.8" y="71.7"/>
    </contour>
  </outline>
</glyph>
<glyph name="Gstroke" format="2">
  <advance width="1257.5"/>
  <unicode hex="01E4"/>
  <anchor x="724.6" y="0.0" name="bottom"/>
  <anchor x="734.6" y="-166.0" name="mark0"/>
  <anchor x="784.6" y="1486.0" name="top"/>
  <outline>
    <contour>
      <point x="1237.7" y="445.3" type="line"/>
      <point x="722.8" y="445.3" type="line"/>
      <point x="722.8" y="352.9" type="line"/>
      <point x="1237.7" y="352.9" type="line"/>
    </contour>
    <component base="G"/>
  </outline>
</glyph>
<glyph name="gstroke" format="2">
  <advance width="1081.9"/>
  <unicode hex="01E5"/>
  <anchor x="520.8" y="0.0" name="bottom"/>
  <anchor x="524.8" y="1111.0" name="top"/>
  <outline>
    <contour>
      <point x="1094.7" y="-171.1" type="line"/>
      <point x="-36.9" y="-171.1" type="line"/>
      <point x="-36.9" y="-253.3" type="line"/>
      <point x="1094.7" y="-253.3" type="line"/>
    </contour>
    <component base="g"/>
  </outline>
</glyph>
<glyph name="ezh" format="2">
  <advance width="979.0"/>
  <unicode hex="0292"/>
  <anchor x="490.2" y="1110.0" name="top"/>
  <outline>
    <contour>
      <point x="559.7" y="394.8" type="curve"/>
      <point x="945.2" y="961.2" type="line"/>
      <point x="916.6" y="1036.8" type="line"/>
      <point x="70.0" y="1036.8" type="line"/>
      <point x="61.7" y="675.4" type="line"/>
      <point x="237.4" y="675.4" type="line"/>
      <point x="295.8" y="937.8" type="line"/>
      <point x="627.1" y="951.3" type="line"/>
      <point x="248.8" y="370.2" type="line"/>
      <point x="299.1" y="315.6" type="line"/>
      <point x="611.6" y="346.0"/>
      <point x="617.4" y="147.1"/>
      <point x="617.4" y="-9.1" type="curve" smooth="yes"/>
      <point x="617.4" y="-238.0"/>
      <point x="508.1" y="-368.5"/>
      <point x="381.3" y="-368.5" type="curve" smooth="yes"/>
      <point x="331.1" y="-368.5"/>
      <point x="282.9" y="-349.1"/>
      <point x="256.5" y="-321.1" type="curve"/>
      <point x="185.2" y="-31.900000000000006" type="line"/>
      <point x="28.299999999999997" y="-31.900000000000006" type="line"/>
      <point x="44.5" y="-370.1" type="line"/>
      <point x="100.10000000000001" y="-380.3"/>
      <point x="233.7" y="-449.8"/>
      <point x="397.3" y="-449.8" type="curve" smooth="yes"/>
      <point x="743.8" y="-449.8"/>
      <point x="955.1" y="-283.9"/>
      <point x="955.1" y="14.600000000000001" type="curve" smooth="yes"/>
      <point x="955.1" y="253.6"/>
      <point x="788.5" y="403.6"/>
    </contour>
  </outline>
</glyph>
<glyph name="ringhalfright" format="2">
  <unicode hex="02BE"/>
  <outline>
    <contour>
      <point x="0.0" y="1273.0" type="line"/>
      <point x="188.0" y="1273.0"/>
      <point x="317.0" y="1374.0"/>
      <point x="314.0" y="1542.0" type="curve" smooth="yes"/>
      <point x="310.0" y="1707.0"/>
      <point x="173.0" y="1805.0"/>
      <point x="0.0" y="1809.0" type="curve"/>
      <point x="0.0" y="1681.0" type="line"/>
      <point x="89.0" y="1679.0"/>
      <point x="145.0" y="1627.0"/>
      <point x="145.0" y="1543.0" type="curve" smooth="yes"/>
      <point x="145.0" y="1463.0"/>
      <point x="100.0" y="1398.0"/>
      <point x="0.0" y="1398.0" type="curve"/>
    </contour>
  </outline>
</glyph>
<glyph name="ringhalfleft" format="2">
  <unicode hex="02BF"/>
  <anchor x="0.0" y="1110.0" name="_top"/>
  <anchor x="0.0" y="1700.0" name="top"/>
  <outline>
    <contour>
      <point x="0.0" y="1164.3" type="curve"/>
      <point x="0.0" y="1240.8" type="line"/>
      <point x="-61.4" y="1244.3"/>
      <point x="-95.1" y="1306.9"/>
      <point x="-95.1" y="1421.8" type="curve" smooth="yes"/>
      <point x="-95.1" y="1532.5"/>
      <point x="-61.4" y="1606.3"/>
      <point x="0.0" y="1609.8" type="curve"/>
      <point x="0.0" y="1686.3" type="line"/>
      <point x="-131.3" y="1686.3"/>
      <point x="-269.0" y="1579.9"/>
      <point x="-269.0" y="1411.3" type="curve" smooth="yes"/>
      <point x="-269.0" y="1256.0"/>
      <point x="-161.4" y="1164.3"/>
    </contour>
  </outline>
</glyph>
<glyph name="gravecomb" format="2">
  <unicode hex="0300"/>
  <anchor x="0.0" y="1110.0" name="_top"/>
  <anchor x="0.0" y="1797.0" name="top"/>
  <outline>
    <contour>
      <point x="111.1" y="1162.9" type="curve"/>
      <point x="113.1" y="1162.9" type="line"/>
      <point x="174.6" y="1215.4" type="line"/>
      <point x="-84.8" y="1655.6" type="line"/>
      <point x="-294.9" y="1503.3" type="line"/>
      <point x="-203.1" y="1373.8"/>
      <point x="-17.299999999999997" y="1221.8"/>
    </contour>
  </outline>
</glyph>
<glyph name="acutecomb" format="2">
  <unicode hex="0301"/>
  <anchor x="0.0" y="1110.0" name="_top"/>
  <anchor x="0.0" y="1603.0" name="top"/>
  <outline>
    <contour>
      <point x="-111.1" y="1162.9" type="line"/>
      <point x="17.300000000000004" y="1221.8"/>
      <point x="203.1" y="1373.8"/>
      <point x="294.9" y="1503.3" type="curve"/>
      <point x="84.80000000000001" y="1655.6" type="line"/>
      <point x="-174.6" y="1215.4" type="line"/>
      <point x="-113.1" y="1162.9" type="line"/>
    </contour>
  </outline>
</glyph>
<glyph name="tildecomb" format="2">
  <unicode hex="0303"/>
  <anchor x="0.0" y="1110.0" name="_top"/>
  <anchor x="0.0" y="1562.0" name="top"/>
  <outline>
    <contour>
      <point x="-323.8" y="1245.5" type="curve"/>
      <point x="-252.3" y="1216.6" type="line"/>
      <point x="-227.9" y="1299.6"/>
      <point x="-200.2" y="1328.3"/>
      <point x="-151.0" y="1328.3" type="curve" smooth="yes"/>
      <point x="-67.6" y="1328.3"/>
      <point x="-18.9" y="1182.9"/>
      <point x="113.9" y="1182.9" type="curve" smooth="yes"/>
      <point x="239.4" y="1182.9"/>
      <point x="313.3" y="1305.4"/>
      <point x="323.8" y="1474.6" type="curve"/>
      <point x="252.3" y="1503.5" type="line"/>
      <point x="227.9" y="1420.5"/>
      <point x="200.2" y="1391.8"/>
      <point x="151.0" y="1391.8" type="curve" smooth="yes"/>
      <point x="67.6" y="1391.8"/>
      <point x="18.9" y="1537.2"/>
      <point x="-113.9" y="1537.2" type="curve" smooth="yes"/>
      <point x="-239.4" y="1537.2"/>
      <point x="-313.3" y="1414.7"/>
    </contour>
  </outline>
</glyph>
<glyph name="brevecomb" format="2">
  <unicode hex="0306"/>
  <anchor x="0.0" y="1110.0" name="_top"/>
  <anchor x="0.0" y="1738.0" name="top"/>
  <outline>
    <contour>
      <point x="0.0" y="1252.9" type="curve" smooth="yes"/>
      <point x="172.8" y="1252.9"/>
      <point x="289.9" y="1394.6"/>
      <point x="289.9" y="1590.0" type="curve" smooth="yes"/>
      <point x="289.9" y="1620.0"/>
      <point x="288.6" y="1639.3"/>
      <point x="285.6" y="1660.3" type="curve"/>
      <point x="199.8" y="1660.3" type="line"/>
      <point x="199.8" y="1647.3"/>
      <point x="199.1" y="1630.9"/>
      <point x="195.7" y="1613.1" type="curve" smooth="yes"/>
      <point x="179.0" y="1521.6"/>
      <point x="111.0" y="1464.1"/>
      <point x="0.0" y="1464.1" type="curve" smooth="yes"/>
      <point x="-111.0" y="1464.1"/>
      <point x="-179.0" y="1521.6"/>
      <point x="-195.7" y="1613.1" type="curve" smooth="yes"/>
      <point x="-199.1" y="1630.9"/>
      <point x="-199.8" y="1647.3"/>
      <point x="-199.8" y="1660.3" type="curve"/>
      <point x="-285.6" y="1660.3" type="line"/>
      <point x="-288.6" y="1639.3"/>
      <point x="-289.9" y="1620.0"/>
      <point x="-289.9" y="1590.0" type="curve" smooth="yes"/>
      <point x="-289.9" y="1394.6"/>
      <point x="-172.8" y="1252.9"/>
    </contour>
  </outline>
</glyph>
<glyph name="dieresiscomb" format="2">
  <unicode hex="0308"/>
  <anchor x="0.0" y="1110.0" name="_top"/>
  <anchor x="0.0" y="1504.0" name="top"/>
  <outline>
    <contour>
      <point x="-210.7" y="1182.9" type="curve" smooth="yes"/>
      <point x="-208.7" y="1182.9" type="line" smooth="yes"/>
      <point x="-110.6" y="1182.9"/>
      <point x="-50.0" y="1276.6"/>
      <point x="-50.0" y="1374.6" type="curve" smooth="yes"/>
      <point x="-50.0" y="1466.7"/>
      <point x="-102.1" y="1531.0"/>
      <point x="-192.8" y="1531.0" type="curve" smooth="yes"/>
      <point x="-194.8" y="1531.0" type="line" smooth="yes"/>
      <point x="-291.5" y="1531.0"/>
      <point x="-353.5" y="1443.6"/>
      <point x="-353.5" y="1339.3" type="curve" smooth="yes"/>
      <point x="-353.5" y="1247.2"/>
      <point x="-301.4" y="1182.9"/>
    </contour>
    <contour>
      <point x="192.8" y="1182.9" type="curve" smooth="yes"/>
      <point x="194.8" y="1182.9" type="line" smooth="yes"/>
      <point x="292.9" y="1182.9"/>
      <point x="353.5" y="1276.6"/>
      <point x="353.5" y="1374.6" type="curve" smooth="yes"/>
      <point x="353.5" y="1466.7"/>
      <point x="301.4" y="1531.0"/>
      <point x="210.7" y="1531.0" type="curve" smooth="yes"/>
      <point x="208.7" y="1531.0" type="line" smooth="yes"/>
      <point x="112.0" y="1531.0"/>
      <point x="50.0" y="1443.6"/>
      <point x="50.0" y="1339.3" type="curve" smooth="yes"/>
      <point x="50.0" y="1247.2"/>
      <point x="102.1" y="1182.9"/>
    </contour>
  </outline>
</glyph>
<glyph name="hookabovecomb" format="2">
  <unicode hex="0309"/>
  <anchor x="0.0" y="1110.0" name="_top"/>
  <anchor x="0.0" y="1576.0" name="top"/>
  <outline>
    <contour>
      <point x="-46.900000000000006" y="1176.9" type="curve"/>
      <point x="38.6" y="1176.9" type="line"/>
      <point x="21.600000000000005" y="1251.9"/>
      <point x="29.200000000000003" y="1278.8"/>
      <point x="78.60000000000001" y="1317.4" type="curve" smooth="yes"/>
      <point x="152.9" y="1375.0"/>
      <point x="206.2" y="1421.4"/>
      <point x="206.2" y="1513.9" type="curve" smooth="yes"/>
      <point x="206.2" y="1635.5"/>
      <point x="89.2" y="1722.2"/>
      <point x="-54.6" y="1722.2" type="curve" smooth="yes"/>
      <point x="-106.3" y="1722.2"/>
      <point x="-154.6" y="1713.2"/>
      <point x="-192.9" y="1696.7" type="curve"/>
      <point x="-192.9" y="1523.7" type="line"/>
      <point x="-171.0" y="1535.6"/>
      <point x="-141.4" y="1541.2"/>
      <point x="-112.0" y="1541.2" type="curve" smooth="yes"/>
      <point x="-63.599999999999994" y="1541.2"/>
      <point x="-10.800000000000004" y="1516.1"/>
      <point x="-10.800000000000004" y="1460.1" type="curve" smooth="yes"/>
      <point x="-10.800000000000004" y="1380.7"/>
      <point x="-84.3" y="1353.4"/>
      <point x="-84.3" y="1276.6" type="curve" smooth="yes"/>
      <point x="-84.3" y="1233.2"/>
      <point x="-68.10000000000001" y="1207.3"/>
    </contour>
  </outline>
</glyph>
<glyph name="ringcomb" format="2">
  <unicode hex="030A"/>
  <anchor x="0.0" y="1110.0" name="_top"/>
  <anchor x="0.0" y="1700.0" name="top"/>
  <outline>
    <contour>
      <point x="-2.8" y="1164.3" type="curve" smooth="yes"/>
      <point x="136.2" y="1164.3"/>
      <point x="265.5" y="1270.7"/>
      <point x="265.5" y="1441.4" type="curve" smooth="yes"/>
      <point x="265.5" y="1594.6"/>
      <point x="145.3" y="1686.3"/>
      <point x="4.199999999999999" y="1686.3" type="curve" smooth="yes"/>
      <point x="-131.3" y="1686.3"/>
      <point x="-265.5" y="1579.9"/>
      <point x="-265.5" y="1409.2" type="curve" smooth="yes"/>
      <point x="-265.5" y="1256.0"/>
      <point x="-154.4" y="1164.3"/>
    </contour>
    <contour>
      <point x="0.0" y="1234.5" type="curve" smooth="yes"/>
      <point x="-57.9" y="1234.5"/>
      <point x="-91.6" y="1305.5"/>
      <point x="-91.6" y="1421.8" type="curve" smooth="yes"/>
      <point x="-91.6" y="1533.9"/>
      <point x="-57.9" y="1616.1"/>
      <point x="0.0" y="1616.1" type="curve" smooth="yes"/>
      <point x="57.9" y="1616.1"/>
      <point x="91.6" y="1545.1"/>
      <point x="91.6" y="1428.8" type="curve" smooth="yes"/>
      <point x="91.6" y="1316.7"/>
      <point x="57.9" y="1234.5"/>
    </contour>
  </outline>
</glyph>
<glyph name="hungarumlautcomb" format="2">
  <unicode hex="030B"/>
  <anchor x="0.0" y="1110.0" name="_top"/>
  <anchor x="0.0" y="1742.0" name="top"/>
  <outline>
    <contour>
      <point x="-219.1" y="1162.9" type="line"/>
      <point x="-114.4" y="1236.2"/>
      <point x="44.900000000000006" y="1405.1"/>
      <point x="114.6" y="1530.3" type="curve"/>
      <point x="-90.8" y="1655.6" type="line"/>
      <point x="-282.6" y="1215.4" type="line"/>
      <point x="-221.1" y="1162.9" type="line"/>
    </contour>
    <contour>
      <point x="144.8" y="1162.9" type="line"/>
      <point x="249.5" y="1236.2"/>
      <point x="408.8" y="1405.1"/>
      <point x="478.5" y="1530.3" type="curve"/>
      <point x="273.1" y="1655.6" type="line"/>
      <point x="81.3" y="1215.4" type="line"/>
      <point x="142.8" y="1162.9" type="line"/>
    </contour>
  </outline>
</glyph>
<glyph name="dblgravecomb" format="2">
  <unicode hex="030F"/>
  <anchor x="0.0" y="1110.0" name="_top"/>
  <anchor x="-10.199999999999989" y="1742.0" name="top"/>
  <outline>
    <contour>
      <point x="219.1" y="1162.9" type="curve"/>
      <point x="221.1" y="1162.9" type="line"/>
      <point x="282.6" y="1215.4" type="line"/>
      <point x="90.8" y="1655.6" type="line"/>
      <point x="-114.6" y="1530.3" type="line"/>
      <point x="-44.900000000000006" y="1405.1"/>
      <point x="114.4" y="1236.2"/>
    </contour>
    <contour>
      <point x="-144.8" y="1162.9" type="curve"/>
      <point x="-142.8" y="1162.9" type="line"/>
      <point x="-81.3" y="1215.4" type="line"/>
      <point x="-273.1" y="1655.6" type="line"/>
      <point x="-478.5" y="1530.3" type="line"/>
      <point x="-408.8" y="1405.1"/>
      <point x="-249.5" y="1236.2"/>
    </contour>
  </outline>
</glyph>
<glyph name="breveinvertedcomb" format="2">
  <unicode hex="0311"/>
  <anchor x="0.0" y="1110.0" name="_top"/>
  <anchor x="0.0" y="1738.0" name="top"/>
  <outline>
    <contour>
      <point x="0.0" y="1590.3" type="curve" smooth="yes"/>
      <point x="-172.8" y="1590.3"/>
      <point x="-289.9" y="1448.6"/>
      <point x="-289.9" y="1253.2" type="curve" smooth="yes"/>
      <point x="-289.9" y="1223.2"/>
      <point x="-288.6" y="1203.9"/>
      <point x="-285.6" y="1182.9" type="curve"/>
      <point x="-199.8" y="1182.9" type="line"/>
      <point x="-199.8" y="1195.9"/>
      <point x="-199.1" y="1212.3"/>
      <point x="-195.7" y="1230.1" type="curve" smooth="yes"/>
      <point x="-179.0" y="1321.6"/>
      <point x="-111.0" y="1379.1"/>
      <point x="0.0" y="1379.1" type="curve" smooth="yes"/>
      <point x="111.0" y="1379.1"/>
      <point x="179.0" y="1321.6"/>
      <point x="195.7" y="1230.1" type="curve" smooth="yes"/>
      <point x="199.1" y="1212.3"/>
      <point x="199.8" y="1195.9"/>
      <point x="199.8" y="1182.9" type="curve"/>
      <point x="285.6" y="1182.9" type="line"/>
      <point x="288.6" y="1203.9"/>
      <point x="289.9" y="1223.2"/>
      <point x="289.9" y="1253.2" type="curve" smooth="yes"/>
      <point x="289.9" y="1448.6"/>
      <point x="172.8" y="1590.3"/>
    </contour>
  </outline>
</glyph>
<glyph name="commaturnedabovecomb" format="2">
  <unicode hex="0312"/>
  <anchor x="0.0" y="1110.0" name="_top"/>
  <anchor x="0.0" y="1729.0" name="top"/>
  <outline>
    <contour>
      <point x="3.8999999999999986" y="1182.9" type="curve" smooth="yes"/>
      <point x="10.0" y="1182.9" type="line" smooth="yes"/>
      <point x="72.5" y="1182.9"/>
      <point x="147.2" y="1224.3"/>
      <point x="147.2" y="1311.2" type="curve" smooth="yes"/>
      <point x="147.2" y="1353.0"/>
      <point x="130.7" y="1378.3"/>
      <point x="99.0" y="1403.2" type="curve" smooth="yes"/>
      <point x="60.9" y="1432.7"/>
      <point x="43.7" y="1446.8"/>
      <point x="43.7" y="1489.0" type="curve" smooth="yes"/>
      <point x="43.7" y="1526.0"/>
      <point x="61.5" y="1570.1"/>
      <point x="95.0" y="1600.3" type="curve"/>
      <point x="93.8" y="1610.4" type="line"/>
      <point x="37.7" y="1639.5" type="line"/>
      <point x="35.099999999999994" y="1639.5" type="line"/>
      <point x="-30.1" y="1596.6"/>
      <point x="-147.2" y="1484.8"/>
      <point x="-147.2" y="1347.7" type="curve" smooth="yes"/>
      <point x="-147.2" y="1248.0"/>
      <point x="-84.6" y="1182.9"/>
    </contour>
  </outline>
</glyph>
<glyph name="horncomb" format="2">
  <unicode hex="031B"/>
  <anchor x="30.0" y="1110.7" name="_topright"/>
  <outline>
    <contour>
      <point x="18.0" y="906.8" type="line"/>
      <point x="208.3" y="915.8"/>
      <point x="372.4" y="1018.4"/>
      <point x="372.4" y="1195.1" type="curve" smooth="yes"/>
      <point x="372.4" y="1232.9"/>
      <point x="368.2" y="1258.3"/>
      <point x="362.1" y="1278.8" type="curve"/>
      <point x="132.0" y="1278.8" type="line"/>
      <point x="136.8" y="1254.4"/>
      <point x="139.10000000000002" y="1230.9"/>
      <point x="139.10000000000002" y="1207.8" type="curve" smooth="yes"/>
      <point x="139.10000000000002" y="1090.6"/>
      <point x="107.90000000000002" y="992.9"/>
      <point x="-15.499999999999986" y="978.5" type="curve"/>
    </contour>
  </outline>
</glyph>
<glyph name="commaaccentcomb" format="2">
  <unicode hex="0326"/>
  <anchor x="0.0" y="0.0" name="_bottom"/>
  <anchor x="0.0" y="-545.0" name="bottom"/>
  <outline>
    <contour>
      <point x="147.2" y="-295.0" type="curve" smooth="yes"/>
      <point x="147.2" y="-195.3"/>
      <point x="84.6" y="-130.2"/>
      <point x="-3.8999999999999986" y="-130.2" type="curve" smooth="yes"/>
      <point x="-10.0" y="-130.2" type="line" smooth="yes"/>
      <point x="-72.5" y="-130.2"/>
      <point x="-147.2" y="-171.6"/>
      <point x="-147.2" y="-258.5" type="curve" smooth="yes"/>
      <point x="-147.2" y="-300.3"/>
      <point x="-130.7" y="-325.6"/>
      <point x="-99.0" y="-350.5" type="curve" smooth="yes"/>
      <point x="-60.9" y="-380.0"/>
      <point x="-43.7" y="-394.1"/>
      <point x="-43.7" y="-436.3" type="curve" smooth="yes"/>
      <point x="-43.7" y="-473.3"/>
      <point x="-61.5" y="-517.4"/>
      <point x="-95.0" y="-547.6" type="curve"/>
      <point x="-93.8" y="-557.7" type="line"/>
      <point x="-37.7" y="-586.8" type="line"/>
      <point x="-35.099999999999994" y="-586.8" type="line"/>
      <point x="30.1" y="-543.9"/>
      <point x="147.2" y="-432.1"/>
    </contour>
  </outline>
</glyph>
<glyph name="cedillacomb" format="2">
  <unicode hex="0327"/>
  <anchor x="0.0" y="0.0" name="_bottom"/>
  <anchor x="0.0" y="-513.0" name="bottom"/>
  <outline>
    <contour>
      <point x="-63.1" y="-489.2" type="curve" smooth="yes"/>
      <point x="62.2" y="-489.2"/>
      <point x="170.7" y="-427.8"/>
      <point x="170.7" y="-277.8" type="curve" smooth="yes"/>
      <point x="170.7" y="-149.5"/>
      <point x="84.80000000000001" y="-34.1"/>
      <point x="39.0" y="6.0" type="curve"/>
      <point x="5.0" y="13.0" type="line"/>
      <point x="-51.8" y="6.0" type="line"/>
      <point x="-23.1" y="-26.9"/>
      <point x="3.8999999999999986" y="-100.2"/>
      <point x="3.8999999999999986" y="-164.9" type="curve" smooth="yes"/>
      <point x="3.8999999999999986" y="-266.40000000000003"/>
      <point x="-44.5" y="-288.2"/>
      <point x="-118.7" y="-288.2" type="curve" smooth="yes"/>
      <point x="-139.3" y="-288.2"/>
      <point x="-168.9" y="-285.6"/>
      <point x="-190.8" y="-278.7" type="curve"/>
      <point x="-190.8" y="-463.0" type="line"/>
      <point x="-153.7" y="-478.7"/>
      <point x="-101.7" y="-489.2"/>
    </contour>
  </outline>
</glyph>
<glyph name="brevebelowcomb" format="2">
  <unicode hex="032E"/>
  <anchor x="0.0" y="0.0" name="_bottom"/>
  <anchor x="0.0" y="1738.0" name="top"/>
  <outline>
    <contour>
      <point x="0.0" y="-505.2" type="curve" smooth="yes"/>
      <point x="172.8" y="-505.2"/>
      <point x="289.9" y="-378.4"/>
      <point x="289.9" y="-197.5" type="curve" smooth="yes"/>
      <point x="289.9" y="-167.5"/>
      <point x="288.6" y="-151.2"/>
      <point x="285.6" y="-130.2" type="curve"/>
      <point x="199.8" y="-130.2" type="line"/>
      <point x="199.8" y="-143.2"/>
      <point x="198.5" y="-159.6"/>
      <point x="194.4" y="-177.4" type="curve" smooth="yes"/>
      <point x="177.1" y="-253.9"/>
      <point x="108.0" y="-302.5"/>
      <point x="0.0" y="-302.5" type="curve" smooth="yes"/>
      <point x="-108.0" y="-302.5"/>
      <point x="-177.1" y="-253.9"/>
      <point x="-194.4" y="-177.4" type="curve" smooth="yes"/>
      <point x="-198.5" y="-159.6"/>
      <point x="-199.8" y="-143.2"/>
      <point x="-199.8" y="-130.2" type="curve"/>
      <point x="-285.6" y="-130.2" type="line"/>
      <point x="-288.6" y="-151.2"/>
      <point x="-289.9" y="-167.5"/>
      <point x="-289.9" y="-197.5" type="curve" smooth="yes"/>
      <point x="-289.9" y="-378.4"/>
      <point x="-172.8" y="-505.2"/>
    </contour>
  </outline>
</glyph>
<glyph name="strokeshortcomb" format="2">
  <unicode hex="0335"/>
  <anchor x="0.0" y="556.0" name="_center"/>
  <outline>
    <contour>
      <point x="380.0" y="618.8" type="line"/>
      <point x="-380.0" y="618.8" type="line"/>
      <point x="-380.0" y="499.2" type="line"/>
      <point x="380.0" y="499.2" type="line"/>
    </contour>
  </outline>
</glyph>
<glyph name="Delta" format="2">
  <advance width="1411.0"/>
  <unicode hex="0394"/>
  <outline>
    <contour>
      <point x="483.5000000000001" y="22.200000000000003" type="line"/>
      <point x="1073.6" y="447.9000000000001" type="line"/>
      <point x="1052.1" y="494.1" type="line"/>
      <point x="483.7" y="1067.3" type="line"/>
      <point x="435.1" y="1045.1" type="line"/>
      <point x="454.20000000000005" y="44.099999999999994" type="line"/>
    </contour>
    <contour>
      <point x="441.80000000000007" y="84.4" type="line"/>
      <point x="368.09999999999997" y="708.8" type="line"/>
      <point x="425.29999999999995" y="759.5999999999999" type="line"/>
      <point x="562.4" y="967.2" type="line"/>
      <point x="792.6" y="374.70000000000016" type="line"/>
      <point x="894.5" y="432.70000000000005" type="line"/>
      <point x="417.20000000000005" y="149.2" type="line"/>
    </contour>
  </outline>
</glyph>
<glyph name="pi" format="2">
  <advance width="1429.9"/>
  <unicode hex="03C0"/>
  <outline>
    <contour>
      <point x="155.1" y="114.1" type="curve"/>
      <point x="323.2" y="-19.7" type="line"/>
      <point x="468.5" y="-17.6"/>
      <point x="561.5" y="108.3"/>
      <point x="593.3" y="381.8" type="curve" smooth="yes"/>
      <point x="636.5" y="746.7" type="line"/>
      <point x="873.1" y="746.7" type="line"/>
      <point x="812.9" y="536.9"/>
      <point x="764.9" y="341.9"/>
      <point x="763.7" y="202.2" type="curve"/>
      <point x="763.4" y="69.8"/>
      <point x="843.8" y="-19.7"/>
      <point x="955.9" y="-19.7" type="curve" smooth="yes"/>
      <point x="1136.3" y="-19.7"/>
      <point x="1218.6" y="151.4"/>
      <point x="1254.7" y="353.4" type="curve"/>
      <point x="1187.6" y="353.4" type="line"/>
      <point x="1157.4" y="239.8"/>
      <point x="1103.1" y="200.5"/>
      <point x="1051.2" y="200.5" type="curve" smooth="yes"/>
      <point x="1002.9" y="201.10000000000002"/>
      <point x="942.8" y="244.3"/>
      <point x="943.7" y="382.0" type="curve"/>
      <point x="945.8" y="505.8"/>
      <point x="941.4" y="569.7"/>
      <point x="962.5" y="746.7" type="curve"/>
      <point x="1069.9" y="746.7" type="line" smooth="yes"/>
      <point x="1230.6" y="746.7"/>
      <point x="1295.3" y="923.2"/>
      <point x="1297.1" y="1149.6" type="curve"/>
      <point x="1203.8" y="1149.6" type="line"/>
      <point x="1191.3" y="1071.6"/>
      <point x="1157.5" y="1049.5"/>
      <point x="1079.2" y="1049.5" type="curve" smooth="yes"/>
      <point x="474.6" y="1049.8" type="line" smooth="yes"/>
      <point x="268.6" y="1049.8"/>
      <point x="181.3" y="904.8"/>
      <point x="181.3" y="637.9" type="curve"/>
      <point x="269.4" y="629.1" type="line"/>
      <point x="280.5" y="703.0"/>
      <point x="322.1" y="747.0"/>
      <point x="390.40000000000003" y="746.7" type="curve" smooth="yes"/>
      <point x="548.5" y="746.7" type="line"/>
      <point x="485.2" y="501.9" type="line" smooth="yes"/>
      <point x="438.4" y="319.1"/>
      <point x="341.6" y="157.7"/>
    </contour>
  </outline>
</glyph>
<glyph name="E-cy" format="2">
  <advance width="1157.3"/>
  <unicode hex="0404"/>
  <outline>
    <contour>
      <point x="655.6" y="-22.0" type="curve" smooth="yes"/>
      <point x="882.3" y="-22.0"/>
      <point x="962.1" y="51.9"/>
      <point x="1078.9" y="54.0" type="curve"/>
      <point x="1107.7" y="416.8" type="line"/>
      <point x="945.8" y="424.3" type="line"/>
      <point x="863.6" y="182.2" type="line"/>
      <point x="841.5" y="123.1"/>
      <point x="764.9" y="60.0"/>
      <point x="670.6" y="60.0" type="curve" smooth="yes"/>
      <point x="479.7" y="60.0"/>
      <point x="410.5" y="363.3"/>
      <point x="402.6" y="705.1" type="curve"/>
      <point x="862.7" y="681.3" type="line"/>
      <point x="862.7" y="825.7" type="line"/>
      <point x="402.0" y="800.9" type="line"/>
      <point x="408.29999999999995" y="1235.9"/>
      <point x="507.1" y="1426.5"/>
      <point x="673.2" y="1426.5" type="curve" smooth="yes"/>
      <point x="764.8" y="1426.5"/>
      <point x="813.6" y="1372.6"/>
      <point x="828.5" y="1315.3" type="curve"/>
      <point x="882.8" y="1043.9" type="line"/>
      <point x="1078.4" y="1043.9" type="line"/>
      <point x="1122.8" y="1441.1" type="line"/>
      <point x="977.5" y="1444.4"/>
      <point x="904.2" y="1506.9"/>
      <point x="675.6" y="1506.9" type="curve" smooth="yes"/>
      <point x="284.2" y="1506.9"/>
      <point x="29.799999999999997" y="1213.8"/>
      <point x="29.799999999999997" y="728.1" type="curve" smooth="yes"/>
      <point x="29.799999999999997" y="276.2"/>
      <point x="226.2" y="-22.0"/>
    </contour>
  </outline>
</glyph>
<glyph name="Yi-cy" format="2">
  <advance width="678.0"/>
  <unicode hex="0407"/>
  <anchor x="331.4" y="-114.20000000000002" name="bottom"/>
  <anchor x="331.0" y="-51.79999999999998" name="mark0"/>
  <anchor x="607.5" y="20.0" name="ogonek"/>
  <anchor x="330.2" y="1486.0" name="top"/>
  <anchor x="44.0" y="1486.0" name="topleft"/>
  <outline>
    <contour>
      <point x="143.5" y="1610.0" type="curve" smooth="yes"/>
      <point x="145.5" y="1610.0" type="line" smooth="yes"/>
      <point x="241.5" y="1610.0"/>
      <point x="301.2" y="1703.7"/>
      <point x="301.2" y="1801.7" type="curve" smooth="yes"/>
      <point x="301.2" y="1893.8"/>
      <point x="250.0" y="1958.1"/>
      <point x="161.1" y="1958.1" type="curve" smooth="yes"/>
      <point x="159.1" y="1958.1" type="line" smooth="yes"/>
      <point x="64.2" y="1958.1"/>
      <point x="3.3999999999999986" y="1870.7"/>
      <point x="3.3999999999999986" y="1766.4" type="curve" smooth="yes"/>
      <point x="3.3999999999999986" y="1674.3"/>
      <point x="54.6" y="1610.0"/>
    </contour>
    <contour>
      <point x="499.3" y="1610.0" type="curve" smooth="yes"/>
      <point x="501.3" y="1610.0" type="line" smooth="yes"/>
      <point x="597.6" y="1610.0"/>
      <point x="657.0" y="1703.7"/>
      <point x="657.0" y="1801.7" type="curve" smooth="yes"/>
      <point x="657.0" y="1893.8"/>
      <point x="605.8" y="1958.1"/>
      <point x="516.9" y="1958.1" type="curve" smooth="yes"/>
      <point x="514.9" y="1958.1" type="line" smooth="yes"/>
      <point x="420.3" y="1958.1"/>
      <point x="359.2" y="1870.7"/>
      <point x="359.2" y="1766.4" type="curve" smooth="yes"/>
      <point x="359.2" y="1674.3"/>
      <point x="410.4" y="1610.0"/>
    </contour>
    <component base="I"/>
  </outline>
</glyph>
<glyph name="Nje-cy" format="2">
  <advance width="2147.8"/>
  <unicode hex="040A"/>
  <outline>
    <contour>
      <point x="1385.2" y="-14.5" type="curve" smooth="yes"/>
      <point x="1644.8" y="-14.5"/>
      <point x="1849.7" y="166.7"/>
      <point x="1849.7" y="479.8" type="curve" smooth="yes"/>
      <point x="1849.7" y="749.9"/>
      <point x="1701.1" y="920.4"/>
      <point x="1380.6" y="920.4" type="curve" smooth="yes"/>
      <point x="1332.6" y="920.4"/>
      <point x="1262.3" y="911.9"/>
      <point x="1216.3" y="904.3" type="curve"/>
      <point x="1216.3" y="1385.0" type="line"/>
      <point x="1330.1" y="1419.4" type="line"/>
      <point x="1330.1" y="1486.0" type="line"/>
      <point x="749.4" y="1486.0" type="line"/>
      <point x="749.4" y="1419.4" type="line"/>
      <point x="872.9" y="1384.7" type="line"/>
      <point x="872.9" y="812.0" type="line"/>
      <point x="500.3" y="812.0" type="line"/>
      <point x="500.3" y="1385.0" type="line"/>
      <point x="627.5" y="1419.4" type="line"/>
      <point x="627.5" y="1486.0" type="line"/>
      <point x="43.400000000000006" y="1486.0" type="line"/>
      <point x="43.400000000000006" y="1419.4" type="line"/>
      <point x="156.9" y="1385.0" type="line"/>
      <point x="156.9" y="98.80000000000001" type="line"/>
      <point x="42.4" y="65.2" type="line"/>
      <point x="42.4" y="0.0" type="line"/>
      <point x="628.5" y="0.0" type="line"/>
      <point x="628.5" y="65.2" type="line"/>
      <point x="500.3" y="98.80000000000001" type="line"/>
      <point x="500.3" y="715.7" type="line"/>
      <point x="872.9" y="715.7" type="line"/>
      <point x="872.9" y="99.1" type="line"/>
      <point x="749.4" y="65.2" type="line"/>
      <point x="749.4" y="0.0" type="line"/>
      <point x="1047.0" y="0.0" type="line" smooth="yes"/>
      <point x="1175.0" y="0.0"/>
      <point x="1284.9" y="-14.5"/>
    </contour>
    <contour>
      <point x="1290.1" y="74.3" type="curve" smooth="yes"/>
      <point x="1258.6" y="74.3"/>
      <point x="1236.5" y="78.9"/>
      <point x="1216.3" y="86.8" type="curve"/>
      <point x="1216.3" y="820.5" type="line"/>
      <point x="1234.3" y="826.1"/>
      <point x="1264.2" y="831.3"/>
      <point x="1288.3" y="831.3" type="curve" smooth="yes"/>
      <point x="1430.0" y="831.3"/>
      <point x="1498.2" y="714.5"/>
      <point x="1498.2" y="468.4" type="curve" smooth="yes"/>
      <point x="1498.2" y="247.3"/>
      <point x="1443.6" y="74.3"/>
    </contour>
  </outline>
</glyph>
<glyph name="Tshe-cy" format="2">
  <advance width="1557.3"/>
  <unicode hex="040B"/>
  <outline>
    <contour>
      <point x="243.4" y="0.0" type="line"/>
      <point x="946.3" y="0.0" type="line"/>
      <point x="946.3" y="67.9" type="line"/>
      <point x="796.4" y="100.20000000000002" type="line"/>
      <point x="796.4" y="696.2" type="line"/>
      <point x="824.6" y="726.2"/>
      <point x="879.2" y="748.8"/>
      <point x="940.3" y="748.8" type="curve" smooth="yes"/>
      <point x="1051.4" y="748.8"/>
      <point x="1079.4" y="671.3"/>
      <point x="1079.4" y="555.5999999999999" type="curve" smooth="yes"/>
      <point x="1079.4" y="100.20000000000002" type="line"/>
      <point x="984.6" y="67.9" type="line"/>
      <point x="984.6" y="0.0" type="line"/>
      <point x="1545.0" y="0.0" type="line"/>
      <point x="1545.0" y="67.9" type="line"/>
      <point x="1446.9" y="100.80000000000001" type="line"/>
      <point x="1446.9" y="515.4" type="line" smooth="yes"/>
      <point x="1446.9" y="747.8"/>
      <point x="1324.9" y="861.3"/>
      <point x="1076.6" y="861.3" type="curve" smooth="yes"/>
      <point x="964.9" y="861.3"/>
      <point x="870.6" y="835.8"/>
      <point x="796.4" y="785.6" type="curve"/>
      <point x="796.4" y="1405.2" type="line"/>
      <point x="943.4" y="1389.6" type="line"/>
      <point x="1057.8" y="1005.0" type="line"/>
      <point x="1224.6" y="1005.0" type="line"/>
      <point x="1199.4" y="1486.0" type="line"/>
      <point x="54.49999999999999" y="1486.0" type="line"/>
      <point x="21.800000000000004" y="1005.0" type="line"/>
      <point x="187.2" y="1005.0" type="line"/>
      <point x="305.8" y="1389.6" type="line"/>
      <point x="457.9" y="1405.2" type="line"/>
      <point x="457.9" y="100.2" type="line"/>
      <point x="243.4" y="65.5" type="line"/>
    </contour>
  </outline>
</glyph>
<glyph name="Dzhe-cy" format="2">
  <advance width="1356.8"/>
  <unicode hex="040F"/>
  <outline>
    <contour>
      <point x="592.3" y="-410.0" type="curve"/>
      <point x="767.7" y="-410.0" type="line"/>
      <point x="769.7" y="-274.0"/>
      <point x="802.7" y="-51.0"/>
      <point x="819.7" y="0.0" type="curve"/>
      <point x="1314.4" y="0.0" type="line"/>
      <point x="1314.4" y="65.5" type="line"/>
      <point x="1194.7" y="96.30000000000001" type="line"/>
      <point x="1194.7" y="1385.5" type="line"/>
      <point x="1310.6" y="1418.4" type="line"/>
      <point x="1310.6" y="1486.0" type="line"/>
      <point x="723.3" y="1486.0" type="line"/>
      <point x="723.3" y="1418.4" type="line"/>
      <point x="851.6" y="1385.5" type="line"/>
      <point x="851.6" y="88.2" type="line"/>
      <point x="506.3" y="88.2" type="line"/>
      <point x="506.3" y="1385.5" type="line"/>
      <point x="636.8" y="1418.4" type="line"/>
      <point x="636.8" y="1486.0" type="line"/>
      <point x="44.300000000000004" y="1486.0" type="line"/>
      <point x="44.300000000000004" y="1418.4" type="line"/>
      <point x="163.2" y="1385.5" type="line"/>
      <point x="163.2" y="96.9" type="line"/>
      <point x="42.4" y="65.5" type="line"/>
      <point x="42.4" y="0.0" type="line"/>
      <point x="535.3" y="0.0" type="line"/>
      <point x="548.3" y="-19.299999999999997"/>
      <point x="592.3" y="-304.0"/>
    </contour>
  </outline>
</glyph>
<glyph name="Ge-cy" format="2">
  <advance width="1040.9"/>
  <unicode hex="0413"/>
  <anchor x="496.29999999999995" y="0.0" name="bottomright"/>
  <anchor x="566.5" y="744.0" name="center"/>
  <anchor x="571.5" y="1486.0" name="top"/>
  <outline>
    <contour>
      <point x="42.4" y="0.0" type="line"/>
      <point x="698.4000000000001" y="0.0" type="line"/>
      <point x="698.4000000000001" y="65.5" type="line"/>
      <point x="524.9" y="96.6" type="line"/>
      <point x="524.9" y="1405.0" type="line"/>
      <point x="755.0" y="1375.3" type="line"/>
      <point x="873.7" y="900.0" type="line"/>
      <point x="1018.5" y="900.0" type="line"/>
      <point x="991.1" y="1486.0" type="line"/>
      <point x="43.7" y="1486.0" type="line"/>
      <point x="43.7" y="1418.7" type="line"/>
      <point x="178.4" y="1385.2" type="line"/>
      <point x="178.4" y="96.6" type="line"/>
      <point x="42.4" y="65.5" type="line"/>
    </contour>
  </outline>
</glyph>
<glyph name="De-cy" format="2">
  <advance width="1329.1"/>
  <unicode hex="0414"/>
  <outline>
    <contour>
      <point x="8.100000000000001" y="-410.0" type="curve"/>
      <point x="206.2" y="-410.0" type="line"/>
      <point x="219.2" y="-324.0"/>
      <point x="279.2" y="-35.7"/>
      <point x="310.9" y="0.0" type="curve"/>
      <point x="984.6" y="0.0" type="line"/>
      <point x="1007.6" y="-35.0"/>
      <point x="1056.3" y="-345.0"/>
      <point x="1058.3" y="-406.0" type="curve"/>
      <point x="1250.4" y="-406.0" type="line"/>
      <point x="1257.7" y="-381.8"/>
      <point x="1286.7" y="-6.5"/>
      <point x="1286.7" y="96.9" type="curve"/>
      <point x="1131.5" y="96.9" type="line"/>
      <point x="1131.5" y="1385.5" type="line"/>
      <point x="1286.0" y="1418.4" type="line"/>
      <point x="1286.0" y="1486.0" type="line"/>
      <point x="224.2" y="1486.0" type="line"/>
      <point x="224.2" y="1418.4" type="line"/>
      <point x="433.0" y="1386.2" type="line"/>
      <point x="433.0" y="1240.0" type="line" smooth="yes"/>
      <point x="433.0" y="590.8"/>
      <point x="246.10000000000002" y="234.6"/>
      <point x="158.9" y="96.9" type="curve"/>
      <point x="26.800000000000004" y="96.9" type="line"/>
      <point x="13.300000000000004" y="-36.400000000000006"/>
      <point x="11.100000000000001" y="-349.6"/>
    </contour>
    <contour>
      <point x="284.6" y="96.9" type="line"/>
      <point x="371.20000000000005" y="257.6"/>
      <point x="528.9" y="639.1"/>
      <point x="528.9" y="1228.0" type="curve"/>
      <point x="528.9" y="1386.4" type="line"/>
      <point x="788.0" y="1386.4" type="line"/>
      <point x="788.0" y="96.9" type="line"/>
    </contour>
  </outline>
</glyph>
<glyph name="Zhe-cy" format="2">
  <advance width="1997.1"/>
  <unicode hex="0416"/>
  <anchor x="1954.0" y="0.0" name="bottomright"/>
  <anchor x="1002.9" y="1495.0" name="top"/>
  <outline>
    <contour>
      <point x="-0.6000000000000014" y="0.0" type="line"/>
      <point x="382.4" y="0.0" type="line" smooth="yes"/>
      <point x="532.5" y="0.0"/>
      <point x="624.0" y="729.9"/>
      <point x="777.3" y="729.9" type="curve" smooth="yes"/>
      <point x="829.5" y="729.9" type="line"/>
      <point x="829.5" y="96.9" type="line"/>
      <point x="698.1" y="66.5" type="line"/>
      <point x="698.1" y="0.0" type="line"/>
      <point x="1306.4" y="0.0" type="line"/>
      <point x="1306.4" y="65.9" type="line"/>
      <point x="1167.6" y="96.9" type="line"/>
      <point x="1167.6" y="729.9" type="line"/>
      <point x="1219.8" y="729.9" type="line" smooth="yes"/>
      <point x="1373.1" y="729.9"/>
      <point x="1464.6" y="0.0"/>
      <point x="1614.7" y="0.0" type="curve" smooth="yes"/>
      <point x="1997.7" y="0.0" type="line"/>
      <point x="1997.7" y="66.5" type="line"/>
      <point x="1932.0" y="88.80000000000001" type="line" smooth="yes"/>
      <point x="1866.0" y="112.0"/>
      <point x="1785.2" y="373.8"/>
      <point x="1670.6" y="588.0" type="curve" smooth="yes"/>
      <point x="1593.4" y="746.8"/>
      <point x="1541.5" y="803.4"/>
      <point x="1421.5" y="809.4" type="curve"/>
      <point x="1783.7" y="1383.5" type="line"/>
      <point x="1932.2" y="1418.8" type="line"/>
      <point x="1932.2" y="1486.0" type="line"/>
      <point x="1493.7" y="1486.0" type="line"/>
      <point x="1493.7" y="1418.8" type="line"/>
      <point x="1636.0" y="1384.1" type="line"/>
      <point x="1315.4" y="813.0" type="line"/>
      <point x="1167.6" y="813.0" type="line"/>
      <point x="1167.6" y="1384.1" type="line"/>
      <point x="1300.9" y="1418.8" type="line"/>
      <point x="1300.9" y="1486.0" type="line"/>
      <point x="702.4" y="1486.0" type="line"/>
      <point x="702.4" y="1418.8" type="line"/>
      <point x="829.5" y="1384.1" type="line"/>
      <point x="829.5" y="813.0" type="line"/>
      <point x="681.7" y="813.0" type="line"/>
      <point x="361.1" y="1384.1" type="line"/>
      <point x="503.4" y="1418.8" type="line"/>
      <point x="503.4" y="1486.0" type="line"/>
      <point x="64.9" y="1486.0" type="line"/>
      <point x="64.9" y="1418.8" type="line"/>
      <point x="213.39999999999998" y="1383.5" type="line"/>
      <point x="575.6" y="809.4" type="line"/>
      <point x="455.6" y="803.4"/>
      <point x="403.7" y="746.8"/>
      <point x="326.5" y="588.0" type="curve" smooth="yes"/>
      <point x="211.9" y="373.8"/>
      <point x="131.1" y="112.0"/>
      <point x="65.1" y="88.80000000000001" type="curve" smooth="yes"/>
      <point x="-0.6000000000000014" y="66.5" type="line"/>
    </contour>
  </outline>
</glyph>
<glyph name="Ze-cy" format="2">
  <advance width="1164.4"/>
  <unicode hex="0417"/>
  <anchor x="566.1" y="0.0" name="bottom"/>
  <anchor x="545.1" y="1485.1" name="top"/>
  <outline>
    <contour>
      <point x="512.1" y="-20.0" type="curve" smooth="yes"/>
      <point x="866.2" y="-20.0"/>
      <point x="1122.9" y="139.1"/>
      <point x="1122.9" y="411.0" type="curve" smooth="yes"/>
      <point x="1122.9" y="633.4"/>
      <point x="941.4" y="769.3"/>
      <point x="629.6" y="784.0" type="curve"/>
      <point x="825.0" y="814.4"/>
      <point x="1047.9" y="931.6"/>
      <point x="1047.9" y="1159.0" type="curve" smooth="yes"/>
      <point x="1047.9" y="1374.9"/>
      <point x="857.9" y="1502.0"/>
      <point x="551.2" y="1502.0" type="curve" smooth="yes"/>
      <point x="346.7" y="1502.0"/>
      <point x="270.2" y="1446.0"/>
      <point x="96.0" y="1441.0" type="curve"/>
      <point x="82.0" y="1056.0" type="line"/>
      <point x="294.1" y="1056.0" type="line"/>
      <point x="359.1" y="1362.8" type="line"/>
      <point x="374.4" y="1390.8"/>
      <point x="414.3" y="1421.8"/>
      <point x="494.1" y="1421.8" type="curve" smooth="yes"/>
      <point x="589.0" y="1421.8"/>
      <point x="649.6" y="1340.6"/>
      <point x="649.6" y="1143.0" type="curve" smooth="yes"/>
      <point x="649.6" y="907.3"/>
      <point x="565.2" y="821.0"/>
      <point x="473.1" y="821.0" type="curve"/>
      <point x="358.1" y="830.8" type="line"/>
      <point x="358.1" y="708.8" type="line"/>
      <point x="493.1" y="728.0" type="line"/>
      <point x="651.4" y="728.0"/>
      <point x="707.6" y="599.4"/>
      <point x="707.6" y="403.0" type="curve" smooth="yes"/>
      <point x="707.6" y="206.0"/>
      <point x="645.9" y="59.900000000000006"/>
      <point x="513.1" y="59.900000000000006" type="curve" smooth="yes"/>
      <point x="442.4" y="59.900000000000006"/>
      <point x="374.7" y="75.9"/>
      <point x="325.1" y="134.9" type="curve"/>
      <point x="242.1" y="445.0" type="line"/>
      <point x="75.0" y="457.0" type="line"/>
      <point x="67.0" y="63.0" type="line"/>
      <point x="165.5" y="49.0"/>
      <point x="259.0" y="-20.0"/>
    </contour>
  </outline>
</glyph>
<glyph name="Ii-cy" format="2">
  <advance width="1392.0"/>
  <unicode hex="0418"/>
  <anchor x="1305.9" y="0.0" name="bottomright"/>
  <anchor x="696.7" y="1486.0" name="top"/>
  <outline>
    <contour>
      <point x="42.4" y="0.0" type="line"/>
      <point x="629.3" y="0.0" type="line"/>
      <point x="629.3" y="65.5" type="line"/>
      <point x="499.3" y="96.60000000000001" type="line"/>
      <point x="499.3" y="190.4" type="line"/>
      <point x="827.6" y="934.0" type="line"/>
      <point x="890.8" y="1094.7" type="line"/>
      <point x="890.8" y="96.60000000000001" type="line"/>
      <point x="764.4" y="65.5" type="line"/>
      <point x="764.4" y="0.0" type="line"/>
      <point x="1349.6" y="0.0" type="line"/>
      <point x="1349.6" y="65.5" type="line"/>
      <point x="1232.1" y="96.60000000000001" type="line"/>
      <point x="1232.1" y="1385.2" type="line"/>
      <point x="1347.7" y="1418.1" type="line"/>
      <point x="1347.7" y="1486.0" type="line"/>
      <point x="763.8" y="1486.0" type="line"/>
      <point x="763.8" y="1418.1" type="line"/>
      <point x="890.8" y="1385.2" type="line"/>
      <point x="890.8" y="1257.8" type="line"/>
      <point x="584.7" y="557.0" type="line"/>
      <point x="499.3" y="352.1" type="line"/>
      <point x="499.3" y="1385.2" type="line"/>
      <point x="629.9" y="1418.7" type="line"/>
      <point x="629.9" y="1486.0" type="line"/>
      <point x="43.0" y="1486.0" type="line"/>
      <point x="43.0" y="1418.1" type="line"/>
      <point x="158.0" y="1385.8" type="line"/>
      <point x="158.0" y="96.0" type="line"/>
      <point x="42.4" y="65.5" type="line"/>
    </contour>
  </outline>
</glyph>
<glyph name="Ka-cy" format="2">
  <advance width="1344.7"/>
  <unicode hex="041A"/>
  <anchor x="1270.1" y="0.0" name="bottomright"/>
  <anchor x="727.1" y="1492.0" name="top"/>
  <outline>
    <contour>
      <point x="42.4" y="0.0" type="line"/>
      <point x="645.6" y="0.0" type="line"/>
      <point x="645.6" y="65.9" type="line"/>
      <point x="513.7" y="96.9" type="line"/>
      <point x="513.7" y="729.9" type="line"/>
      <point x="546.0" y="729.9" type="line" smooth="yes"/>
      <point x="618.0" y="729.9"/>
      <point x="674.0" y="586.4"/>
      <point x="728.0" y="427.4" type="curve" smooth="yes"/>
      <point x="796.9" y="226.5"/>
      <point x="863.0" y="0.0"/>
      <point x="958.5" y="0.0" type="curve"/>
      <point x="1345.3" y="0.0" type="line"/>
      <point x="1345.3" y="66.5" type="line"/>
      <point x="1280.5" y="85.80000000000001" type="line" smooth="yes"/>
      <point x="1198.7" y="109.6"/>
      <point x="1154.7" y="370.7"/>
      <point x="1055.3" y="574.0" type="curve" smooth="yes"/>
      <point x="994.3" y="701.0"/>
      <point x="911.2" y="804.7"/>
      <point x="786.0" y="811.3" type="curve"/>
      <point x="1134.6" y="1383.5" type="line"/>
      <point x="1283.4" y="1418.8" type="line"/>
      <point x="1283.4" y="1486.0" type="line"/>
      <point x="844.0" y="1486.0" type="line"/>
      <point x="844.0" y="1418.8" type="line"/>
      <point x="986.3" y="1384.1" type="line"/>
      <point x="677.2" y="813.7" type="line"/>
      <point x="513.7" y="813.0" type="line"/>
      <point x="513.7" y="1383.5" type="line"/>
      <point x="635.3" y="1418.8" type="line"/>
      <point x="635.3" y="1486.0" type="line"/>
      <point x="43.1" y="1486.0" type="line"/>
      <point x="43.1" y="1418.8" type="line"/>
      <point x="159.4" y="1383.5" type="line"/>
      <point x="159.4" y="96.9" type="line"/>
      <point x="42.4" y="66.5" type="line"/>
    </contour>
  </outline>
</glyph>
<glyph name="El-cy" format="2">
  <advance width="1242.1"/>
  <unicode hex="041B"/>
  <outline>
    <contour>
      <point x="117.2" y="-13.0" type="curve" smooth="yes"/>
      <point x="230.6" y="-13.0"/>
      <point x="305.7" y="60.7"/>
      <point x="374.9" y="201.9" type="curve" smooth="yes"/>
      <point x="460.6" y="393.7"/>
      <point x="521.4" y="783.8"/>
      <point x="523.5" y="1175.0" type="curve" smooth="yes"/>
      <point x="524.4" y="1384.1" type="line"/>
      <point x="716.5" y="1384.1" type="line"/>
      <point x="716.5" y="96.9" type="line"/>
      <point x="571.0" y="66.2" type="line"/>
      <point x="571.0" y="0.0" type="line"/>
      <point x="1199.7" y="0.0" type="line"/>
      <point x="1199.7" y="66.2" type="line"/>
      <point x="1058.7" y="96.3" type="line"/>
      <point x="1058.7" y="1384.1" type="line"/>
      <point x="1196.3" y="1419.1" type="line"/>
      <point x="1196.3" y="1486.0" type="line"/>
      <point x="224.3" y="1486.0" type="line"/>
      <point x="224.3" y="1419.1" type="line"/>
      <point x="433.0" y="1384.1" type="line"/>
      <point x="432.1" y="1224.0" type="line" smooth="yes"/>
      <point x="427.6" y="730.6"/>
      <point x="364.7" y="530.6"/>
      <point x="306.9" y="410.2" type="curve"/>
      <point x="255.7" y="314.4"/>
      <point x="198.0" y="283.1"/>
      <point x="126.0" y="283.1" type="curve" smooth="yes"/>
      <point x="73.8" y="283.1"/>
      <point x="49.400000000000006" y="285.4"/>
      <point x="11.5" y="289.7" type="curve"/>
      <point x="30.5" y="1.8000000000000007" type="line"/>
      <point x="53.8" y="-7.4"/>
      <point x="74.8" y="-13.0"/>
    </contour>
  </outline>
</glyph>
<glyph name="U-cy" format="2">
  <advance width="1317.1"/>
  <unicode hex="0423"/>
  <anchor x="737.7" y="1486.0" name="top"/>
  <outline>
    <contour>
      <point x="442.5" y="-33.0" type="curve" smooth="yes"/>
      <point x="639.1" y="-33.0"/>
      <point x="743.8" y="182.5"/>
      <point x="791.1" y="313.1" type="curve" smooth="yes"/>
      <point x="1180.8" y="1385.2" type="line"/>
      <point x="1306.3" y="1418.1" type="line"/>
      <point x="1306.3" y="1486.0" type="line"/>
      <point x="917.7" y="1486.0" type="line"/>
      <point x="917.7" y="1418.1" type="line"/>
      <point x="1047.3" y="1385.8" type="line"/>
      <point x="856.8" y="754.6" type="line"/>
      <point x="789.7" y="551.4" type="line"/>
      <point x="833.2" y="565.4" type="line"/>
      <point x="771.2" y="744.9" type="line"/>
      <point x="509.7" y="1385.2" type="line"/>
      <point x="657.5" y="1418.1" type="line"/>
      <point x="657.5" y="1486.0" type="line"/>
      <point x="27.200000000000003" y="1486.0" type="line"/>
      <point x="27.200000000000003" y="1418.1" type="line"/>
      <point x="135.70000000000002" y="1385.8" type="line"/>
      <point x="691.6" y="220.1" type="line"/>
      <point x="679.6" y="343.9" type="line"/>
      <point x="676.7" y="235.6"/>
      <point x="586.3" y="195.0"/>
      <point x="457.5" y="195.0" type="curve" smooth="yes"/>
      <point x="387.0" y="195.0"/>
      <point x="344.20000000000005" y="206.9"/>
      <point x="288.5" y="225.0" type="curve"/>
      <point x="288.5" y="22.0" type="line"/>
      <point x="322.4" y="-7.200000000000001"/>
      <point x="383.3" y="-33.0"/>
    </contour>
  </outline>
</glyph>
<glyph name="Tse-cy" format="2">
  <advance width="1423.8"/>
  <unicode hex="0426"/>
  <outline>
    <contour>
      <point x="1150.5" y="-406.0" type="curve"/>
      <point x="1321.6" y="-406.0" type="line"/>
      <point x="1332.4" y="-351.4"/>
      <point x="1381.4" y="-8.900000000000006"/>
      <point x="1381.4" y="96.60000000000001" type="curve"/>
      <point x="1190.5" y="96.60000000000001" type="line"/>
      <point x="1190.5" y="1385.8" type="line"/>
      <point x="1307.3" y="1418.1" type="line"/>
      <point x="1307.3" y="1486.0" type="line"/>
      <point x="725.0" y="1486.0" type="line"/>
      <point x="725.0" y="1418.1" type="line"/>
      <point x="847.4" y="1385.8" type="line"/>
      <point x="847.4" y="88.2" type="line"/>
      <point x="508.7" y="88.2" type="line"/>
      <point x="508.7" y="1385.2" type="line"/>
      <point x="640.1" y="1418.1" type="line"/>
      <point x="640.1" y="1486.0" type="line"/>
      <point x="46.10000000000001" y="1486.0" type="line"/>
      <point x="46.10000000000001" y="1418.1" type="line"/>
      <point x="166.3" y="1385.8" type="line"/>
      <point x="166.3" y="97.2" type="line"/>
      <point x="42.4" y="65.5" type="line"/>
      <point x="42.4" y="0.0" type="line"/>
      <point x="1100.3" y="0.0" type="line"/>
      <point x="1120.9" y="-51.39999999999999"/>
      <point x="1149.9" y="-343.2"/>
    </contour>
  </outline>
</glyph>
<glyph name="Che-cy" format="2">
  <advance width="1251.0"/>
  <unicode hex="0427"/>
  <anchor x="1230.2" y="0.0" name="bottomright"/>
  <anchor x="616.8" y="744.0" name="center"/>
  <anchor x="600.1" y="1486.0" name="top"/>
  <outline>
    <contour>
      <point x="741.3" y="610.0" type="curve"/>
      <point x="741.3" y="96.60000000000001" type="line"/>
      <point x="555.5" y="65.5" type="line"/>
      <point x="555.5" y="0.0" type="line"/>
      <point x="1208.6" y="0.0" type="line"/>
      <point x="1208.6" y="64.9" type="line"/>
      <point x="1086.8" y="96.60000000000001" type="line"/>
      <point x="1086.8" y="1385.5" type="line"/>
      <point x="1208.6" y="1418.4" type="line"/>
      <point x="1208.6" y="1486.0" type="line"/>
      <point x="620.8" y="1486.0" type="line"/>
      <point x="620.8" y="1418.4" type="line"/>
      <point x="741.3" y="1385.8" type="line"/>
      <point x="741.3" y="698.0" type="line"/>
      <point x="713.1" y="672.9"/>
      <point x="662.7" y="654.5"/>
      <point x="616.3" y="654.5" type="curve" smooth="yes"/>
      <point x="498.2" y="654.5"/>
      <point x="466.0" y="744.9"/>
      <point x="466.0" y="882.5" type="curve" smooth="yes"/>
      <point x="466.0" y="1385.8" type="line"/>
      <point x="568.5" y="1418.1" type="line"/>
      <point x="568.5" y="1486.0" type="line"/>
      <point x="42.4" y="1486.0" type="line"/>
      <point x="42.4" y="1418.1" type="line"/>
      <point x="120.2" y="1385.2" type="line"/>
      <point x="120.2" y="859.7" type="line" smooth="yes"/>
      <point x="120.2" y="646.0"/>
      <point x="238.7" y="542.0"/>
      <point x="480.0" y="542.0" type="curve" smooth="yes"/>
      <point x="565.8" y="542.0"/>
      <point x="667.1" y="564.0"/>
    </contour>
  </outline>
</glyph>
<glyph name="Sha-cy" format="2">
  <advance width="1893.1000000000001"/>
  <unicode hex="0428"/>
  <outline>
    <contour>
      <point x="45.7" y="1486.0" type="line"/>
      <point x="45.700000000000045" y="1418.3999999999999" type="line"/>
      <point x="162.79999999999995" y="1385.8" type="line"/>
      <point x="162.79999999999995" y="96.60000000000001" type="line"/>
      <point x="42.39999999999998" y="65.5" type="line"/>
      <point x="42.39999999999998" y="0.0" type="line"/>
      <point x="1850.7" y="0.0" type="line"/>
      <point x="1850.7" y="65.5" type="line"/>
      <point x="1730.6" y="96.30000000000007" type="line"/>
      <point x="1730.6" y="1385.8" type="line"/>
      <point x="1847.4" y="1418.4" type="line"/>
      <point x="1847.4" y="1486.0" type="line"/>
      <point x="1297.8" y="1486.0" type="line"/>
      <point x="1297.8" y="1418.4" type="line"/>
      <point x="1387.5" y="1385.5" type="line"/>
      <point x="1387.5" y="92.09999999999991" type="line"/>
      <point x="1118.1" y="92.10000000000002" type="line"/>
      <point x="1118.1" y="1385.8" type="line"/>
      <point x="1209.2" y="1418.4" type="line"/>
      <point x="1209.2" y="1486.0" type="line"/>
      <point x="686.9000000000001" y="1486.0" type="line"/>
      <point x="686.9" y="1418.4" type="line"/>
      <point x="775.0" y="1385.8" type="line"/>
      <point x="775.0" y="92.09999999999991" type="line"/>
      <point x="505.9" y="92.10000000000002" type="line"/>
      <point x="505.9" y="1385.8" type="line"/>
      <point x="598.3" y="1418.4" type="line"/>
      <point x="598.3" y="1486.0" type="line"/>
    </contour>
  </outline>
</glyph>
<glyph name="Shcha-cy" format="2">
  <advance width="1965.2"/>
  <unicode hex="0429"/>
  <outline>
    <contour>
      <point x="1690.7" y="-406.0" type="curve"/>
      <point x="1862.4" y="-406.0" type="line"/>
      <point x="1874.7" y="-339.4"/>
      <point x="1921.3" y="-20.599999999999994"/>
      <point x="1922.8" y="96.9" type="curve"/>
      <point x="1568.9" y="96.9" type="line"/>
      <point x="1640.5" y="0.0" type="line"/>
      <point x="1661.7" y="-51.1"/>
      <point x="1690.4" y="-342.9"/>
    </contour>
    <component base="Sha-cy"/>
  </outline>
</glyph>
<glyph name="Hardsign-cy" format="2">
  <advance width="1461.3"/>
  <unicode hex="042A"/>
  <outline>
    <contour>
      <point x="961.2" y="-14.5" type="curve" smooth="yes"/>
      <point x="1220.8" y="-14.5"/>
      <point x="1425.7" y="161.8"/>
      <point x="1425.7" y="466.5" type="curve" smooth="yes"/>
      <point x="1425.7" y="727.5"/>
      <point x="1277.1" y="892.4"/>
      <point x="956.6" y="892.4" type="curve" smooth="yes"/>
      <point x="908.6" y="892.4"/>
      <point x="838.0" y="883.9"/>
      <point x="792.0" y="876.3" type="curve"/>
      <point x="792.0" y="1385.8" type="line"/>
      <point x="943.2" y="1419.6" type="line"/>
      <point x="943.2" y="1486.0" type="line"/>
      <point x="53.8" y="1486.0" type="line"/>
      <point x="21.800000000000004" y="909.3" type="line"/>
      <point x="183.3" y="909.3" type="line"/>
      <point x="313.2" y="1389.6" type="line"/>
      <point x="447.2" y="1405.2" type="line"/>
      <point x="447.2" y="96.60000000000001" type="line"/>
      <point x="320.9" y="65.80000000000001" type="line"/>
      <point x="320.9" y="0.0" type="line"/>
      <point x="623.0" y="-0.7" type="line" smooth="yes"/>
      <point x="751.0" y="-0.7"/>
      <point x="860.9" y="-14.5"/>
    </contour>
    <contour>
      <point x="866.1" y="74.3" type="curve" smooth="yes"/>
      <point x="834.3" y="74.3"/>
      <point x="812.2" y="78.9"/>
      <point x="792.0" y="86.8" type="curve"/>
      <point x="792.0" y="792.5" type="line"/>
      <point x="810.0" y="798.1"/>
      <point x="840.2" y="803.3"/>
      <point x="864.3" y="803.3" type="curve" smooth="yes"/>
      <point x="1006.0" y="803.3"/>
      <point x="1074.2" y="691.4"/>
      <point x="1074.2" y="455.1" type="curve" smooth="yes"/>
      <point x="1074.2" y="241.0"/>
      <point x="1019.6" y="74.3"/>
    </contour>
  </outline>
</glyph>
<glyph name="Iu-cy" format="2">
  <advance width="1881.7"/>
  <unicode hex="042E"/>
  <outline>
    <contour>
      <point x="1269.8" y="-22.0" type="curve" smooth="yes"/>
      <point x="1649.2" y="-20.1"/>
      <point x="1845.9" y="293.3"/>
      <point x="1845.9" y="776.4" type="curve" smooth="yes"/>
      <point x="1845.9" y="1233.1"/>
      <point x="1677.9" y="1503.0"/>
      <point x="1289.7" y="1502.9" type="curve" smooth="yes"/>
      <point x="932.4" y="1502.8"/>
      <point x="736.8" y="1234.6"/>
      <point x="713.1" y="807.0" type="curve"/>
      <point x="502.7" y="807.0" type="line"/>
      <point x="502.7" y="1384.7" type="line"/>
      <point x="632.3" y="1419.4" type="line"/>
      <point x="632.3" y="1486.0" type="line"/>
      <point x="43.1" y="1486.0" type="line"/>
      <point x="43.1" y="1419.4" type="line"/>
      <point x="157.89999999999998" y="1384.7" type="line"/>
      <point x="157.89999999999998" y="95.60000000000001" type="line"/>
      <point x="43.0" y="65.9" type="line"/>
      <point x="43.0" y="0.0" type="line"/>
      <point x="633.0" y="0.0" type="line"/>
      <point x="633.0" y="65.30000000000001" type="line"/>
      <point x="502.7" y="96.0" type="line"/>
      <point x="502.7" y="709.0" type="line"/>
      <point x="710.8" y="709.0" type="line"/>
      <point x="715.6" y="232.1"/>
      <point x="888.2" y="-24.2"/>
    </contour>
    <contour>
      <point x="1278.6" y="63.400000000000006" type="curve" smooth="yes"/>
      <point x="1145.4" y="63.400000000000006"/>
      <point x="1082.5" y="259.5"/>
      <point x="1082.5" y="723.1" type="curve" smooth="yes"/>
      <point x="1082.5" y="1239.7"/>
      <point x="1148.4" y="1418.1"/>
      <point x="1275.4" y="1418.1" type="curve" smooth="yes"/>
      <point x="1410.3" y="1418.1"/>
      <point x="1474.6" y="1229.2"/>
      <point x="1474.6" y="771.6" type="curve" smooth="yes"/>
      <point x="1474.6" y="248.10000000000002"/>
      <point x="1406.3" y="63.400000000000006"/>
    </contour>
  </outline>
</glyph>
